<?xml version="1.0" encoding="UTF-8"?>
<svg version="1.1" xmlns:xlink="http://www.w3.org/1999/xlink" width="5px" height="10px" xmlns="http://www.w3.org/2000/svg">
  <g transform="matrix(1 0 0 1 -73 -13 )">
    <path d="M 5 1.42679900744417  C 5 1.5343258891646  4.96943371943372 1.62737799834574  4.90830115830116 1.70595533498759  L 2.34555984555985 5  L 4.90830115830116 8.29404466501241  C 4.96943371943372 8.37262200165426  5 8.4656741108354  5 8.57320099255583  C 5 8.68072787427626  4.96943371943372 8.7737799834574  4.90830115830116 8.85235732009926  L 4.10714285714286 9.88213399503722  C 4.0460102960103 9.96071133167907  3.97361647361647 10  3.88996138996139 10  C 3.80630630630631 10  3.73391248391248 9.96071133167907  3.67277992277992 9.88213399503722  L 0.0916988416988417 5.27915632754342  C 0.0305662805662806 5.20057899090157  0 5.10752688172043  0 5  C 0 4.89247311827957  0.0305662805662806 4.79942100909843  0.0916988416988417 4.72084367245658  L 3.67277992277992 0.117866004962779  C 3.73391248391248 0.0392886683209259  3.80630630630631 0  3.88996138996139 0  C 3.97361647361647 0  4.0460102960103 0.0392886683209259  4.10714285714286 0.117866004962779  L 4.90830115830116 1.14764267990074  C 4.96943371943372 1.2262200165426  5 1.31927212572374  5 1.42679900744417  Z " fill-rule="nonzero" fill="#002855" stroke="none" transform="matrix(1 0 0 1 73 13 )"/>
  </g>
</svg>