<!-- Generator: Adobe Illustrator 25.0.1, SVG Export Plug-In  -->
<svg version="1.1" xmlns="http://www.w3.org/2000/svg" xmlns:xlink="http://www.w3.org/1999/xlink" x="0px" y="0px" width="42px"
	 height="38px" viewBox="0 0 42 38" style="overflow:visible;enable-background:new 0 0 42 38;" xml:space="preserve">
<style type="text/css">
	.st0{fill:#9B9B9B;}
</style>
<defs>
</defs>
<g>
	<g>
		<path class="st0" d="M27,31.5H15c-0.6,0-1,0.4-1,1s0.4,1,1,1h12c0.6,0,1-0.4,1-1S27.5,31.5,27,31.5z"/>
		<path class="st0" d="M27,27.5H15c-0.6,0-1,0.4-1,1s0.4,1,1,1h12c0.6,0,1-0.4,1-1S27.5,27.5,27,27.5z"/>
		<path class="st0" d="M33,16.5h4c0.6,0,1-0.4,1-1c0-0.6-0.4-1-1-1h-4c-0.6,0-1,0.4-1,1C32,16.1,32.4,16.5,33,16.5z"/>
		<path class="st0" d="M41,10h-8V1c0-0.6-0.4-1-1-1H10C9.4,0,9,0.4,9,1v9H1c-0.6,0-1,0.4-1,1v20c0,0.6,0.4,1,1,1h8v5
			c0,0.6,0.4,1,1,1h22c0.6,0,1-0.4,1-1v-5h8c0.6,0,1-0.4,1-1V11C42,10.4,41.5,10,41,10z M11,2h20v8H11V2z M31,36H11v-5l0,0l0,0v-6
			h20V36z M40,30h-7v-5h3c0.6,0,1-0.4,1-1c0-0.6-0.4-1-1-1H6c-0.6,0-1,0.4-1,1c0,0.6,0.4,1,1,1h3v5H2V12h8h22h8V30z"/>
	</g>
</g>
</svg>
