<?xml version="1.0" encoding="utf-8"?>
<svg version="1.1" xmlns:xlink="http://www.w3.org/1999/xlink" width="19px" height="19px" viewBox="143 67  19 19" xmlns="http://www.w3.org/2000/svg">
  <path d="M 152.5 68  C 157.26 68  161 71.74  161 76.5  C 161 81.26  157.26 85  152.5 85  C 147.74 85  144 81.26  144 76.5  C 144 71.74  147.74 68  152.5 68  Z " fill-rule="nonzero" fill="#ffffff" stroke="none" />
  <path d="M 152.5 68  C 157.26 68  161 71.74  161 76.5  C 161 81.26  157.26 85  152.5 85  C 147.74 85  144 81.26  144 76.5  C 144 71.74  147.74 68  152.5 68  Z " stroke-width="2" stroke="#510b76" fill="none" />
  <path d="M 152.5 81.25  C 149.84 81.25  147.75 79.16  147.75 76.5  C 147.75 73.84  149.84 71.75  152.5 71.75  C 155.16 71.75  157.25 73.84  157.25 76.5  C 157.25 79.16  155.16 81.25  152.5 81.25  " fill-rule="nonzero" fill="#510b76" stroke="none" />
</svg>