<!-- Generator: Adobe Illustrator 25.0.1, SVG Export Plug-In  -->
<svg version="1.1" xmlns="http://www.w3.org/2000/svg" xmlns:xlink="http://www.w3.org/1999/xlink" x="0px" y="0px" width="99.5px"
	 height="99.5px" viewBox="0 0 99.5 99.5" style="overflow:visible;enable-background:new 0 0 99.5 99.5;" xml:space="preserve">
<style type="text/css">
	.st0{fill:#073573;}
</style>
<defs>
</defs>
<g>
	<g>
		<g>
			<g>
				<path class="st0" d="M49.7,99.5c-7.9,0-15.2-5.3-20.6-14.9C23.9,75.3,21,62.9,21,49.7s2.9-25.5,8.2-34.9C34.6,5.3,41.9,0,49.7,0
					s15.2,5.3,20.6,14.9c5.3,9.3,8.2,21.7,8.2,34.9s-2.9,25.5-8.2,34.9C64.9,94.2,57.6,99.5,49.7,99.5z M49.7,2.9
					c-6.7,0-13.1,4.8-18,13.4c-5,8.9-7.8,20.8-7.8,33.4c0,12.6,2.8,24.5,7.8,33.4c4.9,8.6,11.3,13.4,18,13.4s13.1-4.8,18-13.4
					c5-8.9,7.8-20.8,7.8-33.4c0-12.6-2.8-24.5-7.8-33.4C62.9,7.7,56.5,2.9,49.7,2.9z"/>
			</g>
			<g>
				<path class="st0" d="M29.4,90.4c-6.1,0-11.2-1.9-14.9-5.5c-5.5-5.5-7-14.5-4-25.1c2.9-10.3,9.6-21.1,18.9-30.4
					s20.1-16,30.4-18.9c10.6-3,19.5-1.5,25.1,4l0,0c5.5,5.5,7,14.4,4,25.1C86.1,50,79.4,60.8,70.1,70.1S50,86.1,39.7,89
					C36,89.9,32.6,90.4,29.4,90.4z M70,12c-2.9,0-6,0.5-9.4,1.4c-9.8,2.7-20.2,9.2-29.1,18.1S16.1,50.8,13.4,60.6
					c-2.7,9.6-1.5,17.4,3.3,22.2c4.8,4.8,12.7,5.9,22.2,3.3C48.7,83.4,59,76.9,68,68s15.4-19.3,18.1-29.1c2.7-9.6,1.5-17.4-3.3-22.2
					C79.8,13.6,75.4,12,70,12z"/>
			</g>
			<g>
				<path class="st0" d="M49.7,78.5c-13.1,0-25.5-2.9-34.9-8.2C5.3,64.9,0,57.6,0,49.7s5.3-15.2,14.9-20.6
					c9.3-5.3,21.7-8.2,34.9-8.2s25.5,2.9,34.9,8.2c9.6,5.4,14.9,12.7,14.9,20.6c0,7.9-5.3,15.2-14.9,20.6
					C75.3,75.6,62.9,78.5,49.7,78.5z M49.7,23.9c-12.6,0-24.5,2.8-33.4,7.8C7.7,36.6,2.9,43,2.9,49.7s4.8,13.1,13.4,18
					c8.9,5,20.8,7.8,33.4,7.8c12.6,0,24.5-2.8,33.4-7.8c8.6-4.9,13.4-11.3,13.4-18s-4.8-13.1-13.4-18C74.3,26.7,62.4,23.9,49.7,23.9
					z"/>
			</g>
			<g>
				<path class="st0" d="M70,90.4c-3.1,0-6.6-0.5-10.2-1.5c-10.3-2.9-21.1-9.6-30.4-18.9S13.4,50,10.6,39.6c-3-10.6-1.5-19.5,4-25.1
					c5.5-5.5,14.4-7,25.1-4c10.3,2.9,21.1,9.6,30.4,18.9s16,20.1,18.9,30.4c3,10.6,1.5,19.5-4,25.1C81.3,88.6,76.2,90.4,70,90.4z
					 M29.5,12c-5.3,0-9.7,1.6-12.8,4.7c-4.8,4.8-5.9,12.7-3.3,22.2C16.1,48.7,22.6,59,31.5,68s19.3,15.4,29.1,18.1
					c9.6,2.6,17.4,1.5,22.2-3.3c4.8-4.8,5.9-12.7,3.3-22.2C83.4,50.8,77,40.4,68,31.5S48.7,16.1,38.9,13.4
					C35.5,12.4,32.3,12,29.5,12z"/>
			</g>
			<g>
				<path class="st0" d="M62.3,76.4c-0.8,0-1.5-0.7-1.5-1.5V62.3c0-6.1-5-11.1-11.1-11.1s-11.1,5-11.1,11.1v12.6
					c0,0.8-0.7,1.5-1.5,1.5c-0.8,0-1.5-0.7-1.5-1.5V62.3c0-7.7,6.3-14.1,14.1-14.1s14.1,6.3,14.1,14.1v12.6
					C63.8,75.8,63.2,76.4,62.3,76.4z"/>
			</g>
			<g>
				<path class="st0" d="M49.7,51.2c-5.4,0-9.9-4.4-9.9-9.9s4.4-9.9,9.9-9.9s9.9,4.4,9.9,9.9S55.2,51.2,49.7,51.2z M49.7,34.4
					c-3.8,0-6.9,3.1-6.9,6.9s3.1,6.9,6.9,6.9c3.8,0,6.9-3.1,6.9-6.9S53.6,34.4,49.7,34.4z"/>
			</g>
		</g>
	</g>
</g>
</svg>