<!-- Generator: Adobe Illustrator 25.0.1, SVG Export Plug-In  -->
<svg version="1.1" xmlns="http://www.w3.org/2000/svg" xmlns:xlink="http://www.w3.org/1999/xlink" x="0px" y="0px" width="80.5px"
	 height="80.3px" viewBox="0 0 80.5 80.3" style="overflow:visible;enable-background:new 0 0 80.5 80.3;" xml:space="preserve">
<style type="text/css">
	.st0{fill:#216C06;}
</style>
<defs>
</defs>
<path class="st0" d="M15.8,34.6c0.2-0.2,0.4-0.4,0.5-0.7c0.4-0.7,0.5-1.6,0.2-2.4c-0.3-0.9-1-1.6-1.8-2l0.7-8.3c0-0.1,0-0.2,0-0.3
	c0-0.1-0.4-1.9-2.3-3c-1.7-1-4-1.2-6.8-0.6c-0.1,0-0.1,0-0.2,0l-0.2,0c-0.1,0-0.1,0-0.2,0.1c-2.7,1-4.5,2.4-5.3,4.2
	c-0.9,2-0.2,3.7-0.2,3.8c0,0.1,0.1,0.2,0.1,0.3l5.3,6.6C5.2,33.1,5,34,5.3,34.9C5.7,36,6.6,36.8,7.7,37l13.3,40.7
	c0.4,1.4,1.7,2.2,3.1,2.2c0.3,0,0.6,0,0.9-0.1c1.7-0.5,2.7-2.3,2.2-4L15.8,34.6z M2.3,22.5c0.6-1.3,2.1-2.4,4.3-3.2
	c2.3-0.6,4.1-0.5,5.4,0.3c0.9,0.6,1.3,1.4,1.4,1.7l-0.7,8.2c0,0,0,0,0,0L7.4,31c-0.1,0-0.1,0.1-0.2,0.1l-5.1-6.4
	C2,24.4,1.9,23.5,2.3,22.5z M7.2,34.3C7,33.7,7.4,33.1,8,33l5.3-1.6c0.1,0,0.2,0,0.3,0c0.5,0,0.9,0.3,1.1,0.8
	c0.1,0.3,0.1,0.6-0.1,0.8c-0.1,0.3-0.4,0.4-0.7,0.5l-5.3,1.6C8,35.2,7.4,34.9,7.2,34.3z M24.4,77.9c-0.7,0.2-1.3-0.2-1.6-0.8
	L9.7,36.8l4.2-1.3l11.3,40.8C25.4,77,25,77.7,24.4,77.9z"/>
<path class="st0" d="M57.9,38.7l8.2-14.7c0,0,0,0,0.1,0c0.4,0,0.7-0.1,1-0.2c0.9-0.3,1.6-0.9,2-1.7c0.5-1,0.5-2.1,0.1-3.1l10.1-5
	c0.3-0.2,0.6-0.5,0.6-0.9c0-0.3,0-6.7-7.7-11.3c0,0-0.1-0.1-0.2-0.1L72,1.7c-0.1,0-0.1-0.1-0.2-0.1c-8.2-3.7-13.4,0-13.6,0.2
	c-0.3,0.2-0.5,0.6-0.4,1l1.8,11.4c-0.1,0-0.2,0-0.3,0.1c-0.9,0.3-1.6,0.9-2,1.7c-0.6,1.2-0.5,2.6,0.3,3.7l-5.9,12.3l-9-9.8
	c0.1-0.4,0.2-0.8,0.2-1.2c0-1-0.3-1.9-1-2.6s-1.6-1.1-2.5-1.1c-0.4,0-0.7,0.1-1.1,0.2c0.3-1,0.5-2,0.5-3c0.1-2.9-1-5.6-3-7.7
	c0,0,0,0,0,0C30.3,0.8,16.3,0,15.7,0c-0.3,0-0.5,0.1-0.7,0.3c-0.2,0.2-0.3,0.5-0.3,0.7c0,0.6,0.4,14.9,5.6,20.4
	c2,2.1,4.7,3.3,7.5,3.3c0.1,0,0.2,0,0.3,0c1,0,1.9-0.1,2.8-0.4c-0.1,0.3-0.2,0.7-0.2,1.1c0,1,0.3,1.9,1,2.6c0.7,0.7,1.6,1.1,2.5,1.1
	c0,0,0.1,0,0.1,0c0.4,0,0.7-0.1,1.1-0.2l11.7,11.7l-16,33.5c-1.3,2.8-1.1,4.6,0.6,5.5c0.4,0.2,0.8,0.3,1.1,0.3
	c1.9,0,3.3-2.5,3.8-3.5l16.5-29.8l20.3,20.4c0.7,0.7,1.7,1.1,2.7,1.1c1,0,1.9-0.3,2.6-1c1.5-1.4,1.6-3.8,0.2-5.3L57.9,38.7z
	 M71.1,3.5c5.6,3.3,6.6,7.5,6.8,9.1l-10,4.9c0,0,0,0,0,0c-0.1,0-0.1-0.1-0.1-0.1l-5.8-3c-0.1-0.1-0.2-0.1-0.4-0.1c0,0,0,0,0-0.1
	L59.9,3.1C61.2,2.4,65.3,0.8,71.1,3.5z M59,16.8c0.2-0.4,0.5-0.6,0.9-0.7c0.4-0.1,0.8-0.1,1.1,0.1l5.8,3c0.7,0.4,1,1.3,0.6,2
	c-0.2,0.4-0.5,0.6-0.9,0.7c-0.4,0.1-0.8,0.1-1.1-0.1l-5.8-3C59,18.5,58.7,17.6,59,16.8z M59.2,20.9l5,2.6l-7.6,13.7l-3.3-3.6
	L59.2,20.9z M27.9,22.8c-2.3-0.1-4.5-1-6.1-2.7c-3.9-4.1-4.8-14.6-5-18C20.1,2.4,30.3,3.6,34.4,8v0c1.6,1.7,2.5,3.9,2.4,6.3
	c-0.1,2.3-1,4.5-2.7,6.1C32.5,22,30.2,22.9,27.9,22.8z M34.3,27.3c-0.4,0-0.8-0.2-1.1-0.5c-0.3-0.3-0.5-0.7-0.5-1.2s0.2-0.8,0.5-1.1
	l5-4.8c0.3-0.3,0.7-0.5,1.1-0.5c0,0,0,0,0,0c0.4,0,0.8,0.2,1.1,0.5c0.3,0.3,0.5,0.7,0.5,1.2s-0.2,0.8-0.5,1.1c0,0,0,0,0,0l-5,4.8
	C35.1,27.1,34.8,27.3,34.3,27.3z M51.6,45.5L34.9,75.6c-1,1.7-1.8,2.6-2.3,2.4c-0.2-0.1-0.9-0.5,0.3-2.9l15.7-32.8L51.6,45.5
	C51.7,45.4,51.6,45.4,51.6,45.5z M77.4,65.8c-0.7,0.7-1.9,0.7-2.6,0L37.2,28l4.4-4.2l36,39.5C78.2,64,78.1,65.1,77.4,65.8z"/>
<path class="st0" d="M80,35.2L77.8,34c-1.6-0.9-2.9-2.2-3.8-3.8L72.8,28c-0.2-0.3-0.5-0.5-0.9-0.5S71.2,27.7,71,28l-1.2,2.2
	C69,31.8,67.7,33.2,66,34l-2.2,1.2c-0.3,0.2-0.5,0.5-0.5,0.9s0.2,0.7,0.5,0.9l2.2,1.2c1.6,0.9,2.9,2.2,3.8,3.8l1.2,2.2
	c0.2,0.3,0.5,0.5,0.9,0.5c0.4,0,0.7-0.2,0.9-0.5L74,42c0.9-1.6,2.2-2.9,3.8-3.8L80,37c0.3-0.2,0.5-0.5,0.5-0.9S80.3,35.4,80,35.2z
	 M76.8,36.4c-1.9,1.1-3.5,2.7-4.6,4.6l-0.3,0.6L71.6,41c-1.1-1.9-2.7-3.5-4.6-4.6l-0.6-0.3l0.6-0.3c1.9-1.1,3.5-2.7,4.6-4.6l0.3-0.6
	l0.3,0.6c1.1,1.9,2.7,3.5,4.6,4.6l0.6,0.3L76.8,36.4z"/>
<path class="st0" d="M31.1,49.2l1.2-2.2c0.9-1.6,2.2-2.9,3.8-3.8l2.2-1.2c0.3-0.2,0.5-0.5,0.5-0.9s-0.2-0.7-0.5-0.9l-2.2-1.2
	c-1.6-0.9-2.9-2.2-3.8-3.8l-1.2-2.2c-0.3-0.6-1.4-0.6-1.8,0l-1.2,2.2c-0.9,1.6-2.2,2.9-3.8,3.8l-2.2,1.2c-0.3,0.2-0.5,0.5-0.5,0.9
	s0.2,0.7,0.5,0.9l2.2,1.2c1.6,0.9,2.9,2.2,3.8,3.8l1.2,2.2c0.2,0.3,0.5,0.5,0.9,0.5S31,49.6,31.1,49.2z M25.3,41.5l-0.6-0.3l0.6-0.3
	c1.9-1.1,3.5-2.7,4.6-4.6l0.3-0.6l0.3,0.6c1.1,1.9,2.7,3.5,4.6,4.6l0.6,0.3l-0.6,0.3c-1.9,1.1-3.5,2.7-4.6,4.6l-0.3,0.6l-0.3-0.6
	C28.9,44.1,27.3,42.6,25.3,41.5z"/>
<path class="st0" d="M63.5,70.8l-2.2-1.2c-1.6-0.9-2.9-2.2-3.8-3.8l-1.2-2.2c-0.4-0.6-1.4-0.6-1.8,0l-1.2,2.2
	c-0.9,1.6-2.2,2.9-3.8,3.8l-2.2,1.2c-0.3,0.2-0.5,0.5-0.5,0.9s0.2,0.7,0.5,0.9l2.2,1.2c1.6,0.9,2.9,2.2,3.8,3.8l1.2,2.2
	c0.2,0.3,0.5,0.5,0.9,0.5s0.7-0.2,0.9-0.5l1.2-2.2c0.9-1.6,2.2-2.9,3.8-3.8l2.2-1.2c0.3-0.2,0.5-0.5,0.5-0.9S63.8,71,63.5,70.8z
	 M60.4,72c-1.9,1.1-3.5,2.7-4.6,4.6l-0.3,0.6l-0.3-0.6c-1.1-1.9-2.7-3.5-4.6-4.6l-0.6-0.3l0.6-0.3c1.9-1.1,3.5-2.7,4.6-4.6l0.3-0.6
	l0.3,0.6c1.1,1.9,2.7,3.5,4.6,4.6l0.6,0.3L60.4,72z"/>
</svg>
