<?xml version="1.0" encoding="UTF-8"?>
<svg version="1.1" xmlns:xlink="http://www.w3.org/1999/xlink" width="14px" height="22px" xmlns="http://www.w3.org/2000/svg">
  <g transform="matrix(1 0 0 1 -1 -131 )">
    <path d="M 9.5498046875 5.12760416666667  C 9.8916015625 5.49045138888889  10.0625 5.92013888888889  10.0625 6.41666666666667  C 10.0625 6.54079861111111  10.0192057291667 6.64822048611111  9.9326171875 6.73893229166667  C 9.84602864583333 6.82964409722222  9.74348958333333 6.875  9.625 6.875  C 9.50651041666667 6.875  9.40397135416667 6.82964409722222  9.3173828125 6.73893229166667  C 9.23079427083333 6.64822048611111  9.1875 6.54079861111111  9.1875 6.41666666666667  C 9.1875 5.97743055555555  8.94140625 5.63845486111111  8.44921875 5.39973958333333  C 7.95703125 5.16102430555555  7.47395833333333 5.04166666666667  7 5.04166666666667  C 6.88151041666667 5.04166666666667  6.77897135416667 4.99631076388889  6.6923828125 4.90559895833333  C 6.60579427083333 4.81488715277778  6.5625 4.70746527777778  6.5625 4.58333333333333  C 6.5625 4.45920138888889  6.60579427083333 4.35177951388889  6.6923828125 4.26106770833333  C 6.77897135416667 4.17035590277778  6.88151041666667 4.125  7 4.125  C 7.45572916666667 4.125  7.9091796875 4.20138888888889  8.3603515625 4.35416666666667  C 8.8115234375 4.50694444444444  9.2080078125 4.76475694444444  9.5498046875 5.12760416666667  Z M 11.3203125 8.99479166666667  C 11.9401041666667 8.24045138888889  12.25 7.38107638888889  12.25 6.41666666666667  C 12.25 5.72916666666667  12.0927734375 5.08940972222222  11.7783203125 4.49739583333333  C 11.4638671875 3.90538194444444  11.0537109375 3.42078993055555  10.5478515625 3.04361979166667  C 10.0419921875 2.66644965277778  9.4814453125 2.37044270833333  8.8662109375 2.15559895833333  C 8.2509765625 1.94075520833333  7.62890625 1.83333333333333  7 1.83333333333333  C 6.37109375 1.83333333333333  5.7490234375 1.94075520833333  5.1337890625 2.15559895833333  C 4.5185546875 2.37044270833333  3.9580078125 2.66644965277778  3.4521484375 3.04361979166667  C 2.9462890625 3.42078993055555  2.5361328125 3.90538194444444  2.2216796875 4.49739583333333  C 1.9072265625 5.08940972222222  1.75 5.72916666666667  1.75 6.41666666666667  C 1.75 7.38107638888889  2.05989583333333 8.24045138888889  2.6796875 8.99479166666667  C 2.77083333333333 9.09982638888889  2.90983072916667 9.25737847222222  3.0966796875 9.46744791666667  C 3.28352864583333 9.67751736111111  3.42252604166667 9.83506944444444  3.513671875 9.94010416666667  C 4.68033854166667 11.4010416666667  5.32291666666667 12.8237847222222  5.44140625 14.2083333333333  L 8.55859375 14.2083333333333  C 8.67708333333333 12.8237847222222  9.31966145833333 11.4010416666667  10.486328125 9.94010416666667  C 10.5774739583333 9.83506944444444  10.7164713541667 9.67751736111111  10.9033203125 9.46744791666667  C 11.0901692708333 9.25737847222222  11.2291666666667 9.09982638888889  11.3203125 8.99479166666667  Z M 13.3916015625 3.77408854166667  C 13.7972005208333 4.59049479166667  14 5.47135416666667  14 6.41666666666667  C 14 7.89670138888889  13.5305989583333 9.17621527777778  12.591796875 10.2552083333333  C 12.181640625 10.7230902777778  11.8421223958333 11.1384548611111  11.5732421875 11.5013020833333  C 11.3043619791667 11.8641493055556  11.033203125 12.3200954861111  10.759765625 12.869140625  C 10.486328125 13.4181857638889  10.3313802083333 13.9314236111111  10.294921875 14.4088541666667  C 10.7233072916667 14.6762152777778  10.9375 15.0677083333333  10.9375 15.5833333333333  C 10.9375 15.9366319444444  10.8235677083333 16.2421875  10.595703125 16.5  C 10.8235677083333 16.7578125  10.9375 17.0633680555556  10.9375 17.4166666666667  C 10.9375 17.9131944444444  10.732421875 18.2999131944444  10.322265625 18.5768229166667  C 10.4407552083333 18.7964409722222  10.5 19.0208333333333  10.5 19.25  C 10.5 19.6892361111111  10.3564453125 20.0282118055556  10.0693359375 20.2669270833333  C 9.7822265625 20.5056423611111  9.42903645833333 20.625  9.009765625 20.625  C 8.82747395833333 21.0451388888889  8.55403645833333 21.3793402777778  8.189453125 21.6276041666667  C 7.82486979166667 21.8758680555556  7.42838541666667 22  7 22  C 6.57161458333333 22  6.17513020833333 21.8758680555556  5.810546875 21.6276041666667  C 5.44596354166667 21.3793402777778  5.17252604166667 21.0451388888889  4.990234375 20.625  C 4.57096354166667 20.625  4.2177734375 20.5056423611111  3.9306640625 20.2669270833333  C 3.6435546875 20.0282118055556  3.5 19.6892361111111  3.5 19.25  C 3.5 19.0208333333333  3.55924479166667 18.7964409722222  3.677734375 18.5768229166667  C 3.267578125 18.2999131944444  3.0625 17.9131944444444  3.0625 17.4166666666667  C 3.0625 17.0633680555556  3.17643229166667 16.7578125  3.404296875 16.5  C 3.17643229166667 16.2421875  3.0625 15.9366319444444  3.0625 15.5833333333333  C 3.0625 15.0677083333333  3.27669270833333 14.6762152777778  3.705078125 14.4088541666667  C 3.66861979166667 13.9314236111111  3.513671875 13.4181857638889  3.240234375 12.869140625  C 2.966796875 12.3200954861111  2.69563802083333 11.8641493055556  2.4267578125 11.5013020833333  C 2.15787760416667 11.1384548611111  1.818359375 10.7230902777778  1.408203125 10.2552083333333  C 0.469401041666667 9.17621527777778  0 7.89670138888889  0 6.41666666666667  C 0 5.47135416666667  0.202799479166667 4.59049479166667  0.6083984375 3.77408854166667  C 1.01399739583333 2.95768229166667  1.54720052083333 2.27973090277778  2.2080078125 1.740234375  C 2.86881510416667 1.20073784722222  3.6162109375 0.775824652777775  4.4501953125 0.465494791666666  C 5.2841796875 0.155164930555554  6.13411458333333 0  7 0  C 7.86588541666667 0  8.7158203125 0.155164930555554  9.5498046875 0.465494791666666  C 10.3837890625 0.775824652777775  11.1311848958333 1.20073784722222  11.7919921875 1.740234375  C 12.4527994791667 2.27973090277778  12.9860026041667 2.95768229166667  13.3916015625 3.77408854166667  Z " fill-rule="nonzero" fill="#e3a82b" stroke="none" transform="matrix(1 0 0 1 1 131 )"/>
  </g>
</svg>