<?xml version="1.0" encoding="utf-8"?>
<svg version="1.1" xmlns:xlink="http://www.w3.org/1999/xlink" width="18px" height="13px" xmlns="http://www.w3.org/2000/svg">
  <g transform="matrix(1 0 0 1 -103 -216 )">
    <path d="M 17.6748387096774 1.79461279461279  C 17.8916129032258 1.99887766554433  18 2.24691358024691  18 2.53872053872054  C 18 2.83052749719416  17.8916129032258 3.07856341189674  17.6748387096774 3.28282828282828  L 9.26709677419355 11.2053872053872  L 7.68774193548387 12.6936026936027  C 7.47096774193548 12.8978675645342  7.20774193548387 13  6.89806451612903 13  C 6.58838709677419 13  6.32516129032258 12.8978675645342  6.10838709677419 12.6936026936027  L 4.52903225806452 11.2053872053872  L 0.325161290322581 7.24410774410774  C 0.108387096774194 7.03984287317621  0 6.79180695847362  0 6.5  C 0 6.20819304152637  0.108387096774194 5.96015712682379  0.325161290322581 5.75589225589226  L 1.90451612903226 4.26767676767677  C 2.12129032258065 4.06341189674523  2.38451612903226 3.96127946127946  2.6941935483871 3.96127946127946  C 3.00387096774194 3.96127946127946  3.26709677419355 4.06341189674523  3.48387096774194 4.26767676767677  L 6.89806451612903 7.49579124579125  L 14.5161290322581 0.306397306397306  C 14.7329032258065 0.102132435465768  14.9961290322581 0  15.3058064516129 0  C 15.6154838709677 0  15.8787096774194 0.102132435465768  16.0954838709677 0.306397306397306  L 17.6748387096774 1.79461279461279  Z " fill-rule="nonzero" fill="#238003" stroke="none" transform="matrix(1 0 0 1 103 216 )" />
  </g>
</svg>