<!-- Generator: Adobe Illustrator 25.0.1, SVG Export Plug-In  -->
<svg version="1.1" xmlns="http://www.w3.org/2000/svg" xmlns:xlink="http://www.w3.org/1999/xlink" x="0px" y="0px" width="65px" height="77.5px" viewBox="0 0 65 77.5" style="overflow:visible;enable-background:new 0 0 65 77.5;" xml:space="preserve">
<style type="text/css">
	.st0{fill:#216C06;}
</style>
<defs>
</defs>
<path class="st0" d="M7.2,77.5c-4-0.1-7.2-3.3-7.2-7.3V51.3c0-0.6,0.4-1.1,1.1-1.1h11.5V6.1c0-3.4,2.7-6.1,6.1-6.1h40.2  C62.2,0,65,2.7,65,6.1v65.4c0,3.4-2.7,6.1-6.1,6.1H7.2z M18.5,2.1c-2.2,0-4,1.8-4,4V70c0,0.5,0,1-0.1,1.3l0,0.2  c-0.1,0.4-0.2,0.8-0.4,1.2l0,0.2c-0.1,0.3-0.2,0.7-0.5,1L13.5,74c-0.3,0.4-0.5,0.8-0.8,1L12.7,75v0.4h46.2c2.2,0,4-1.8,4-4v-0.2  h-0.1v-6.9l-0.1-0.1c-0.1-0.1-0.1-0.1-0.1-0.4V6.1c0-2.2-1.8-4-4-4H18.5z M2.1,70.2c0,2.9,2.3,5.2,5.2,5.2c2.9,0,5.2-2.3,5.2-5.2  V52.4H2.1V70.2z"/>
<path class="st0" d="M55.1,68.7c-0.4,0-0.8-0.3-0.9-0.7l-2.5-7.6c-0.1-0.1-0.1-0.2-0.1-0.3V9.9c0-0.6,0.4-1.1,1.1-1.1h5  c0.6,0,1.1,0.4,1.1,1.1v50.3c0,0,0,0.1,0,0.1c0,0.1-0.1,0.2-0.1,0.3L56.1,68C56,68.4,55.5,68.7,55.1,68.7z M55.1,64.3l1-3.1h-2.1  L55.1,64.3z M53.7,59.1h2.9V15.9h-2.9V59.1z M53.7,13.8h2.9v-2.9h-2.9V13.8z"/>
<path class="st0" d="M19.9,12.2c-0.6,0-1.1-0.4-1.1-1.1c0-0.6,0.4-1.1,1.1-1.1h25.1c0.6,0,1.1,0.4,1.1,1.1c0,0.6-0.4,1.1-1.1,1.1  H19.9z"/>
<path class="st0" d="M19.9,17.2c-0.6,0-1.1-0.4-1.1-1.1s0.4-1.1,1.1-1.1h25.1c0.6,0,1.1,0.4,1.1,1.1s-0.4,1.1-1.1,1.1H19.9z"/>
<path class="st0" d="M19.9,22.2c-0.6,0-1.1-0.4-1.1-1.1c0-0.6,0.4-1.1,1.1-1.1h25.1c0.6,0,1.1,0.4,1.1,1.1c0,0.6-0.4,1.1-1.1,1.1  H19.9z"/>
<path class="st0" d="M19.9,27.3c-0.6,0-1.1-0.4-1.1-1.1s0.4-1.1,1.1-1.1h25.1c0.6,0,1.1,0.4,1.1,1.1s-0.4,1.1-1.1,1.1H19.9z"/>
<path class="st0" d="M19.9,32.3c-0.6,0-1.1-0.4-1.1-1.1c0-0.6,0.4-1.1,1.1-1.1h25.1c0.6,0,1.1,0.4,1.1,1.1c0,0.6-0.4,1.1-1.1,1.1  H19.9z"/>
<path class="st0" d="M19.9,37.3c-0.6,0-1.1-0.4-1.1-1.1c0-0.6,0.4-1.1,1.1-1.1h25.1c0.6,0,1.1,0.4,1.1,1.1c0,0.6-0.4,1.1-1.1,1.1  H19.9z"/>
<path class="st0" d="M19.9,42.3c-0.6,0-1.1-0.4-1.1-1.1c0-0.6,0.4-1.1,1.1-1.1h25.1c0.6,0,1.1,0.4,1.1,1.1c0,0.6-0.4,1.1-1.1,1.1  H19.9z"/>
<path class="st0" d="M19.9,47.4c-0.6,0-1.1-0.4-1.1-1.1c0-0.6,0.4-1.1,1.1-1.1h25.1c0.6,0,1.1,0.4,1.1,1.1c0,0.6-0.4,1.1-1.1,1.1  H19.9z"/>
<path class="st0" d="M19.9,52.4c-0.6,0-1.1-0.4-1.1-1.1c0-0.6,0.4-1.1,1.1-1.1h25.1c0.6,0,1.1,0.4,1.1,1.1c0,0.6-0.4,1.1-1.1,1.1  H19.9z"/>
<path class="st0" d="M19.9,57.4c-0.6,0-1.1-0.4-1.1-1.1c0-0.6,0.4-1.1,1.1-1.1h25.1c0.6,0,1.1,0.4,1.1,1.1c0,0.6-0.4,1.1-1.1,1.1  H19.9z"/>
<path class="st0" d="M19.9,62.5c-0.6,0-1.1-0.4-1.1-1.1c0-0.6,0.4-1.1,1.1-1.1h25.1c0.6,0,1.1,0.4,1.1,1.1c0,0.6-0.4,1.1-1.1,1.1  H19.9z"/>
<path class="st0" d="M19.9,67.5c-0.6,0-1.1-0.4-1.1-1.1c0-0.6,0.4-1.1,1.1-1.1h25.1c0.6,0,1.1,0.4,1.1,1.1c0,0.6-0.4,1.1-1.1,1.1  H19.9z"/>
</svg>