<!-- Generator: Adobe Illustrator 25.0.1, SVG Export Plug-In  -->
<svg version="1.1" xmlns="http://www.w3.org/2000/svg" xmlns:xlink="http://www.w3.org/1999/xlink" x="0px" y="0px" width="63.2px"
	 height="92.5px" viewBox="0 0 63.2 92.5" style="overflow:visible;enable-background:new 0 0 63.2 92.5;" xml:space="preserve">
<style type="text/css">
	.st0{fill:#510B76;}
</style>
<defs>
</defs>
<path class="st0" d="M1.3,92.5c-0.7,0-1.3-0.6-1.3-1.3V10.9c0-0.7,0.6-1.3,1.3-1.3h12.3l0-0.1c0.8-2.6,3.2-4.5,6-4.5H25l0-0.1
	C26,2,28.7,0,31.6,0s5.6,2,6.5,4.9l0,0.1h5.3c2.8,0,5.2,1.8,6,4.5l0,0.1h12.3c0.7,0,1.3,0.6,1.3,1.3v80.3c0,0.7-0.6,1.3-1.3,1.3H1.3
	z M2.6,89.9h57.9V12.2H49.7v1.7c0,0.7-0.6,1.3-1.3,1.3H14.7c-0.7,0-1.3-0.6-1.3-1.3v-1.7H2.6V89.9z M19.7,7.6
	c-1.9,0-3.5,1.5-3.6,3.4l0,1.6h31V11c-0.1-1.9-1.7-3.4-3.6-3.4h-6.4c-0.7,0-1.2-0.5-1.3-1.2c-0.2-2.2-2-3.8-4.2-3.8s-4,1.6-4.2,3.8
	c-0.1,0.7-0.6,1.2-1.3,1.2H19.7z"/>
<path class="st0" d="M25.9,78.8c-0.7,0-1.3-0.6-1.3-1.3s0.6-1.3,1.3-1.3h21.5c0.7,0,1.3,0.6,1.3,1.3s-0.6,1.3-1.3,1.3H25.9z"/>
<path class="st0" d="M25.9,69.8c-0.7,0-1.3-0.6-1.3-1.3s0.6-1.3,1.3-1.3h27.2c0.7,0,1.3,0.6,1.3,1.3s-0.6,1.3-1.3,1.3H25.9z"/>
<path class="st0" d="M25.9,57.8c-0.7,0-1.3-0.6-1.3-1.3s0.6-1.3,1.3-1.3h21.5c0.7,0,1.3,0.6,1.3,1.3s-0.6,1.3-1.3,1.3H25.9z"/>
<path class="st0" d="M25.9,48.8c-0.7,0-1.3-0.6-1.3-1.3s0.6-1.3,1.3-1.3h27.2c0.7,0,1.3,0.6,1.3,1.3s-0.6,1.3-1.3,1.3H25.9z"/>
<path class="st0" d="M25.9,36.8c-0.7,0-1.3-0.6-1.3-1.3s0.6-1.3,1.3-1.3h21.5c0.7,0,1.3,0.6,1.3,1.3s-0.6,1.3-1.3,1.3H25.9z"/>
<path class="st0" d="M25.9,27.8c-0.7,0-1.3-0.6-1.3-1.3s0.6-1.3,1.3-1.3h27.2c0.7,0,1.3,0.6,1.3,1.3s-0.6,1.3-1.3,1.3H25.9z"/>
<path class="st0" d="M13.1,36.5c-0.4,0-0.8-0.2-1-0.5l-3-4.2c-0.4-0.6-0.3-1.4,0.3-1.8c0.3-0.2,0.5-0.3,0.8-0.3c0.4,0,0.8,0.2,1,0.5
	l2,2.7l5-6.9c0.3-0.3,0.7-0.5,1.1-0.5c0.3,0,0.5,0.1,0.8,0.2c0.6,0.4,0.7,1.2,0.3,1.8l-6,8.4C13.9,36.3,13.5,36.5,13.1,36.5z"/>
<path class="st0" d="M13.1,57.5c-0.4,0-0.8-0.2-1-0.5l-3-4.2c-0.4-0.6-0.3-1.4,0.3-1.8c0.3-0.2,0.5-0.3,0.8-0.3c0.4,0,0.8,0.2,1,0.5
	l2,2.7l5-6.9c0.3-0.3,0.7-0.5,1.1-0.5c0.3,0,0.5,0.1,0.8,0.2c0.6,0.4,0.7,1.2,0.3,1.8l-6,8.4C13.9,57.3,13.5,57.5,13.1,57.5z"/>
<path class="st0" d="M13.1,78.5c-0.4,0-0.8-0.2-1-0.5l-3-4.2c-0.4-0.6-0.3-1.4,0.3-1.8c0.3-0.2,0.5-0.3,0.8-0.3c0.4,0,0.8,0.2,1,0.5
	l2,2.7l5-6.9c0.3-0.3,0.7-0.5,1.1-0.5c0.3,0,0.5,0.1,0.8,0.2c0.6,0.4,0.7,1.2,0.3,1.8l-6,8.4C13.9,78.3,13.5,78.5,13.1,78.5z"/>
</svg>
