<!-- Generator: Adobe Illustrator 25.0.1, SVG Export Plug-In  -->
<svg version="1.1" xmlns="http://www.w3.org/2000/svg" xmlns:xlink="http://www.w3.org/1999/xlink" x="0px" y="0px" width="64.4px"
	 height="93.3px" viewBox="0 0 64.4 93.3" style="overflow:visible;enable-background:new 0 0 64.4 93.3;" xml:space="preserve">
<style type="text/css">
	.st0{fill:#002857;}
</style>
<defs>
</defs>
<path class="st0" d="M32.2,93.3c-8.7,0-16.7-3.4-22.7-9.5C3.4,77.8,0,69.8,0,61.1V38.3c0-4.2,3.6-7.7,8-7.7c1,0,2.1,0.2,3,0.5
	l1.1,0.4v-19c0-4.3,3.6-7.8,8-7.8c1.2,0,2.4,0.3,3.4,0.8L24.3,6l0.3-0.8C25.9,2,28.9,0,32.2,0c3.4,0,6.3,2.1,7.6,5.3l0.3,0.9
	l0.8-0.4c1-0.5,2.1-0.8,3.4-0.8c4.4,0,8,3.5,8,7.8v1.7l1.1-0.4c0.9-0.4,1.9-0.5,3-0.5c2,0,4.1,0.8,5.7,2.2c1.5,1.5,2.3,3.4,2.3,5.5
	v40C64.4,78.9,50,93.3,32.2,93.3z M8,34.6c-2.3,0-4.1,1.7-4.1,3.8v22.8c0,7.5,3,14.6,8.3,20c5.4,5.4,12.5,8.3,20,8.3
	c15.3,0,27.9-12.3,28.3-27.5h0.2V21.1c0-1.2-0.6-2-1.1-2.6c-0.7-0.7-1.8-1.1-3-1.1c-2.2,0-4.1,1.6-4.1,3.6v22.8c0,1.1-0.9,2-2,2
	c-1.1,0-2-0.9-2-2V12.7c0-2.2-1.8-3.9-4.1-3.9s-4.1,1.8-4.1,3.9v31.1c0,1.1-0.9,2-2,2c-1.1,0-2-0.9-2-2v-36c0-2.2-1.8-3.9-4.1-3.9
	c-1.2,0-2.3,0.5-3,1.3c-0.7,0.7-1,1.7-0.9,2.7l0,35.9c0,1.1-0.9,2-2,2c-1.1,0-2-0.9-2-2V12.7c0-2.2-1.8-3.9-4.1-3.9
	s-4.1,1.8-4.1,3.9v47.5c0,1.1-0.9,2-2,2c-1.1,0-2-0.9-2-2V38.4c0-1-0.4-2-1.1-2.7C10.2,35,9.2,34.6,8,34.6z"/>
</svg>
