<!-- Generator: Adobe Illustrator 25.0.1, SVG Export Plug-In  -->
<svg version="1.1" xmlns="http://www.w3.org/2000/svg" xmlns:xlink="http://www.w3.org/1999/xlink" x="0px" y="0px" width="77px"
	 height="81px" viewBox="0 0 77 81" style="overflow:visible;enable-background:new 0 0 77 81;" xml:space="preserve">
<style type="text/css">
	.st0{fill:#880364;}
</style>
<defs>
</defs>
<path class="st0" d="M73,40H63v-6c0-2.2-1.8-4-4-4h-5V9c0-0.6-0.4-1-1-1h-7V1c0-0.6-0.2-1-0.8-1H0.8C0.2,0,0,0.4,0,1v64.2
	C0,65.8,0.2,66,0.8,66H8v7c0,0.6,0.4,1,1,1h10v3c0,2.2,1.8,4,4,4h50c2.2,0,4-1.8,4-4V44C77,41.8,75.2,40,73,40z M75,44v11.1
	l-19.4,2.8c-5,0.7-10,0.7-15,0L21,55.1V44c0-1.1,0.9-2,2-2h50C74.1,42,75,42.9,75,44z M57,36v4h-3v-4H57z M52,40H39v-4h13V40z
	 M61,34v6h-2v-5c0-0.6-0.4-1-1-1H38c-0.6,0-1,0.4-1,1v5h-2v-6c0-1.1,0.9-2,2-2h22C60.1,32,61,32.9,61,34z M2,64V2h42v6H9
	C8.4,8,8,8.4,8,9v55H2z M10,72V10h42v20H37c-2.2,0-4,1.8-4,4v6H23c-2.2,0-4,1.8-4,4v28H10z M73,79H23c-1.1,0-2-0.9-2-2V57.1
	l19.2,2.8c5.2,0.8,10.4,0.8,15.6,0L75,57.1V77C75,78.1,74.1,79,73,79z"/>
<path class="st0" d="M53,51H43c-0.6,0-1,0.4-1,1v3c0,0.6,0.4,1,1,1h10c0.6,0,1-0.4,1-1v-3C54,51.4,53.6,51,53,51z M52,54h-8v-1h8V54
	z"/>
<path class="st0" d="M17.2,24c0.3,0,0.5-0.1,0.7-0.3l4.4-4.4l6.2,4.6l0,0l0.2,0.1h0.1c0.1,0,0.1,0,0.2,0l0,0V24h0.1
	c0.1,0,0.3,0,0.4,0c0,0,0,0,0.1,0l0,0l14.9-8.5c0.5-0.3,0.7-0.9,0.4-1.3c-0.3-0.5-0.9-0.7-1.3-0.4c0,0,0,0-0.1,0l-14.3,8.2l-6.4-4.7
	l-0.1,0l-0.2-0.1h-0.2h-0.2L22,17l-0.2,0.1c-0.1,0-0.1,0.1-0.2,0.1c0,0-0.1,0-0.1,0.1l-5,5c-0.4,0.4-0.5,1-0.1,1.4
	C16.6,23.9,16.9,24,17.2,24z"/>
<path class="st0" d="M16,31h14c0.6,0,1-0.4,1-1s-0.4-1-1-1H16c-0.6,0-1,0.4-1,1S15.4,31,16,31z"/>
<path class="st0" d="M30,37c0-0.6-0.4-1-1-1H16c-0.6,0-1,0.4-1,1s0.4,1,1,1h13C29.6,38,30,37.6,30,37z"/>
</svg>
