<!-- Generator: Adobe Illustrator 25.0.1, SVG Export Plug-In  -->
<svg version="1.1" xmlns="http://www.w3.org/2000/svg" xmlns:xlink="http://www.w3.org/1999/xlink" x="0px" y="0px" width="97px" height="100px" viewBox="0 0 97 100" style="overflow:visible;enable-background:new 0 0 97 100;" xml:space="preserve">
<style type="text/css">
	.st0{fill:#880364;}
</style>
<defs>
</defs>
<g>
	<g>
		<path class="st0" d="M93.8,56.3h-9.4v-3.2h9.4l0-34.3l-90.6,0l0,34.3l6.2,0v3.2H3.2c-0.8,0-1.6-0.3-2.2-0.9C0.3,54.8,0,54,0,53.1    V18.8c0-0.8,0.3-1.6,0.9-2.2c0.6-0.6,1.4-0.9,2.2-0.9h90.6c0.8,0,1.6,0.3,2.2,0.9c0.6,0.6,0.9,1.4,0.9,2.2v34.4    c0,0.8-0.3,1.6-0.9,2.2C95.4,56,94.6,56.3,93.8,56.3z"/>
		<rect x="34.4" y="53.1" class="st0" width="28.1" height="3.2"/>
	</g>
	<g>
		<g>
			<g>
				<path class="st0" d="M64.2,68.8h-3.2V45.3c0-1.3,0.5-2.4,1.4-3.3c0.9-0.9,2.1-1.4,3.3-1.4c1.3,0,2.4,0.5,3.3,1.4      c0.9,0.9,1.4,2.1,1.4,3.3v15.6h-3.2V45.3c0-0.4-0.2-0.8-0.4-1.1c-0.6-0.6-1.6-0.6-2.1,0c-0.3,0.3-0.4,0.7-0.4,1.1L64.2,68.8      L64.2,68.8z"/>
				<path class="st0" d="M76.7,60.9h-3.2v-5.5c0-0.4-0.2-0.8-0.4-1.1c-0.6-0.6-1.6-0.6-2.1,0c-0.3,0.3-0.4,0.7-0.4,1.1v5.5h-3.2      v-5.5c0-1.3,0.5-2.4,1.4-3.3c0.9-0.9,2.1-1.4,3.3-1.4c1.3,0,2.4,0.5,3.3,1.4c0.9,0.9,1.4,2.1,1.4,3.3L76.7,60.9L76.7,60.9z"/>
				<path class="st0" d="M82.9,60.9h-3.2v-5.5c0-0.4-0.2-0.8-0.4-1.1c-0.6-0.6-1.6-0.6-2.1,0c-0.3,0.3-0.4,0.7-0.4,1.1v5.5h-3.2      v-5.5c0-1.3,0.5-2.4,1.4-3.3c0.9-0.9,2.1-1.4,3.3-1.4c1.3,0,2.4,0.5,3.3,1.4c0.9,0.9,1.4,2.1,1.4,3.3L82.9,60.9L82.9,60.9z"/>
				<path class="st0" d="M84.5,89.1h-3.2v-5l4.7-12.5V57.8c0-0.4-0.2-0.8-0.4-1.1c-0.6-0.6-1.6-0.6-2.1,0c-0.3,0.3-0.4,0.7-0.4,1.1      v3.1h-3.2v-3.1c0-1.3,0.5-2.4,1.4-3.3c0.9-0.9,2.1-1.4,3.3-1.4c1.3,0,2.4,0.5,3.3,1.4c0.9,0.9,1.4,2.1,1.4,3.3v14.4l-4.7,12.5      L84.5,89.1L84.5,89.1z"/>
				<path class="st0" d="M65.7,89.1h-3.2v-4c-1.8-1.9-7.8-8.7-7.8-14.7v-6.3c0-1.3,0.5-2.4,1.4-3.3c0.9-0.9,2.1-1.4,3.3-1.4      c1.3,0,2.4,0.5,3.3,1.4c0.9,0.9,1.4,2.1,1.4,3.3h-3.2c0-0.4-0.2-0.8-0.4-1.1c-0.6-0.6-1.6-0.6-2.1,0c-0.3,0.3-0.4,0.7-0.4,1.1      v6.3c0,4.5,5.3,10.8,7.3,12.9l0.5,0.5L65.7,89.1z"/>
			</g>
			<g>
				<path class="st0" d="M86,100h-3.2v-9.4l-18.7,0l0,9.3h-3.2v-9.4c0-0.8,0.3-1.6,0.9-2.2c0.6-0.6,1.4-0.9,2.2-0.9h18.8      c0.8,0,1.6,0.3,2.2,0.9c0.6,0.6,0.9,1.4,0.9,2.2V100z"/>
			</g>
		</g>
		<g>
			<g>
				<path class="st0" d="M36,68.8h-3.2V48.4c0-0.4-0.2-0.8-0.4-1.1c-0.6-0.6-1.6-0.6-2.1,0c-0.3,0.3-0.4,0.7-0.4,1.1v12.5h-3.2V48.4      c0-1.3,0.5-2.4,1.4-3.3c0.9-0.9,2.1-1.4,3.3-1.4c1.3,0,2.5,0.5,3.3,1.4c0.9,0.9,1.4,2.1,1.4,3.3C36,48.4,36,68.8,36,68.8z"/>
				<path class="st0" d="M29.8,60.9h-3.2V45.3c0-0.4-0.2-0.8-0.4-1.1c-0.6-0.6-1.6-0.6-2.1,0c-0.3,0.3-0.4,0.7-0.4,1.1v15.6h-3.2      V45.3c0-1.3,0.5-2.5,1.4-3.3c0.9-0.9,2.1-1.4,3.3-1.4c1.3,0,2.5,0.5,3.3,1.4c0.9,0.9,1.4,2.1,1.4,3.3L29.8,60.9L29.8,60.9z"/>
				<path class="st0" d="M23.5,60.9h-3.2V48.4c0-0.4-0.2-0.8-0.4-1.1c-0.6-0.6-1.6-0.6-2.1,0c-0.3,0.3-0.4,0.7-0.4,1.1v12.5h-3.2      V48.4c0-1.3,0.5-2.5,1.4-3.3c0.9-0.9,2.1-1.4,3.3-1.4c1.3,0,2.5,0.5,3.3,1.4c0.9,0.9,1.4,2.1,1.4,3.3L23.5,60.9L23.5,60.9z"/>
				<path class="st0" d="M15.7,89.1h-3.2v-4.4L7.8,72.2V51.6c0-1.3,0.5-2.5,1.4-3.3c0.9-0.9,2.1-1.4,3.3-1.4c1.3,0,2.5,0.5,3.3,1.4      c0.9,0.9,1.4,2.1,1.4,3.3v9.4h-3.2v-9.4c0-0.4-0.2-0.8-0.4-1.1c-0.6-0.6-1.6-0.6-2.1,0c-0.3,0.3-0.4,0.7-0.4,1.1v20l4.7,12.5      L15.7,89.1L15.7,89.1z"/>
				<path class="st0" d="M34.5,89.1h-3.2v-5.4l0.5-0.5c2-2,7.3-8.4,7.3-12.9v-6.3c0-0.4-0.2-0.8-0.4-1.1c-0.6-0.6-1.6-0.6-2.1,0      c-0.3,0.3-0.4,0.7-0.4,1.1h-3.2c0-1.3,0.5-2.4,1.4-3.3c0.9-0.9,2.1-1.4,3.3-1.4s2.5,0.5,3.3,1.4c0.9,0.9,1.4,2.1,1.4,3.3v6.3      c0,5.9-6,12.8-7.8,14.7V89.1z"/>
			</g>
			<g>
				<path class="st0" d="M36,100h-3.2v-9.4l-18.7,0l0,9.3h-3.2v-9.4c0-0.8,0.3-1.6,0.9-2.2c0.6-0.6,1.4-0.9,2.2-0.9h18.7      c0.8,0,1.6,0.3,2.2,0.9c0.6,0.6,0.9,1.4,0.9,2.2L36,100L36,100z"/>
			</g>
		</g>
	</g>
	<path class="st0" d="M50.1,17.2h-3.2v-3.1c0-0.4-0.2-0.8-0.4-1.1c-0.3-0.3-0.7-0.4-1.1-0.4H36c-1.3,0-2.5-0.5-3.3-1.4   c-0.9-0.9-1.4-2.1-1.4-3.3c0-1.3,0.5-2.5,1.4-3.3c0.9-0.9,2.1-1.4,3.3-1.4h18.8c0.4,0,0.8-0.2,1.1-0.4c0.3-0.3,0.4-0.7,0.4-1.1V0   h3.2v1.6c0,1.3-0.5,2.5-1.4,3.3c-0.9,0.9-2.1,1.4-3.3,1.4H36c-0.4,0-0.8,0.2-1.1,0.4c-0.3,0.3-0.4,0.7-0.4,1.1   c0,0.4,0.2,0.8,0.4,1.1c0.3,0.3,0.7,0.4,1.1,0.4h9.4c1.3,0,2.5,0.5,3.3,1.4c0.9,0.9,1.4,2.1,1.4,3.3L50.1,17.2L50.1,17.2z"/>
	<g>
		<g>
			<rect x="9.4" y="21.8" class="st0" width="3.1" height="3.2"/>
			<rect x="15.7" y="21.8" class="st0" width="3.1" height="3.2"/>
			<rect x="21.9" y="21.8" class="st0" width="3.1" height="3.2"/>
			<rect x="28.2" y="21.8" class="st0" width="3.1" height="3.2"/>
			<rect x="34.4" y="21.8" class="st0" width="3.1" height="3.2"/>
			<rect x="40.7" y="21.8" class="st0" width="3.1" height="3.2"/>
			<rect x="46.9" y="21.8" class="st0" width="3.1" height="3.2"/>
			<rect x="53.2" y="21.8" class="st0" width="3.1" height="3.2"/>
			<rect x="59.4" y="21.8" class="st0" width="3.1" height="3.2"/>
			<rect x="65.7" y="21.8" class="st0" width="3.1" height="3.2"/>
			<rect x="71.9" y="21.8" class="st0" width="3.1" height="3.2"/>
			<rect x="78.2" y="21.8" class="st0" width="3.1" height="3.2"/>
			<rect x="84.4" y="21.8" class="st0" width="3.1" height="3.2"/>
		</g>
		<g>
			<rect x="6.3" y="28.1" class="st0" width="3.1" height="3.2"/>
			<rect x="12.5" y="28.1" class="st0" width="3.1" height="3.2"/>
			<rect x="18.8" y="28.1" class="st0" width="3.1" height="3.2"/>
			<rect x="25" y="28.1" class="st0" width="3.1" height="3.2"/>
			<rect x="31.3" y="28.1" class="st0" width="3.1" height="3.2"/>
			<rect x="37.5" y="28.1" class="st0" width="3.1" height="3.2"/>
			<rect x="43.8" y="28.1" class="st0" width="3.1" height="3.2"/>
			<rect x="50" y="28.1" class="st0" width="3.1" height="3.2"/>
			<rect x="56.3" y="28.1" class="st0" width="3.1" height="3.2"/>
			<rect x="62.5" y="28.1" class="st0" width="3.1" height="3.2"/>
			<rect x="68.8" y="28.1" class="st0" width="3.1" height="3.2"/>
			<rect x="75" y="28.1" class="st0" width="3.1" height="3.2"/>
			<rect x="81.3" y="28.1" class="st0" width="3.1" height="3.2"/>
			<rect x="87.5" y="28.1" class="st0" width="3.1" height="3.2"/>
		</g>
		<g>
			<rect x="9.4" y="34.3" class="st0" width="3.1" height="3.2"/>
			<rect x="15.7" y="34.3" class="st0" width="3.1" height="3.2"/>
			<rect x="21.9" y="34.3" class="st0" width="3.1" height="3.2"/>
			<rect x="28.2" y="34.3" class="st0" width="3.1" height="3.2"/>
			<rect x="34.4" y="34.3" class="st0" width="3.1" height="3.2"/>
			<rect x="40.7" y="34.3" class="st0" width="3.1" height="3.2"/>
			<rect x="46.9" y="34.3" class="st0" width="3.1" height="3.2"/>
			<rect x="53.2" y="34.3" class="st0" width="3.1" height="3.2"/>
			<rect x="59.4" y="34.3" class="st0" width="3.1" height="3.2"/>
			<rect x="65.7" y="34.3" class="st0" width="3.1" height="3.2"/>
			<rect x="71.9" y="34.3" class="st0" width="3.1" height="3.2"/>
			<rect x="78.2" y="34.3" class="st0" width="3.1" height="3.2"/>
			<rect x="84.4" y="34.3" class="st0" width="3.1" height="3.2"/>
		</g>
		<g>
			<rect x="6.3" y="40.6" class="st0" width="3.1" height="3.2"/>
			<rect x="12.5" y="40.6" class="st0" width="3.1" height="3.2"/>
			<rect x="37.5" y="40.6" class="st0" width="3.1" height="3.2"/>
			<rect x="43.8" y="40.6" class="st0" width="3.1" height="3.2"/>
			<rect x="50" y="40.6" class="st0" width="3.1" height="3.2"/>
			<rect x="56.3" y="40.6" class="st0" width="3.1" height="3.2"/>
			<rect x="81.3" y="40.6" class="st0" width="3.1" height="3.2"/>
			<rect x="75" y="40.6" class="st0" width="3.1" height="3.2"/>
			<rect x="87.5" y="40.6" class="st0" width="3.1" height="3.2"/>
		</g>
		<rect x="40.7" y="46.8" class="st0" width="15.6" height="3.2"/>
	</g>
</g>
</svg>