<!-- Generator: Adobe Illustrator 25.0.1, SVG Export Plug-In  -->
<svg version="1.1" xmlns="http://www.w3.org/2000/svg" xmlns:xlink="http://www.w3.org/1999/xlink" x="0px" y="0px" width="69px" height="69px" viewBox="0 0 69 69" style="overflow:visible;enable-background:new 0 0 69 69;" xml:space="preserve">
<style type="text/css">
	.st0{fill:#234075;}
</style>
<defs>
</defs>
<path class="st0" d="M23.3,37.4c-0.1-0.2-0.3-0.2-0.5-0.1c-0.1,0-0.1,0.1-0.1,0.1L4.7,68.4c-0.1,0.2,0,0.4,0.1,0.5  C4.9,69,5,69,5.1,69h35.9c0.2,0,0.4-0.2,0.4-0.4c0-0.1,0-0.1-0.1-0.2L23.3,37.4z M11,65.2l12-20.7l12,20.7H11z M0.8,30.7h29.1  c0.4,0,0.8-0.3,0.8-0.8c0,0,0,0,0,0V0.8c0-0.4-0.3-0.8-0.8-0.8c0,0,0,0,0,0H0.8C0.3,0,0,0.3,0,0.8v29.1C0,30.3,0.3,30.7,0.8,30.7z   M3.8,3.8h23v23h-23L3.8,3.8z M52.9,21.5c-8.9,0-16.1,7.2-16.1,16.1S44,53.7,52.9,53.7S69,46.5,69,37.6S61.8,21.5,52.9,21.5z   M52.9,49.8c-6.8,0-12.3-5.5-12.3-12.3s5.5-12.3,12.3-12.3s12.3,5.5,12.3,12.3C65.2,44.3,59.7,49.8,52.9,49.8z"/>
</svg>