<!-- Generator: Adobe Illustrator 25.1.0, SVG Export Plug-In  -->
<svg version="1.1" xmlns="http://www.w3.org/2000/svg" xmlns:xlink="http://www.w3.org/1999/xlink" x="0px" y="0px" width="101px" height="95.9px" viewBox="0 0 101 95.9" style="overflow:visible;enable-background:new 0 0 101 95.9;" xml:space="preserve">
<style type="text/css">
	.st0{fill:#880364;}
</style>
<defs>
</defs>
<path class="st0" d="M44.8,95.9c-1.1,0-2-0.9-2-2s0.9-2,2-2h11.4c1.1,0,2,0.9,2,2s-0.9,2-2,2H44.8z M42.7,90.8c-1.1,0-2-0.9-2-2  c0-1.1,0.9-2,2-2h15.6c1.1,0,2,0.9,2,2c0,1.1-0.9,2-2,2H42.7z M40.6,85.7c-1.1,0-2-0.9-2-2c0-1.1,0.9-2,2-2h19.8c1.1,0,2,0.9,2,2  c0,1.1-0.9,2-2,2H40.6z M44.4,80.7c-4.2,0-7.8-3.7-7.9-8.1c-0.4-2.9-1.1-5.8-2.1-8.5c-0.5-1.5-1.5-3.2-2.6-5.2  c-2.2-3.9-5-8.7-5-14.1c0-6.2,2.5-12.2,7-16.6c4.4-4.4,10.4-6.9,16.6-6.9c6.3,0,12.2,2.4,16.6,6.9c4.4,4.3,7,10.4,7,16.6  c0,5.3-2.6,10-5,14.1c-1,1.8-2.1,3.7-2.6,5.2c-0.9,2.8-1.6,5.7-2.1,8.6c-0.1,4.3-3.7,8-7.9,8H44.4z M50.5,25.3  c-5.2,0-10.1,2-13.8,5.7c-3.7,3.6-5.8,8.7-5.8,13.8c0,4.2,2.3,8.4,4.4,12l0.1,0.1c1.2,2.1,2.3,4,2.9,5.9c1,3.1,1.8,6.3,2.3,9.4  c0,0.1,0,0.2,0,0.3c0,2.2,1.9,4.3,3.9,4.3h12.2c2,0,3.9-2,3.9-4.2c0-0.1,0-0.1,0-0.2v0l0-0.1c0.5-3.2,1.2-6.3,2.2-9.4  c0.6-1.8,1.7-3.7,2.8-5.7l0.1-0.1c2.1-3.7,4.5-7.9,4.5-12.2c0-5.1-2.1-10.2-5.8-13.8C60.6,27.3,55.7,25.3,50.5,25.3l0-0.5L50.5,25.3  z M83.6,56.8c-1.1,0-2-0.9-2-2s0.9-2,2-2H99c1.1,0,2,0.9,2,2s-0.9,2-2,2H83.6z M2,56.8c-1.1,0-2-0.9-2-2s0.9-2,2-2h15.4  c1.1,0,2,0.9,2,2s-0.9,2-2,2H2z M18.5,38c-0.3,0-0.7-0.1-1-0.3L7,31.6l0,0c-0.9-0.5-1.2-1.7-0.6-2.7c0.4-0.6,1-1,1.7-1  c0.4,0,0.7,0.1,1,0.3l10.4,6c1,0.6,1.3,1.8,0.7,2.7C19.9,37.6,19.2,38,18.5,38z M83,38c-0.7,0-1.3-0.4-1.7-1c-0.5-1-0.2-2.2,0.7-2.7  l10.4-6.1c0.3-0.2,0.6-0.3,0.9-0.3c0,0,0,0,0,0c0.8,0,1.4,0.4,1.8,1c0.5,0.9,0.2,2.1-0.7,2.7L84,37.7C83.7,37.9,83.4,38,83,38z   M69.5,24.3c-0.3,0-0.7-0.1-1-0.3c-0.9-0.6-1.2-1.8-0.7-2.7l6-10.5c0.4-0.6,1-1,1.7-1c0.4,0,0.7,0.1,1,0.3c0.5,0.3,0.8,0.7,0.9,1.2  c0.1,0.5,0.1,1-0.2,1.5l-6,10.4l-0.1,0.1C70.9,23.9,70.2,24.3,69.5,24.3z M31.8,24.3c-0.7,0-1.4-0.4-1.7-1L24.2,13H24l0-0.4  c-0.2-0.4-0.3-0.9-0.1-1.4c0.1-0.5,0.5-0.9,0.9-1.2c0.3-0.2,0.6-0.2,0.9-0.3c0.7,0,1.4,0.4,1.8,1l6,10.5c0.2,0.3,0.3,0.6,0.3,1  C33.8,23.4,32.9,24.3,31.8,24.3z M50.5,19.4c-1.1,0-2-0.9-2-2V2c0-1.1,0.9-2,2-2c1.1,0,2,0.9,2,2v15.5  C52.5,18.5,51.6,19.4,50.5,19.4z"/>
</svg>