<!-- Generator: Adobe Illustrator 25.0.1, SVG Export Plug-In  -->
<svg version="1.1" xmlns="http://www.w3.org/2000/svg" xmlns:xlink="http://www.w3.org/1999/xlink" x="0px" y="0px" width="71.3px"
	 height="80.7px" viewBox="0 0 71.3 80.7" style="overflow:visible;enable-background:new 0 0 71.3 80.7;" xml:space="preserve">
<style type="text/css">
	.st0{fill:#510B76;}
</style>
<defs>
</defs>
<g>
	<path class="st0" d="M0.1,50.4c0.2,0.4,0.7,0.7,1.2,0.7h8.1v9.4c0,5.2,4.2,9.4,9.4,9.4h5.4v9.4c0,0.7,0.6,1.3,1.3,1.3h35
		c0.7,0,1.3-0.6,1.3-1.3v-1.7c0.1-10,2-20,5.8-29.3c2.3-5.5,3.5-11.5,3.6-17.5C71.3,13.9,57.5,0,40.4,0S9.4,13.9,9.4,30.9
		c0,0.4,0,0.7,0,1.1c0,0.1,0,0.2,0,0.2v3.6L0.2,49C0,49.4-0.1,50,0.1,50.4z M11.9,37.1c0.2-0.2,0.2-0.5,0.2-0.8v-3.7
		c0-0.1,0-0.2,0-0.3c0-0.4,0-0.9,0-1.3c0-15.6,12.6-28.3,28.3-28.3s28.3,12.6,28.3,28.3c-0.1,5.6-1.3,11.2-3.4,16.4
		c-3.9,9.6-5.9,19.9-6,30.3V78H26.9v-9.4c0-0.7-0.6-1.3-1.3-1.3h-6.7c-3.7,0-6.7-3-6.7-6.7V49.8c0-0.7-0.6-1.3-1.3-1.3H3.9
		L11.9,37.1z"/>
	<path class="st0" d="M30.1,43.4c1.5,1.3,2.3,3.1,2.2,5.1v6.7c0,2.2,1.8,4,4,4h8.1c2.2,0,4-1.8,4-4v-7.1c0-1.9,0.9-3.7,2.4-4.8
		c6.8-5.8,7.6-16,1.9-22.8s-16-7.6-22.8-1.9s-7.6,16-1.9,22.8C28.7,42.1,29.3,42.8,30.1,43.4z M44.4,56.5h-8.1
		c-0.7,0-1.3-0.6-1.3-1.3v-4h10.8v4C45.7,55.9,45.1,56.5,44.4,56.5z M38.8,34.2l-1.3-2h5.7l-1.3,2c-0.1,0.2-0.2,0.5-0.1,0.7v13.5H39
		V35C39,34.7,38.9,34.5,38.8,34.2z M27.1,28.8c1-5.9,5.8-10.5,11.7-11.2c0.5-0.1,1.1-0.1,1.6-0.1c3.3,0,6.5,1.2,8.9,3.4
		c5.5,5,6,13.5,1.1,19c-0.4,0.5-0.8,0.9-1.3,1.3c-2.1,1.7-3.3,4.2-3.3,6.9v0.3h-1.3V35.4l2.5-3.7c0.3-0.4,0.3-0.9,0.1-1.3
		c-0.2-0.4-0.7-0.7-1.2-0.7H35c-0.5,0-1,0.3-1.2,0.7c-0.2,0.4-0.2,0.9,0.1,1.3l2.5,3.7v13.1H35l0,0c0-2.7-1.1-5.3-3.2-7.1
		C28.1,38.3,26.3,33.5,27.1,28.8z"/>
	<rect x="39" y="6.7" class="st0" width="2.7" height="5.4"/>
	<rect x="16.1" y="29.6" class="st0" width="5.4" height="2.7"/>
	<rect x="59.2" y="28.3" class="st0" width="5.4" height="2.7"/>
	<rect x="23.5" y="12.6" transform="matrix(0.7071 -0.7071 0.7071 0.7071 -3.6499 22.1345)" class="st0" width="2.7" height="5.7"/>
	<rect x="53" y="14.1" transform="matrix(0.7071 -0.7071 0.7071 0.7071 5.4145 44.0086)" class="st0" width="5.7" height="2.7"/>
	
		<rect x="20.7" y="43.7" transform="matrix(0.7071 -0.7071 0.7071 0.7071 -24.9779 29.8533)" class="st0" width="5.7" height="2.7"/>
	
		<rect x="55.8" y="42.2" transform="matrix(0.7071 -0.7071 0.7071 0.7071 -15.1196 53.6326)" class="st0" width="2.7" height="5.7"/>
</g>
</svg>
