<!-- Generator: Adobe Illustrator 25.0.1, SVG Export Plug-In  -->
<svg version="1.1" xmlns="http://www.w3.org/2000/svg" xmlns:xlink="http://www.w3.org/1999/xlink" x="0px" y="0px" width="99.7px"
	 height="99.7px" viewBox="0 0 99.7 99.7" style="overflow:visible;enable-background:new 0 0 99.7 99.7;" xml:space="preserve">
<style type="text/css">
	.st0{fill:#2671CA;}
</style>
<defs>
</defs>
<g>
	<g>
		<path class="st0" d="M37.2,68.1c-0.7,0-1.3-0.6-1.3-1.3v-8.4c0-5.2,2.9-10,7.5-12.4l1-0.5l-0.9-0.8c-2.2-1.9-3.4-4.6-3.4-7.4
			c0-5.4,4.4-9.8,9.8-9.8s9.8,4.4,9.8,9.8c0,2.9-1.2,5.6-3.4,7.4l-0.9,0.8l1,0.5c4.6,2.4,7.5,7.2,7.5,12.4v8.4
			c0,0.7-0.6,1.3-1.3,1.3H37.2z M49.9,47c-6.3,0-11.4,5.1-11.4,11.4v7.1h22.7v-7.1C61.2,52.1,56.1,47,49.9,47z M49.9,30.1
			c-3.9,0-7.1,3.2-7.1,7.1s3.2,7.1,7.1,7.1c3.9,0,7.1-3.2,7.1-7.1S53.8,30.1,49.9,30.1z"/>
		<path class="st0" d="M49.9,99.7c-0.2,0-0.4-0.1-0.6-0.2l-0.1-0.1c-0.1-0.1-0.6-0.6-1.8-1.8l-2.6-2.6c-0.2-0.2-0.4-0.6-0.4-0.9
			c0-0.4,0.1-0.7,0.4-0.9c0.2-0.2,0.6-0.4,0.9-0.4c0.4,0,0.7,0.1,0.9,0.4l2,2V82.8l-0.8,0c-7.4-0.5-14.2-3.3-19.7-8.2l-0.6-0.5
			l-8.8,8.8h2.8c0.7,0,1.3,0.6,1.3,1.3c0,0.7-0.6,1.3-1.3,1.3l-5.1,0c-1,0-1.1,0-1.1,0l-0.2,0L15,85.4l-0.1-0.1l-0.1-0.1l-0.1-0.1
			l-0.1-0.1L14.5,85l-0.1-0.1l-0.1-0.1l0-0.1l0-0.1l0-0.1l0-0.1c0,0,0-0.1,0-0.2v-6c0-0.7,0.6-1.3,1.3-1.3c0.7,0,1.3,0.6,1.3,1.3V81
			l8.8-8.8l-0.5-0.6c-4.9-5.6-7.7-12.4-8.2-19.7l0-0.8H4.5l2,2c0.2,0.2,0.4,0.6,0.4,0.9S6.7,54.8,6.5,55c-0.2,0.2-0.6,0.4-0.9,0.4
			c-0.3,0-0.7-0.1-0.9-0.4L2,52.5c-1.5-1.5-1.7-1.7-1.8-1.8c-0.3-0.5-0.3-1-0.1-1.4C0.3,49,0.4,49,2.3,47l2.3-2.3
			c0.2-0.2,0.6-0.4,0.9-0.4c0.4,0,0.7,0.1,0.9,0.4c0.2,0.2,0.4,0.6,0.4,0.9s-0.1,0.7-0.4,0.9l-2,2h12.4l0-0.8
			c0.5-7.4,3.3-14.2,8.2-19.7l0.5-0.6l-8.8-8.8v2.8c0,0.7-0.6,1.3-1.3,1.3c-0.7,0-1.3-0.6-1.3-1.3l0-4c0-1.9,0-2.1,0-2.2l0-0.2
			l0-0.1l0.1-0.1l0.1-0.1l0.1-0.1c0,0,0-0.1,0.1-0.1c0.1-0.1,0.1-0.1,0.1-0.1l0.1-0.1l0.1-0.1l0.1,0l0.1,0l0.1,0c0.1,0,0.1,0,1.3,0
			l5,0c0.7,0,1.3,0.6,1.3,1.3s-0.6,1.3-1.3,1.3h-2.8l8.8,8.8l0.6-0.5c5.5-4.8,12.5-7.7,19.7-8.2l0.8,0V4.5l-2,2
			c-0.2,0.2-0.6,0.4-0.9,0.4c-0.4,0-0.7-0.1-0.9-0.4c-0.2-0.2-0.4-0.6-0.4-0.9s0.1-0.7,0.4-0.9l2.8-2.8c1.3-1.3,1.5-1.5,1.5-1.5
			C49.4,0.1,49.6,0,49.9,0c0,0,0.1,0,0.1,0l0.1,0l0.1,0l0.1,0.1l0.1,0.1c0.2,0.1,0.3,0.2,2.1,2L55,4.6c0.2,0.2,0.4,0.6,0.4,0.9
			c0,0.4-0.1,0.7-0.4,0.9s-0.6,0.4-0.9,0.4c-0.4,0-0.7-0.1-0.9-0.4l-2-2v12.4l0.8,0c7.4,0.5,14.2,3.3,19.7,8.2l0.6,0.5l8.8-8.8h-2.8
			c-0.7,0-1.3-0.6-1.3-1.3s0.6-1.3,1.3-1.3h6c0.1,0,0.1,0,0.2,0l0.1,0l0.1,0l0.1,0l0.1,0.1l0.1,0.1c0.1,0.1,0.1,0.1,0.2,0.2l0.1,0.1
			l0,0c0,0,0.1,0.1,0.1,0.1l0.1,0.1l0.1,0.1l0,0.1l0,0.1l0,0.1c0,0,0,0.1,0,0.2v6c0,0.7-0.6,1.3-1.3,1.3s-1.3-0.6-1.3-1.3v-2.8
			l-8.8,8.8l0.5,0.6c4.9,5.6,7.7,12.4,8.2,19.7l0,0.8h12.4l-2-2c-0.5-0.5-0.5-1.3,0-1.9c0.2-0.2,0.6-0.4,0.9-0.4s0.7,0.1,0.9,0.4
			l2.9,2.9c1,1,1.4,1.4,1.4,1.4l0.1,0.1l0.1,0.1l0.1,0.1l0,0.1c0,0.2,0.1,0.3,0,0.5l0,0.1l0,0.1l0,0.1l-0.1,0.1l-0.1,0.1
			c-0.1,0.1-0.1,0.1-0.1,0.2c-0.1,0.1-1.7,1.7-3.2,3.2L95.1,55c-0.2,0.2-0.6,0.4-0.9,0.4l0,0c-0.4,0-0.7-0.1-0.9-0.4
			c-0.5-0.5-0.5-1.3,0-1.9l2-2H82.8l0,0.8c-0.5,7.4-3.3,14.2-8.2,19.7l-0.5,0.6l8.8,8.8v-2.8c0-0.7,0.6-1.3,1.3-1.3s1.3,0.6,1.3,1.3
			l0,4.1c0,1.9,0,2,0,2.1l0,0.2l0,0.1l-0.1,0.1l-0.1,0.1l-0.1,0.1l-0.1,0.1L85,85.2l-0.1,0.1l-0.1,0.1l-0.1,0l-0.1,0l-0.1,0
			c-0.1,0-0.1,0-1.2,0l-5,0c-0.7,0-1.3-0.6-1.3-1.3c0-0.7,0.6-1.3,1.3-1.3H81l-8.8-8.8l-0.6,0.5c-5.6,4.9-12.4,7.7-19.7,8.2l-0.8,0
			v12.4l2-2c0.2-0.2,0.6-0.4,0.9-0.4c0.4,0,0.7,0.1,0.9,0.4c0.2,0.2,0.4,0.6,0.4,0.9s-0.1,0.7-0.4,0.9l-2.6,2.6
			c-1.6,1.6-1.7,1.7-1.8,1.8C50.4,99.7,50.1,99.7,49.9,99.7z M49.9,19.5c-16.7,0-30.4,13.6-30.4,30.4c0,16.7,13.6,30.4,30.4,30.4
			c16.7,0,30.4-13.6,30.4-30.4C80.2,33.1,66.6,19.5,49.9,19.5z"/>
	</g>
</g>
</svg>