<?xml version="1.0" encoding="utf-8"?>
<svg version="1.1" xmlns:xlink="http://www.w3.org/1999/xlink" width="25px" height="25px" xmlns="http://www.w3.org/2000/svg">
  <g transform="matrix(1 0 0 1 -191 -208 )">
    <path d="M 4.72706809229038 21.3544587773416  C 5.00844119302195 21.7003178164143  5.14912774338773 22.1116096466629  5.14912774338773 22.5883342680875  C 5.14912774338773 23.3361375958123  4.89354717688989 23.9250327163956  4.3823860438942 24.3550196298374  C 3.87122491089852 24.7850065432791  3.23579065841306 25  2.47608328643782 25  C 1.4818983305196 25  0.675295441755768 24.6915311273135  0.0562746201463141 24.0745933819406  L 0.858187957231289 22.8407178911946  C 1.31776402175952 23.2613572630398  1.81485649971863 23.4716769489624  2.34946539110861 23.4716769489624  C 2.62145938848246 23.4716769489624  2.85828174826487 23.4039072723874  3.05993247045582 23.2683679192372  C 3.26158319264678 23.1328285660871  3.36240855374226 22.9341933071602  3.36240855374226 22.6724621424565  C 3.36240855374226 22.0742194802767  2.87000562746201 21.812488315573  1.88519977490152 21.8872686483455  L 1.51941474395048 21.1020751542344  C 1.59444757081223 21.0085997382688  1.74685800037516 20.8052907085437  1.97664603263928 20.4921480650589  C 2.2064340649034 20.1790054215741  2.40574001125492 19.926621798467  2.57456387169387 19.7349971957375  C 2.74338773213281 19.543372593008  2.91690114425061 19.3634324172743  3.09510410804727 19.1951766685362  L 3.09510410804727 19.1811553561413  C 2.94503845432377 19.1811553561413  2.71759519789908 19.1858291269396  2.41277433877321 19.1951766685362  C 2.10795347964735 19.2045242101327  1.88051022322266 19.209197980931  1.73044456949916 19.209197980931  L 1.73044456949916 19.9523275378575  L 0.239167135621835 19.9523275378575  L 0.239167135621835 17.8210880538418  L 4.92402926280248 17.8210880538418  L 4.92402926280248 19.0549635445878  L 3.58750703432752 20.6674144699944  C 4.06584130557119 20.7795849691531  4.44569499155881 21.0085997382688  4.72706809229038 21.3544587773416  Z M 3.70005627462015 13.7969713965227  L 5.17726505346089 13.7969713965227  L 5.17726505346089 16.0263600673023  L 0.0844119302194711 16.0263600673023  C 0.0281373100731571 15.6898485698261  0 15.437464946719  0 15.2692091979809  C 0 14.7924845765564  0.110204464453198 14.3578238923163  0.330613393359595 13.9652271452608  C 0.551022322265992 13.5726303982053  0.815981992121553 13.2548139839222  1.12549240292628 13.0117779024117  C 1.43500281373101 12.7687418209011  1.74451322453573 12.5467377079828  2.05402363534046 12.3457655636568  C 2.36353404614519 12.1447934193307  2.62849371600075 11.9414843896055  2.84890264490715 11.7358384744812  C 3.06931157381354 11.5301925593569  3.17951603826674 11.3198728734343  3.17951603826674 11.1048794167134  C 3.17951603826674 10.8711908767994  3.11151753892328 10.6912507010656  2.97552054023635 10.5650588895121  C 2.83952354154943 10.4388670779585  2.65428625023448 10.3757711721817  2.4198086662915 10.3757711721817  C 1.98836991183643 10.3757711721817  1.60851622584881 10.646849878482  1.28024760832864 11.1890072910824  L 0.0844119302194711 10.3617498597869  C 0.309510410804727 9.88502523836231  0.644813355843182 9.51346045989905  1.09032076533483 9.24705552439708  C 1.53582817482649 8.98065058889512  2.03057587694616 8.84744812114414  2.57456387169387 8.84744812114414  C 3.25923841680735 8.84744812114414  3.83605327330707 9.04140960927276  4.30500844119302 9.42933258553001  C 4.77396360907897 9.81725556178725  5.00844119302195 10.3430547765938  5.00844119302195 11.0067302299495  C 5.00844119302195 11.4741073097775  4.84899643594072 11.9017573378202  4.53010692177828 12.2896803140774  C 4.21121740761583 12.6776032903346  3.85950103170137 12.9790615068237  3.47495779403489 13.1940549635446  C 3.09041455636841 13.4090484202655  2.73635340461452 13.6450738455786  2.41277433877321 13.902131239484  C 2.08919527293191 14.1591886333894  1.9227161883324 14.4045616002991  1.91333708497468 14.6382501402131  L 3.70005627462015 14.6382501402131  L 3.70005627462015 13.7969713965227  Z M 24.8663477771525 17.9542905215928  C 24.9554492590508 18.0430921667601  25 18.1482520097214  25 18.2697700504767  L 25 20.961862030286  C 25 21.0833800710413  24.9554492590508 21.1885399140026  24.8663477771525 21.2773415591699  C 24.7772462952542 21.3661432043373  24.6717313824798 21.4105440269209  24.5498030388295 21  L 7.44231851435003 21  C 7.32039017069968 21.4105440269209  7.21487525792534 21.3661432043373  7.12577377602701 21.2773415591699  C 7.03667229412868 21.1885399140026  6.99212155317952 21.0833800710413  6.99212155317952 20.961862030286  L 6.99212155317952 18.2697700504767  C 6.99212155317952 18.1389044681249  7.03432751828925 18.0314077397644  7.11873944850872 17.9472798653954  C 7.20315137872819 17.8631519910264  7.31101106734196 17.8210880538418  7.44231851435003 17.8210880538418  L 24.5498030388295 17.8210880538418  C 24.6717313824798 17.8210880538418  24.7772462952542 17.8654888764255  24.8663477771525 17.9542905215928  Z M 3.67191896454699 5.66461020751543  L 5.19133370849747 5.66461020751543  L 5.19133370849747 7.0527201346046  L 0.478334271243669 7.0527201346046  L 0.478334271243669 5.66461020751543  L 1.98368036015757 5.66461020751543  C 1.98368036015757 5.28136100205646  1.986025135997 4.71349785006543  1.99071468767586 3.96102075154234  C 1.99540423935472 3.20854365301926  1.99774901519415 2.64068050102823  1.99774901519415 2.25743129556927  L 1.99774901519415 2.08917554683118  L 1.96961170512099 2.08917554683118  C 1.89457887825924 2.2480837539727  1.66010129431626 2.50046737707983  1.26617895329207 2.84632641615255  L 0.267304445694992 1.7807066741447  L 2.18064153066967 0  L 3.67191896454699 0  L 3.67191896454699 5.66461020751543  Z M 24.8663477771525 10.7753785754347  C 24.9554492590508 10.864180220602  25 10.9693400635633  25 11.0908581043186  L 25 13.7829500841279  C 25 13.9044681248832  24.9554492590508 14.0096279678445  24.8663477771525 14.0984296130118  C 24.7772462952542 14.1872312581791  24.6717313824798 14.2316320807628  24.5498030388295 14  L 7.44231851435003 14  C 7.32039017069968 14.2316320807628  7.21487525792534 14.1872312581791  7.12577377602701 14.0984296130118  C 7.03667229412868 14.0096279678445  6.99212155317952 13.9044681248832  6.99212155317952 13.7829500841279  L 6.99212155317952 11.0908581043186  C 6.99212155317952 10.9599925219667  7.03432751828925 10.8524957936063  7.11873944850872 10.7683679192372  C 7.20315137872819 10.6842400448682  7.31101106734196 10.6421761076837  7.44231851435003 11  L 24.5498030388295 11  C 24.6717313824798 10.6421761076837  24.7772462952542 10.6865769302673  24.8663477771525 10.7753785754347  Z M 24.8663477771525 3.5964666292765  C 24.9554492590508 3.68526827444382  25 3.79042811740512  25 3.9119461581604  L 25 6.60403813796971  C 25 6.72555617872499  24.9554492590508 6.8307160216863  24.8663477771525 6.91951766685362  C 24.7772462952542 7.00831931202094  24.6717313824798 7.0527201346046  24.5498030388295 7  L 7.44231851435003 7  C 7.32039017069968 7.0527201346046  7.21487525792534 7.00831931202094  7.12577377602701 6.91951766685362  C 7.03667229412868 6.8307160216863  6.99212155317952 6.72555617872499  6.99212155317952 6.60403813796971  L 6.99212155317952 3.9119461581604  C 6.99212155317952 3.79042811740512  7.03667229412868 3.68526827444382  7.12577377602701 3.5964666292765  C 7.21487525792534 3.50766498410918  7.32039017069968 3.46326416152552  7.44231851435003 3.46326416152552  L 24.5498030388295 3.46326416152552  C 24.6717313824798 3.46326416152552  24.7772462952542 3.50766498410918  24.8663477771525 3.5964666292765  Z " fill-rule="nonzero" fill="#595959" stroke="none" transform="matrix(1 0 0 1 191 208 )" />
  </g>
</svg>