<!-- Generator: Adobe Illustrator 25.1.0, SVG Export Plug-In  -->
<svg version="1.1" xmlns="http://www.w3.org/2000/svg" xmlns:xlink="http://www.w3.org/1999/xlink" x="0px" y="0px" width="51.1px" height="59.8px" viewBox="0 0 51.1 59.8" style="overflow:visible;enable-background:new 0 0 51.1 59.8;" xml:space="preserve">
<style type="text/css">
	.st0{fill:#510B76;}
</style>
<defs>
</defs>
<g>
	<g>
		<path class="st0" d="M44.6,34.7l-3.1,1.6c-8,4.1-21.5,10.9-28.4,13.4c-1,0.4-3.4,1-4.2-0.8c-0.7-1.6-0.1-3.6,1.5-4.4l0.6-0.3    c12.6-6.7,24.1-13.7,22.5-19.2L42,13.7l8.7,1.7l0.4-2l-7.7-1.5l3.3-4.3c0.4-0.6,0.6-1.3,0.5-2c-0.1-0.7-0.5-1.4-1.1-1.8l-4.2-3.2    C40.7-0.4,39-0.1,38,1.1L31,10.4h-9.7c-2.4,0-4.5,1.5-6.3,4.4c-4.2,6.9-9.7,16.5-11.6,20.6c-1.4,3-0.8,5.5,1.4,6.6    c0.6,0.3,1.2,0.5,1.8,0.5l-4.4,5.9c-0.3,0.3-0.4,0.7-0.5,1.2L0,58.2c-0.1,0.5,0.1,1,0.5,1.3c0.2,0.2,0.5,0.3,0.8,0.3    c0.2,0,0.4,0,0.6-0.1l7.8-3.9c0.4-0.2,0.7-0.5,1-0.8l2.5-3.3c0.2-0.1,0.4-0.1,0.6-0.2c1.4-0.5,3-1.1,4.7-1.9    c0.5,1.8,2.3,3.2,4.2,3.2c0.1,0,0.2,0,0.4,0c3-0.3,5.2-2.7,5.3-5.7c0.6,0.4,1.2,0.6,1.9,0.6c0.1,0,0.2,0,0.3,0    c1.2-0.1,2.3-0.7,3-1.6c0.6-0.7,1-1.7,1-2.6c0.3,0.1,0.6,0.2,0.9,0.2c0.1,0,0.2,0,0.2,0c0.9-0.1,1.6-0.5,2.2-1.1    c0.6-0.7,0.8-1.5,0.8-2.4l0-0.2c1.3-0.6,2.5-1.3,3.6-1.8l3-1.5c2.3-1,5.3-1.1,5.4-1.1l0-2C50.7,33.4,47.3,33.5,44.6,34.7z     M9.5,42.7c-0.4,0.2-0.7,0.5-1.1,0.8L34.8,8.7l0.8,0.6L10.4,42.2c-0.1,0.1-0.2,0.1-0.3,0.2L9.5,42.7z M4.1,49.2L7.2,45    c-0.3,0.7-0.5,1.4-0.6,2.2l-1.9,2.5L4.1,49.2z M23.7,34.4c-0.6,0.4-1.3,0.9-1.9,1.3l17.7-23.5l0.7,0.6L23.7,34.4z M17.2,38.5    c-0.8,0.5-1.7,1-2.5,1.4l22.4-29.4l0.7,0.5L17.2,38.5L17.2,38.5z M39.6,2.3c0.3-0.3,0.7-0.4,1.1-0.1l4.2,3.2    c0.2,0.1,0.3,0.3,0.3,0.5c0,0.2,0,0.4-0.1,0.6l-3.6,4.8L36,7.1L39.6,2.3z M5.2,36.3c1.8-4,7.4-13.7,11.5-20.4    c1.4-2.3,2.9-3.5,4.6-3.5h8.2l-4.7,6.2c-0.9,0-3.2,0.3-4.7,2.5c-1.5,2.4-6.7,10.8-9.2,15.3c-2.7,4.7-3.9,4.6-5.3,3.9    C4,39.5,4.8,37.3,5.2,36.3z M21.8,22.2c0.3-0.5,0.7-0.8,1-1l-2.3,3C21.1,23.4,21.5,22.7,21.8,22.2z M3.4,51.2l4.4,3.4l-5.6,2.8    L3.4,51.2z M9.5,53.3l-3.1-2.4l0.8-1.1c0.6,1.3,1.8,2,3.3,2.2L9.5,53.3z M23,50.7c-1.2,0.1-2.3-0.8-2.6-2c1.8-0.8,3.8-1.7,5.8-2.7    l0.1,0.7C26.6,48.8,25.1,50.6,23,50.7z M32.2,44.8c-0.4,0.5-1,0.8-1.7,0.9c-0.4,0-0.8-0.1-1.1-0.3c-0.2-0.2-0.3-0.4-0.4-0.6    c1.2-0.6,2.5-1.2,3.7-1.8l0,0.1C32.8,43.7,32.6,44.3,32.2,44.8z M36.6,41.2c-0.2,0.3-0.5,0.4-0.8,0.4c-0.1,0-0.2,0-0.3,0    c0.4-0.2,0.8-0.4,1.3-0.6C36.7,41,36.6,41.1,36.6,41.2z"/>
	</g>
</g>
</svg>