<!-- Generator: Adobe Illustrator 25.0.1, SVG Export Plug-In  -->
<svg version="1.1" xmlns="http://www.w3.org/2000/svg" xmlns:xlink="http://www.w3.org/1999/xlink" x="0px" y="0px" width="45.8px"
	 height="30.9px" viewBox="0 0 45.8 30.9" style="overflow:visible;enable-background:new 0 0 45.8 30.9;" xml:space="preserve">
<style type="text/css">
	.st0{fill:#9B9B9B;}
</style>
<defs>
</defs>
<g transform="translate(0,-952.36218)">
	<path class="st0" d="M4.3,952.4c-2.3,0-4.3,2-4.3,4.4v22.1c0,2.4,1.9,4.4,4.3,4.4h37.2c2.3,0,4.3-2,4.3-4.4v-22.1
		c0-2.4-1.9-4.4-4.3-4.4H4.3L4.3,952.4z M4.3,954.5h37.2c0.3,0,0.6,0.1,0.9,0.2l-18,16.3c-0.9,0.7-2,0.7-2.8,0L3.4,954.7
		C3.7,954.5,3.9,954.5,4.3,954.5z M2.2,956.4L15,968L2.4,980c-0.2-0.3-0.3-0.7-0.3-1.1v-22.1C2.1,956.6,2.1,956.5,2.2,956.4
		L2.2,956.4z M43.6,956.4c0,0.1,0.1,0.2,0.1,0.3v22.1c0,0.4-0.1,0.7-0.3,1.1l-12.6-12L43.6,956.4L43.6,956.4z M29.2,969.4l12.3,11.7
		H4.3l12.3-11.7l3.5,3.1c1.6,1.4,4.1,1.4,5.7,0L29.2,969.4z"/>
</g>
</svg>
