<!-- Generator: Adobe Illustrator 25.1.0, SVG Export Plug-In  -->
<svg version="1.1" xmlns="http://www.w3.org/2000/svg" xmlns:xlink="http://www.w3.org/1999/xlink" x="0px" y="0px" width="78px" height="95.1px" viewBox="0 0 78 95.1" style="overflow:visible;enable-background:new 0 0 78 95.1;" xml:space="preserve">
<style type="text/css">
	.st0{fill:#002857;}
</style>
<defs>
</defs>
<g>
	<path class="st0" d="M73,0H5C3.7,0,2.4,0.5,1.5,1.5C0.5,2.4,0,3.7,0,5v85c0,2.8,2.3,5,5,5H73c2.8,0,5-2.3,5-5V5C78,2.3,75.7,0,73,0   z M75.2,90c0,1.2-1,2.2-2.2,2.2H5c-1.2,0-2.2-1-2.2-2.2V5c0-0.6,0.2-1.1,0.7-1.6C3.9,3,4.4,2.8,5,2.8H73c1.2,0,2.2,1,2.2,2.2   L75.2,90L75.2,90z"/>
	<path class="st0" d="M66.1,6.1H11.9C10.3,6.1,9,7.4,9,9v23.3c0,1.6,1.3,2.9,2.9,2.9h54.2c1.6,0,2.9-1.3,2.9-2.9V9   C69,7.4,67.7,6.1,66.1,6.1z M66.2,32.3c0,0.1-0.1,0.1-0.1,0.1H11.9c-0.1,0-0.1-0.1-0.1-0.1V9c0-0.1,0.1-0.1,0.1-0.1h54.2   c0.1,0,0.1,0.1,0.1,0.1V32.3z"/>
	<path class="st0" d="M24.6,38.3h-13c-1.3,0-2.4,1.1-2.4,2.4v10.7c0,1.3,1.1,2.4,2.4,2.4h13c1.3,0,2.4-1.1,2.4-2.4V40.7   C26.9,39.4,25.9,38.3,24.6,38.3z M24.1,50.9H12.1v-9.8h12.1V50.9z"/>
	<path class="st0" d="M45.5,38.3h-13c-1.3,0-2.4,1.1-2.4,2.4v10.7c0,1.3,1.1,2.4,2.4,2.4h13c1.3,0,2.4-1.1,2.4-2.4V40.7   C47.8,39.4,46.8,38.3,45.5,38.3z M45,50.9H33v-9.8H45V50.9z"/>
	<path class="st0" d="M66.4,38.3h-13c-1.3,0-2.4,1.1-2.4,2.4v10.7c0,1.3,1.1,2.4,2.4,2.4h13c1.3,0,2.4-1.1,2.4-2.4V40.7   C68.8,39.4,67.7,38.3,66.4,38.3z M65.9,50.9H53.9v-9.8h12.1V50.9z"/>
	<path class="st0" d="M24.6,55.9h-13c-1.3,0-2.4,1.1-2.4,2.4V69c0,1.3,1.1,2.4,2.4,2.4h13c1.3,0,2.4-1.1,2.4-2.4V58.3   C26.9,57,25.9,55.9,24.6,55.9z M24.1,68.5H12.1v-9.8h12.1V68.5z"/>
	<path class="st0" d="M45.5,55.9h-13c-1.3,0-2.4,1.1-2.4,2.4V69c0,1.3,1.1,2.4,2.4,2.4h13c1.3,0,2.4-1.1,2.4-2.4V58.3   C47.8,57,46.8,55.9,45.5,55.9z M45,68.5H33v-9.8H45V68.5z"/>
	<path class="st0" d="M66.4,55.9h-13c-0.6,0-1.2,0.2-1.7,0.7c-0.4,0.4-0.7,1-0.7,1.7v28.1c0,1.4,1.1,2.5,2.5,2.5h12.6   c1.4,0,2.5-1.1,2.5-2.5V58.3C68.8,57,67.7,55.9,66.4,55.9z M65.9,86.1H53.9V58.7h12.1V86.1z"/>
	<path class="st0" d="M24.6,73.6h-13c-1.3,0-2.4,1.1-2.4,2.4v10.7c0,1.3,1.1,2.4,2.4,2.4h13c1.3,0,2.4-1.1,2.4-2.4V75.9   C26.9,74.6,25.9,73.6,24.6,73.6z M24.1,86.1H12.1v-9.8h12.1V86.1z"/>
	<path class="st0" d="M45.5,73.6h-13c-1.3,0-2.4,1.1-2.4,2.4v10.7c0,1.3,1.1,2.4,2.4,2.4h13c1.3,0,2.4-1.1,2.4-2.4V75.9   C47.8,74.6,46.8,73.6,45.5,73.6z M45,86.1H33v-9.8H45V86.1z"/>
</g>
</svg>