<!-- Generator: Adobe Illustrator 25.1.0, SVG Export Plug-In  -->
<svg version="1.1" xmlns="http://www.w3.org/2000/svg" xmlns:xlink="http://www.w3.org/1999/xlink" x="0px" y="0px" width="95.8px"
	 height="97.2px" viewBox="0 0 95.8 97.2" style="overflow:visible;enable-background:new 0 0 95.8 97.2;" xml:space="preserve">
<style type="text/css">
	.st0{fill:#002857;}
</style>
<defs>
</defs>
<path class="st0" d="M80.7,97.2c-18.8-3.2-25.1-10.3-27.1-15.6c-2.1-5.7-0.3-12.3,5-18.7c2-2.3,2.8-4.9,2.5-7.5
	C60.5,50,55.3,45,52,42.4l-0.5,0.7l0.3,0.9c1.8,5.7,4.4,13.5-2.9,17.9c-5.6,3.4-12.6,9.2-13.6,17c-0.7,5.3,1.5,10.6,6.5,15.9
	l0.3,0.3L40,97l-0.3-0.3c-5.7-6-8.1-12.1-7.3-18.2c0.9-7,6.1-13.6,14.9-19c5.1-3.1,3.6-8.8,2-13.5l-4.6,6.7l-1.2-1.2
	c-0.1-0.1-7.2-7.4-16.9-7.4c-1.6,0-3.1,0.2-4.7,0.6l-0.4,0.1L21,42l0.4-0.1c1.8-0.4,3.6-0.7,5.4-0.7c8.4,0,14.9,4.7,17.6,7.1l3-4.4
	l-15-18.1L32.3,26c-0.6,0.7-1.6,1.2-2.5,1.2c-1,0-1.9-0.4-2.5-1.2c-0.2-0.2-0.3-0.2-0.3-0.2c-0.2,0-0.4,0.1-0.5,0.2l-0.1,0
	c-0.6,0.7-1.5,1.1-2.5,1.1c-1,0-1.9-0.4-2.5-1.2c-0.1-0.1-0.3-0.2-0.4-0.2c-0.2,0-0.3,0.1-0.4,0.2c-0.6,0.7-1.6,1.2-2.5,1.2
	s-1.9-0.4-2.5-1.2l0,0L2.3,45.1L0,43.5l23.1-33.3l8.3,10.1L45.4,0l15.3,18.4l-2.2,1.8l-6.2-7.5c-0.3,0.1-0.7,0.2-1,0.2l-0.1,0
	c-0.9,0-1.8-0.5-2.4-1.2c-0.2-0.2-0.3-0.2-0.3-0.2c-0.2,0-0.4,0.1-0.5,0.2l-0.1,0c-0.7,0.8-1.5,1.2-2.3,1.2c-0.9,0-1.8-0.4-2.6-1.2
	l-0.1,0l0,0c-0.1-0.1-0.3-0.1-0.4-0.1c-0.1,0-0.2,0-0.3,0.2c-0.6,0.7-1.4,1.1-2.2,1.2l-6.6,9.5l15.8,19.1l17.3-24.9L94.8,51
	l-2.2,1.8L76,32.8l-0.3,0.3c-0.6,0.7-1.5,1.2-2.5,1.2c0,0,0,0,0,0c-1,0-1.9-0.4-2.5-1.2c-0.1-0.1-0.2-0.2-0.4-0.2
	c-0.2,0-0.3,0.1-0.4,0.2c-0.6,0.7-1.6,1.2-2.5,1.2c-1,0-1.9-0.4-2.5-1.2c-0.1-0.1-0.2-0.2-0.4-0.2c-0.2,0-0.3,0.1-0.4,0.2
	c-0.6,0.7-1.6,1.2-2.5,1.2s-1.9-0.4-2.5-1.2l-0.3-0.4l-5.1,7.3c3.8,3,8.4,7.5,9.9,12.7c2.8-1.7,6.2-2.6,10.2-2.6
	c2.4,0,5,0.3,7.6,0.9l0.4,0.1L81,54l-0.4-0.1c-2.5-0.6-4.8-0.9-7-0.9c-3.9,0-7.2,0.9-9.7,2.8c0.2,3.1-0.9,6.1-3.2,8.8
	c-4.6,5.6-6.2,11.2-4.5,16c1.8,4.8,6.7,8.6,14.7,11.3v-5.8l-3.6,3.6l-2-2l5.5-5.5v-1.1l-2.4,2.4l-2-2l4.4-4.4v-0.4l-1.5,1.5l-2-2
	l4.9-4.9l4.9,4.9l-2,2l-1.5-1.5v0.4l4.4,4.4l-2,2l-2.4-2.4v1.1l5.5,5.5l-2,2l-3.6-3.6v6.6c2.3,0.6,4.8,1.2,7.4,1.6l0.4,0.1l-0.5,2.8
	L80.7,97.2z M70.3,30.1c1,0,1.9,0.4,2.5,1.2c0.1,0.1,0.2,0.2,0.4,0.2c0.1,0,0.3,0,0.4-0.2l0.6-0.7l-7.7-9.3l-6.3,9l0.8,0.9
	c0.1,0.1,0.2,0.2,0.4,0.2c0.2,0,0.3-0.1,0.4-0.2c0.6-0.7,1.6-1.2,2.5-1.2c1,0,1.9,0.4,2.5,1.2c0.1,0.1,0.2,0.2,0.4,0.2
	c0.2,0,0.3-0.1,0.4-0.2C68.4,30.5,69.3,30.1,70.3,30.1z M17.6,24.2c0.1,0.1,0.2,0.2,0.4,0.2c0.2,0,0.3-0.1,0.4-0.2
	C19.1,23.4,20,23,21,23c1,0,1.9,0.4,2.5,1.2c0.1,0.1,0.3,0.2,0.4,0.2c0.1,0,0.3-0.1,0.4-0.1l0.1,0l0.1,0c0.9-0.8,1.7-1.2,2.6-1.2
	c0.9,0,1.7,0.4,2.4,1.2c0.1,0.1,0.3,0.2,0.4,0.2c0.2,0,0.3-0.1,0.4-0.2l0.4-0.5l-7.4-8.9l-6.1,8.8L17.6,24.2z M45.1,9.9
	c0.3,0.1,0.5,0.2,0.6,0.2c0,0,0.1-0.1,0.2-0.1l0.1-0.1l0.1,0c0.9-0.8,1.8-1.2,2.6-1.2c0.2,0,0.3,0,0.5,0l-3.4-4.2l-2.9,4.2
	c0.9,0.1,1.7,0.4,2.2,1.1L45.1,9.9z"/>
<path class="st0" d="M9.9,48.2l0.3-0.3c2.2-1.9,4.4-3.3,6.7-4.4l0.4-0.2l1.2,2.5l-0.4,0.2c-2.1,1-4.1,2.3-6.1,4l-0.3,0.3L9.9,48.2z"
	/>
<path class="st0" d="M54.9,27.3c-0.1-0.1-2.7-2.9-7.5-2.9c-2.7,0-5.6,0.9-8.6,2.6l-0.3,0.2L37,24.8l0.3-0.2c3.4-1.9,6.7-2.9,9.9-2.9
	c6.2,0,9.7,3.7,9.7,3.8l0.3,0.3l-2.1,1.9L54.9,27.3z"/>
<path class="st0" d="M86.8,55.9c-0.1,0-1.9-0.8-4.5-1.6l-0.4-0.1l0.8-2.7l0.4,0.1c2.9,0.8,4.8,1.7,4.9,1.7l0.4,0.2l-1.2,2.6
	L86.8,55.9z"/>
<polygon class="st0" points="24.7,69 24.7,61.6 21.1,65.1 19.1,63.1 24.7,57.6 24.7,56.5 22.3,58.9 20.3,56.9 24.7,52.5 24.7,52.1 
	23.2,53.6 21.2,51.7 26.1,46.8 31,51.7 29,53.6 27.5,52.1 27.5,52.5 31.9,56.9 29.9,58.9 27.5,56.5 27.5,57.6 33,63.1 31,65.1 
	27.5,61.6 27.5,69 "/>
<path class="st0" d="M83.8,19.2c-3.1,0-5.7-2.6-5.7-5.7c0-3.1,2.6-5.7,5.7-5.7c3.1,0,5.7,2.6,5.7,5.7C89.5,16.7,86.9,19.2,83.8,19.2
	z M83.8,10.6c-1.6,0-2.9,1.3-2.9,2.9c0,1.6,1.3,2.9,2.9,2.9c1.6,0,2.9-1.3,2.9-2.9C86.7,11.9,85.4,10.6,83.8,10.6z"/>
<rect x="82.4" y="1.5" class="st0" width="2.8" height="4.6"/>
<rect x="86.4" y="3.7" transform="matrix(0.4997 -0.8662 0.8662 0.4997 39.8972 79.3506)" class="st0" width="4.6" height="2.8"/>
<rect x="89.9" y="7.3" transform="matrix(0.866 -0.5001 0.5001 0.866 8.0176 47.2678)" class="st0" width="4.6" height="2.8"/>
<rect x="91.2" y="12.1" class="st0" width="4.6" height="2.8"/>
<rect x="90.8" y="16.1" transform="matrix(0.5 -0.866 0.866 0.5 30.197 89.0229)" class="st0" width="2.8" height="4.6"/>
<rect x="87.3" y="19.6" transform="matrix(0.8662 -0.4997 0.4997 0.8662 0.916 47.2305)" class="st0" width="2.8" height="4.6"/>
<rect x="82.4" y="20.9" class="st0" width="2.8" height="4.6"/>
<rect x="76.7" y="20.5" transform="matrix(0.5002 -0.8659 0.8659 0.5002 20.4999 79.3295)" class="st0" width="4.6" height="2.8"/>
<rect x="73.1" y="17" transform="matrix(0.8662 -0.4997 0.4997 0.8662 0.9146 40.146)" class="st0" width="4.6" height="2.8"/>
<rect x="71.8" y="12.1" class="st0" width="4.6" height="2.8"/>
<rect x="74" y="6.4" transform="matrix(0.4997 -0.8662 0.8662 0.4997 30.2137 69.6703)" class="st0" width="2.8" height="4.6"/>
<rect x="77.6" y="2.8" transform="matrix(0.8662 -0.4997 0.4997 0.8662 8.0023 40.1461)" class="st0" width="2.8" height="4.6"/>
<path class="st0" d="M46.1,69.8l0.2-0.3c0.8-1.1,1.9-2.1,3-3l0.3-0.3l1.8,2.2l-0.3,0.2c-1,0.8-1.9,1.7-2.6,2.6l-0.2,0.3L46.1,69.8z"
	/>
<path class="st0" d="M43.1,78l0-0.4c0.1-1.5,0.4-2.9,1-4.3l0.2-0.4l2.6,1l-0.1,0.4c-0.4,1.1-0.7,2.3-0.8,3.4l0,0.4L43.1,78z"/>
<path class="st0" d="M55.4,96c-0.5-0.3-1-0.6-1.5-0.9l-0.3-0.2l1.5-2.4l0.3,0.2c0.4,0.3,0.9,0.6,1.4,0.8l0.3,0.2l-1.4,2.4L55.4,96z"
	/>
<path class="st0" d="M50.5,92.6c-1.1-0.9-2.1-1.9-3-3l-0.3-0.3l2.1-1.8l0.3,0.3c0.8,0.9,1.7,1.8,2.7,2.7l0.3,0.3l-1.8,2.1L50.5,92.6
	z"/>
<path class="st0" d="M45.1,86.1c-0.7-1.3-1.2-2.7-1.6-4l-0.1-0.4l2.7-0.7l0.1,0.4c0.3,1.1,0.7,2.3,1.3,3.4l0.2,0.4l-2.5,1.3
	L45.1,86.1z"/>
<path class="st0" d="M51.6,64.4l0.3-0.3c2.3-2.5,3.5-5,3.3-7.3l0-0.4l2.8-0.3l0,0.4c0.2,2.2-0.3,5.6-4,9.5l-0.3,0.3L51.6,64.4z"/>
</svg>
