<!-- Generator: Adobe Illustrator 25.0.1, SVG Export Plug-In  -->
<svg version="1.1" xmlns="http://www.w3.org/2000/svg" xmlns:xlink="http://www.w3.org/1999/xlink" x="0px" y="0px" width="78.2px"
	 height="46.4px" viewBox="0 0 78.2 46.4" style="overflow:visible;enable-background:new 0 0 78.2 46.4;" xml:space="preserve">
<style type="text/css">
	.st0{fill:#510B76;}
</style>
<defs>
</defs>
<path class="st0" d="M39,46.4c-11.2,0-21.7-4.3-29.5-12.2l-4.8-4.8c-0.3-0.4-0.3-1.2,0-1.7l4.7-4.7c7.9-7.9,18.4-12.2,29.5-12.2
	c11.2,0,21.7,4.3,29.5,12.2l4.8,4.8c0.5,0.5,0.5,1.1,0,1.6l-4.8,4.8C60.7,42.1,50.2,46.4,39,46.4z M39.1,13.2
	c-10.5,0-20.4,4.1-27.9,11.5l-4,4l4,4c7.4,7.4,17.3,11.5,27.9,11.5c10.5,0,20.4-4.1,27.9-11.5l4-4l-4-4
	C59.6,17.3,49.7,13.2,39.1,13.2z"/>
<path class="st0" d="M39.1,41.8c-7.3,0-13.2-5.9-13.2-13.2s5.9-13.2,13.2-13.2s13.2,5.9,13.2,13.2S46.4,41.8,39.1,41.8z M39.1,17.8
	c-6,0-10.9,4.9-10.9,10.9c0,6,4.9,10.9,10.9,10.9c6,0,10.9-4.9,10.9-10.9C50,22.7,45.1,17.8,39.1,17.8z"/>
<path class="st0" d="M36.3,29.5c-2.2,0-3.9-1.8-3.9-3.9c0-2.2,1.8-3.9,3.9-3.9c2.2,0,3.9,1.8,3.9,3.9C40.3,27.7,38.5,29.5,36.3,29.5
	z M36.3,23.9c-0.9,0-1.7,0.7-1.7,1.7s0.7,1.7,1.7,1.7s1.7-0.7,1.7-1.7S37.3,23.9,36.3,23.9z"/>
<path class="st0" d="M5.2,23.1c-0.2,0-0.5-0.1-0.6-0.3l-4.1-3.5c-0.4-0.4-0.6-1.3-0.1-1.7c0.3-0.3,0.6-0.4,1-0.4
	c0.2,0,0.5,0.1,0.6,0.3L6,21.1c0.4,0.4,0.6,1.1,0.1,1.6C5.9,23,5.5,23.1,5.2,23.1L5.2,23.1z"/>
<path class="st0" d="M12.6,16.4c-0.4,0-0.8-0.2-1-0.4l-3.3-4.4c-0.3-0.4-0.2-1.3,0.2-1.6C8.8,9.8,9,9.8,9.3,9.8c0.4,0,0.8,0.2,1,0.4
	l3.3,4.4c0.2,0.2,0.2,0.5,0.2,0.8c0,0.3-0.2,0.6-0.4,0.8C13.1,16.3,12.9,16.4,12.6,16.4L12.6,16.4z"/>
<path class="st0" d="M20.8,11.5c-0.4,0-0.8-0.3-1-0.7l-2.1-5c-0.1-0.3-0.1-0.6,0-0.9c0.1-0.3,0.3-0.5,0.6-0.6
	c0.2-0.1,0.3-0.1,0.5-0.1c0.5,0,0.9,0.2,1,0.6l2.1,5c0.1,0.3,0.1,0.6,0,0.9c-0.1,0.3-0.3,0.5-0.6,0.6C21.1,11.5,20.9,11.5,20.8,11.5
	L20.8,11.5z"/>
<path class="st0" d="M29.7,8.6c-0.5,0-0.9-0.4-1-1l-1.2-5.3C27.5,1.6,28,1.1,28.5,1c0.1,0,0.1,0,0.2,0c0.7,0,1.1,0.5,1.2,0.9
	l1.2,5.3c0.1,0.7-0.4,1.3-0.9,1.4C29.9,8.6,29.8,8.6,29.7,8.6L29.7,8.6z"/>
<path class="st0" d="M39.1,7.7c-0.7,0-1.1-0.4-1.1-1.1V1.1C38,0.4,38.4,0,39.1,0c0.7,0,1.1,0.4,1.1,1.1v5.4
	C40.3,7.1,39.8,7.7,39.1,7.7z"/>
<path class="st0" d="M48.3,8.7c-0.1,0-0.1,0-0.2,0c-0.4-0.1-0.6-0.3-0.7-0.5c-0.2-0.3-0.3-0.6-0.2-0.9l1.2-5.3c0.1-0.6,0.7-1,1.2-1
	c0.1,0,0.1,0,0.2,0c0.4,0.1,0.6,0.3,0.7,0.5c0.2,0.3,0.3,0.6,0.2,0.9l-1.2,5.3C49.4,8.3,49,8.7,48.3,8.7L48.3,8.7z"/>
<path class="st0" d="M57.4,11.5c-0.2,0-0.3,0-0.4-0.1c-0.3-0.1-0.5-0.3-0.6-0.6c-0.1-0.3-0.1-0.6,0-0.9L58.5,5
	c0.2-0.4,0.6-0.6,1-0.6c0.2,0,0.3,0,0.5,0.1c0.3,0.1,0.5,0.4,0.5,0.5c0.1,0.3,0.1,0.6,0,1l-2.1,4.9C58.2,11.3,57.8,11.5,57.4,11.5z"
	/>
<path class="st0" d="M65.5,16.5c-0.2,0-0.4-0.1-0.6-0.2c-0.4-0.4-0.6-1.2-0.2-1.6l3.3-4.4c0.2-0.3,0.6-0.4,1-0.4
	c0.3,0,0.5,0.1,0.6,0.2c0.4,0.3,0.6,1.2,0.2,1.6c-0.5,0.6-0.9,1.2-1.2,1.7C67.2,15.2,66.3,16.5,65.5,16.5z"/>
<path class="st0" d="M73,23.1c-0.3,0-0.7-0.2-1-0.4c-0.3-0.3-0.3-0.6-0.3-0.7c0-0.7,1.1-1.6,2.5-2.7c0.6-0.5,1.3-1.1,2.1-1.8
	c0.2-0.2,0.4-0.3,0.7-0.3c0.3,0,0.6,0.1,0.9,0.4c0.3,0.5,0.4,1.3-0.1,1.6l-4.1,3.6C73.5,23,73.3,23.1,73,23.1L73,23.1z"/>
</svg>
