<!-- Generator: Adobe Illustrator 25.1.0, SVG Export Plug-In  -->
<svg version="1.1" xmlns="http://www.w3.org/2000/svg" xmlns:xlink="http://www.w3.org/1999/xlink" x="0px" y="0px" width="59.6px"
	 height="59.6px" viewBox="0 0 59.6 59.6" style="overflow:visible;enable-background:new 0 0 59.6 59.6;" xml:space="preserve">
<style type="text/css">
	.st0{fill:#216C06;}
</style>
<defs>
</defs>
<path class="st0" d="M22,59.6c-0.9,0-1.3-0.4-1.3-1.2v-3.8H9.9c-0.3,0-0.5-0.1-0.6-0.2C9,54.1,9,53.5,9,52.9l0-4.8
	c0-1.1,0-2.2,0.1-3.3c0.3-2.3,1.7-4.5,3.8-5.5l0.3-0.2l-0.3-0.2c-2.2-1.4-3.4-4-3.3-6.7c0.1-2.7,1.5-5.1,3.7-6.3l0.2-0.1l-0.1-0.2
	c-0.4-0.6-0.8-1.3-1.1-1.9c-0.4-0.6-0.8-1.3-1.2-1.9L11,21.7c-0.2-0.5-0.5-1.1-1-1.1c-1.4,0-2.4-0.1-3.3-0.5
	c-4.2-1.4-7-5.8-6.7-10.4C0.3,4.4,4.7,0,9.8,0h40c0.7,0,1.4,0.1,2,0.3c4.3,1,7.6,4.9,7.8,9.4c0.3,5.4-3.5,10.1-8.6,10.8
	c-0.7,0.1-0.8,0.2-1.1,0.6c0,0.1-0.1,0.2-0.2,0.3c-0.2,0.3-0.4,0.6-0.6,0.9c-0.2,0.3-0.3,0.6-0.5,0.9c-0.2,0.4-0.4,0.7-0.6,1
	c-0.2,0.3-0.4,0.7-0.6,1c-0.1,0.1-0.1,0.2-0.2,0.3c-0.1,0.1-0.2,0.2-0.2,0.4c0,0.2,0.1,0.3,0.2,0.5c1.9,1.5,2.9,3.9,2.8,6.4
	c-0.1,2.5-1.3,4.7-3.3,6.1L46.5,39l0.3,0.2c4.1,2.2,4,7.1,3.8,11.3c0,0.8,0,1.5,0,2.2c0,0.1,0,0.3,0,0.4c0,0.8,0,1.3-0.6,1.5
	c-0.1,0-0.3,0-0.4,0c-0.2,0-0.3,0-0.5,0c-0.2,0-0.3,0-0.5,0h-9.7v3.6c0,1-0.3,1.4-1.2,1.4H22z M29,42.1c-1.7,0-3.5,0.2-4.9,1.6
	c-1.9,1.9-1.8,5-1.7,7.7c0,0.6,0,1.2,0,1.7v4.7l0.1,0.2l0.1,0.1l0.2,0c0,0,0.1,0,0.1,0l14.4,0V47.7c0-2-1-3.8-2.7-4.9
	c-1.1-0.6-2.4-0.7-3.5-0.7c-0.4,0-0.7,0-1.1,0C29.7,42.1,29.3,42.1,29,42.1z M47.7,53c0.2,0,0.4,0,0.5,0c0.1,0,0.2,0,0.3,0
	c0.5,0,0.5-0.5,0.5-0.8v-4.5c0-0.3,0-0.6,0-0.9c0-0.9,0.1-1.9-0.2-2.9c-0.8-2.3-2.8-3.8-5.1-3.9l-1,0c-0.9,0-1.9,0-2.9,0.5
	c-1,0.5-1.8,1.4-2.4,2.5l-0.1,0.1l0.1,0.1c0.7,1,1.2,2.1,1.4,3.2c0.1,1,0.1,2.1,0.1,3.1c0,0.4,0,0.7,0,1.1v2.1l0.1,0.2L39,53l0.2,0
	l0.2,0H47.7z M16.7,40.1c-1.1,0-2.3,0.1-3.4,0.7c-1.7,1-2.7,2.9-2.7,5V53h9.2c0,0,0.1,0,0.1,0c0.1,0,0.3,0,0.4,0
	c0.1,0,0.3,0,0.3-0.1c0.1-0.2,0.1-0.6,0.1-1.3c0-0.1,0-0.2,0-0.3v-2.3c0-1.8,0-3.3,0.9-4.9c0.2-0.3,0.4-0.6,0.6-0.8l0.1-0.1l0-0.1
	c-0.1-0.3-0.2-0.6-0.4-0.9c-0.3-0.4-0.7-0.9-1.2-1.2c-0.8-0.7-1.8-1-3-1L16.7,40.1z M22.1,37.6c-0.4,0.6-0.9,1-1.4,1.3l-0.3,0.2
	l0.3,0.2c1.1,0.6,2.1,1.5,2.7,2.6l0.1,0.2l0.2-0.2c0.4-0.4,1-0.7,1.4-0.9l0.4-0.1l-0.3-0.2c-1.1-0.7-2-1.8-2.7-3.1l-0.2-0.3
	L22.1,37.6z M37.2,37.5c-0.7,1.4-1.6,2.4-2.7,3.1l-0.3,0.2l0.3,0.2c0.2,0.1,0.3,0.2,0.5,0.3c0.3,0.2,0.7,0.3,1,0.6l0.2,0.1l0.1-0.2
	c0.6-1,1.6-1.9,2.7-2.6l0.2-0.2L39,38.8c-0.5-0.4-1.1-0.9-1.5-1.4l-0.2-0.2L37.2,37.5z M29.8,25.9c-0.5,0-1.1,0.1-1.6,0.2
	c-1.8,0.5-3.3,1.7-4.2,3.4c-1,1.8-1.3,4-0.7,5.9c0.8,3,3.5,5.1,6.6,5.1c0.5,0,1.1-0.1,1.6-0.2c1.8-0.5,3.3-1.6,4.3-3.3
	c1-1.8,1.3-4,0.7-5.9C35.5,28,32.8,25.9,29.8,25.9z M14.2,27.3c-0.7,0-1.7,1.3-1.9,1.6c-0.7,1-1.1,2.4-1.1,3.6c0,3.2,2.6,6,5.6,6
	c0.9,0,1.9-0.3,2.7-0.8c1.4-1,2.1-1.9,2-2.6c-0.2-1.3-0.3-2.3-0.1-3.2c0.1-0.6,0.2-1.1,0.4-1.6c0.2-0.5-0.2-1-0.4-1.3
	c0-0.1-0.1-0.1-0.1-0.2c-0.5-0.8-1.3-1.4-2.3-1.9l-0.3-0.1v4.3c0,0.3-0.1,1.1-0.8,1.1c0,0-0.1,0-0.1,0c-0.4,0-0.7-0.4-0.8-0.8
	c-0.7-1.3-1.5-2.6-2.3-3.9C14.5,27.3,14.4,27.3,14.2,27.3z M41.7,26.6c-1.3,0.3-2.5,1.1-3.3,2.3c-0.5,0.7-0.7,1.1-0.4,1.9
	c0,0.1,0.1,0.3,0.1,0.4c0.1,0.4,0.2,0.8,0.2,1.2c0.1,0.8,0,1.6-0.1,2.4c-0.1,0.9,0.3,1.4,0.9,2c1,1,2.1,1.6,3.3,1.7
	c0.2,0,0.5,0,0.7,0c2.3,0,4.3-1.5,5.1-3.9c0.7-2.1,0.4-5.1-2-6.8L46,27.6l-0.1,0.2c-0.3,0.4-0.5,0.8-0.8,1.3
	c-0.2,0.4-0.5,0.8-0.7,1.2c-0.1,0.1-0.2,0.4-0.4,0.6c-0.4,0.6-0.8,1.4-1.3,1.4c-0.1,0-0.1,0-0.2,0c-0.7-0.2-0.6-1.3-0.6-2.1
	c0-0.2,0-0.3,0-0.5v-3.1L41.7,26.6z M19,19h23.7c0.8,0,0.9,0.6,0.9,1.7v7.8l0.4-0.6c0.7-1.1,1.3-2.1,1.9-3.2c0.6-1,1.2-2.1,1.9-3.1
	l0.3-0.6c0.3-0.5,0.6-1.1,1-1.6c0.3-0.4,0.8-0.4,1.3-0.4c0.6-0.1,1.2-0.2,1.9-0.4c1.3-0.5,2.4-1.3,3.3-2.1c2.4-2.5,3.1-6.4,1.6-9.8
	c-1.3-3.1-4.1-5-7.3-5H10.5C7.1,1.6,4.3,3.2,2.7,6c-1.2,2.2-1.4,4.8-0.6,7.2c0.7,2.3,2.3,4.1,4.3,5.1C7.6,18.7,8.8,19,9.8,19
	c0.1,0,0.2,0,0.3,0c0.1,0,0.3,0,0.4,0c0.5,0,0.8,0.1,1,0.4c0.4,0.4,0.7,1,0.9,1.5c0.1,0.2,0.2,0.4,0.4,0.7c0.7,1.1,1.3,2.1,1.9,3.2
	c0.6,1.1,1.3,2.1,1.9,3.2l0.4,0.6v-4.4c0-0.5,0-0.9,0-1.4c0-0.9-0.1-1.9,0-2.8c0-0.6,0.4-0.8,1.3-0.8C18.5,19,19,19,19,19z
	 M29.8,24.4c2.8,0,5.4,1.4,6.9,3.7l0.2,0.2l0.2-0.2c1.1-1.6,2.9-2.7,4.8-3l0.2,0v-4c0-0.1-0.1-0.5-0.5-0.5c-0.1,0-0.2,0-0.3,0
	c-0.1,0-0.2,0-0.2,0H18.6V25c0,0.2,0.2,0.3,0.7,0.5c0.2,0.1,0.4,0.1,0.4,0.2c1.1,0.5,2,1.3,2.8,2.4l0.2,0.2l0.2-0.2
	C24.4,25.7,27,24.4,29.8,24.4z"/>
<path class="st0" d="M13.8,6.9c-0.2,0-0.4-0.1-0.6-0.3C13.1,6.5,13,6.3,13,6.1c0-0.4,0.2-0.8,0.7-0.8h31.2c0.1,0,0.2,0,0.3,0
	c0.1,0,0.2,0,0.3,0c0.2,0,0.4,0,0.6,0.1c0.4,0.2,0.4,0.6,0.4,0.9c-0.1,0.3-0.3,0.6-0.8,0.6H13.8z"/>
<path class="st0" d="M7.8,11.1c-0.5,0-0.8-0.4-0.8-0.8c0-0.2,0.1-0.4,0.2-0.5c0.1-0.2,0.4-0.2,0.6-0.2h44c0.2,0,0.4,0.1,0.6,0.2
	c0.1,0.1,0.2,0.3,0.2,0.5c0,0.5-0.4,0.9-1,0.9H7.8z"/>
<path class="st0" d="M7.8,15.3c-0.5,0-0.8-0.4-0.8-0.8c0-0.2,0.1-0.4,0.2-0.5c0.1-0.2,0.4-0.2,0.6-0.2h44c0.2,0,0.4,0.1,0.6,0.2
	c0.1,0.1,0.2,0.3,0.2,0.5c0,0.5-0.4,0.9-1,0.9H7.8z"/>
</svg>
