<!-- Generator: Adobe Illustrator 25.1.0, SVG Export Plug-In  -->
<svg version="1.1" xmlns="http://www.w3.org/2000/svg" xmlns:xlink="http://www.w3.org/1999/xlink" x="0px" y="0px" width="68.3px"
	 height="72.1px" viewBox="0 0 68.3 72.1" style="overflow:visible;enable-background:new 0 0 68.3 72.1;" xml:space="preserve">
<style type="text/css">
	.st0{fill:#007EB4;}
</style>
<defs>
</defs>
<g>
	<path class="st0" d="M0,60.7l0.6,10.3c0,0.6,0.6,1.1,1.2,1.1h20.5c0.6,0,1.2-0.5,1.2-1.1l0.6-10.3c0.3-4.6-2.4-8.8-6.6-10.6
		c3.8-2.7,4.7-7.9,2-11.8c-2.7-3.8-7.9-4.7-11.8-2s-4.7,7.9-2,11.8c0.5,0.7,1,1.2,1.6,1.7C2.8,51.3-0.3,55.8,0,60.7L0,60.7z
		 M6.6,43.2c0-3.3,2.7-6,6-6s6,2.7,6,6c0,3.3-2.7,6-6,6C9.3,49.2,6.6,46.5,6.6,43.2z M10.8,51.6h2.4c4.7,0,8.4,3.8,8.4,8.4
		c0,0.2,0,0.3,0,0.5l-0.5,9.1H3l-0.5-9.1c-0.3-4.6,3.3-8.6,7.9-8.9C10.5,51.6,10.7,51.6,10.8,51.6z"/>
	<path class="st0" d="M41,60.7l0.6,10.3c0,0.6,0.6,1.1,1.2,1.1h20.5c0.6,0,1.2-0.5,1.2-1.1l0.6-10.3c0.3-4.6-2.4-8.8-6.6-10.6
		c3.8-2.7,4.7-7.9,2-11.8s-7.9-4.7-11.8-2c-3.8,2.7-4.7,7.9-2,11.8c0.5,0.7,1,1.2,1.6,1.7C43.7,51.3,40.7,55.8,41,60.7L41,60.7z
		 M47.6,43.2c0-3.3,2.7-6,6-6c3.3,0,6,2.7,6,6c0,3.3-2.7,6-6,6C50.3,49.2,47.6,46.5,47.6,43.2z M51.8,51.6h2.4
		c4.7,0,8.4,3.8,8.4,8.4c0,0.2,0,0.3,0,0.5l-0.5,9.1H43.9l-0.5-9.1c-0.3-4.6,3.3-8.6,7.9-8.9C51.5,51.6,51.6,51.6,51.8,51.6z"/>
	<path class="st0" d="M11,2.1C8.9,2.2,7.1,3.6,6.6,5.6l-1.8,6.5c-0.7,2.6,0.8,5.2,3.4,5.9c0.3,0.1,0.6,0.1,0.9,0.2l4.1,0.3v4.3
		c0,3.3,2.7,6,6,6h1.6l-0.4,5.9c0,0.6,0.3,1.1,0.9,1.2c0.5,0.2,1.1-0.1,1.4-0.6l3.6-6.6h11.6l4.5,7.8c0.2,0.4,0.6,0.6,1,0.6
		c0.1,0,0.2,0,0.2,0c0.5-0.1,0.9-0.5,1-1l1-7.3l15.9,0.9c3.3,0.2,6.1-2.3,6.3-5.6l0.5-6.2c0.2-3.3-2.2-6.2-5.5-6.5l-9.2-0.8L54,5.1
		c0.1-1.4-0.4-2.7-1.4-3.7c-1-1-2.3-1.5-3.7-1.4L11,2.1L11,2.1z M19.3,26.3c-2,0-3.6-1.6-3.6-3.6v-4.1l5.9,0.4l-0.5,7.3H19.3z
		 M53.2,16.8l0.2-3.8l9.2,0.8c2,0.2,3.4,1.9,3.3,3.9l-0.5,6.2c-0.2,2-1.8,3.4-3.8,3.3l-17-0.9c-0.6,0-1.2,0.4-1.3,1l-0.7,5l-3.1-5.4
		c-0.2-0.4-0.6-0.6-1-0.6h-11l3.2-6l17.3,1C50.8,21.4,53.1,19.4,53.2,16.8z M49,2.4c0.7,0,1.4,0.2,1.8,0.7c0.5,0.5,0.7,1.2,0.7,1.8
		l-0.7,11.6c-0.1,1.3-1.2,2.3-2.5,2.3l-18.1-1c-0.5,0-0.9,0.2-1.1,0.6l-5.8,10.7l0.8-11.3c0-0.7-0.4-1.2-1.1-1.3c0,0,0,0,0,0
		L9.3,15.7C8,15.7,7,14.5,7.1,13.2c0-0.2,0-0.3,0.1-0.5l1.8-6.5c0.3-1,1.2-1.7,2.2-1.8L49,2.4z"/>
</g>
</svg>
