<!-- Generator: Adobe Illustrator 25.0.1, SVG Export Plug-In  -->
<svg version="1.1" xmlns="http://www.w3.org/2000/svg" xmlns:xlink="http://www.w3.org/1999/xlink" x="0px" y="0px" width="78.4px" height="90px" viewBox="0 0 78.4 90" style="overflow:visible;enable-background:new 0 0 78.4 90;" xml:space="preserve">
<style type="text/css">
	.st0{fill-rule:evenodd;clip-rule:evenodd;fill:#002855;}
</style>
<defs>
</defs>
<path class="st0" d="M33,12.7C33,12.7,33,12.6,33,12.7L54.5,0.2c0.4-0.2,0.4-0.2,0.8-0.2c0.1,0,0.3,0,0.4,0.1l0.4,0.2l21.5,12.4  c0,0,0.1,0,0.1,0.1c0.1,0.1,0.2,0.1,0.2,0.2l0,0c0.1,0.1,0.2,0.2,0.2,0.3c0.1,0.2,0.2,0.5,0.2,0.7l0,0v24.8  c-0.1,0.4-0.2,0.8-0.5,1.1c-0.1,0.1-0.2,0.2-0.3,0.2L69.2,45l8.4,4.9c0.3,0.2,0.4,0.2,0.5,0.5c0.1,0.1,0.2,0.3,0.2,0.4  c0,0.1,0,0.3,0.1,0.4V76c-0.1,0.4-0.2,0.8-0.5,1.1c-0.1,0.1-0.2,0.2-0.3,0.2L56.3,89.7C56,89.9,55.7,90,55.3,90  c-0.2,0-0.3,0-0.5-0.1c-0.1,0-0.2-0.1-0.3-0.1l0,0L33.1,77.4c-0.3-0.3-0.6-0.5-0.7-0.9c0-0.1,0-0.3-0.1-0.4v-9.7l-8.5,4.9l0,0  c-0.1,0.1-0.2,0.1-0.3,0.1c-0.1,0-0.2,0.1-0.4,0.1l0,0l0,0l0,0l0,0c-0.2,0-0.3,0-0.4-0.1c-0.1,0-0.2-0.1-0.3-0.1l0,0L0.8,58.8  c-0.3-0.3-0.6-0.5-0.7-0.9c0-0.1,0-0.3-0.1-0.4V32.6v0c0-0.3,0.1-0.5,0.2-0.8c0.2-0.3,0.3-0.3,0.6-0.6l21.5-12.4  c0.4-0.2,0.4-0.2,0.8-0.2c0.1,0,0.3,0,0.4,0.1l0.4,0.2l8.4,4.9V14c0,0,0,0,0,0c0-0.3,0.1-0.5,0.2-0.7c0.1-0.2,0.2-0.2,0.2-0.3l0,0  C32.8,12.8,32.9,12.7,33,12.7z M35.4,75.1l18.4,10.6l0-21.2L35.4,53.9C35.4,53.9,35.4,75.1,35.4,75.1z M75.3,53.9L56.9,64.5l0,21.2  l18.4-10.6C75.3,75.1,75.3,53.9,75.3,53.9z M43,44.1l0-6.9l0-2L24.6,45.9v21.3l7.7-4.4V51.5c-0.1-0.4,0-0.7,0.2-1.1  c0.2-0.3,0.3-0.3,0.6-0.6C33,49.9,43,44.1,43,44.1z M3.1,56.5l18.4,10.6l0-21.3L3.1,35.3C3.1,35.3,3.1,56.5,3.1,56.5z M66.1,46.8  l-10,5.8c-0.3,0.1-0.4,0.2-0.8,0.2c-0.1,0-0.3,0-0.4-0.1h0l0,0l0,0l0,0l0,0l0,0c-0.1,0-0.2-0.1-0.3-0.1c0,0,0,0,0,0l-10-5.7  l-7.6,4.4l18.4,10.6l18.4-10.6C73.7,51.2,66.1,46.8,66.1,46.8z M65.3,43.6l9.9-5.7V16.6c-6.1,3.5-12.3,7.1-18.4,10.6l0,21.3  L65.3,43.6C65.3,43.7,65.3,43.6,65.3,43.6z M46.1,44.1l7.6,4.4l0-21.3L35.3,16.6v8.8l10,5.8l0.1,0.1c0.1,0,0.2,0.1,0.2,0.2l0,0l0,0  l0,0l0,0c0.1,0.1,0.1,0.1,0.2,0.2c0.1,0.1,0.1,0.2,0.2,0.4c0,0.1,0,0.3,0.1,0.4l0,4.6C46.1,37.2,46.1,44.1,46.1,44.1z M41.5,32.6  L23,22C16.9,25.5,10.8,29,4.6,32.6L23,43.2C23,43.2,41.5,32.6,41.5,32.6z M36.9,14l18.4,10.6L73.7,14L55.3,3.3  C49.2,6.9,43,10.4,36.9,14L36.9,14z"/>
</svg>