<?xml version="1.0" encoding="utf-8"?>
<svg version="1.1" xmlns:xlink="http://www.w3.org/1999/xlink" width="25px" height="25px" xmlns="http://www.w3.org/2000/svg" fill="#ffffff">
  <g transform="matrix(1 0 0 1 -38 -208 )">
    <path d="M 25 12.5  C 25 5.59475806451613  19.4052419354839 0  12.5 0  C 5.59475806451613 0  0 5.59475806451613  0 12.5  C 0 19.4052419354839  5.59475806451613 25  12.5 25  C 19.4052419354839 25  25 19.4052419354839  25 12.5  Z M 22.5806451612903 12.5  C 22.5806451612903 18.0695564516129  18.0695564516129 22.5806451612903  12.5 22.5806451612903  C 6.9304435483871 22.5806451612903  2.41935483870968 18.0695564516129  2.41935483870968 12.5  C 2.41935483870968 6.9304435483871  6.9304435483871 2.41935483870968  12.5 2.41935483870968  C 18.0695564516129 2.41935483870968  22.5806451612903 6.9304435483871  22.5806451612903 12.5  Z M 16.4616935483871 17.1875  C 16.2651209677419 17.4546370967742  15.8870967741936 17.5151209677419  15.6149193548387 17.3185483870968  L 11.335685483871 14.2086693548387  C 11.179435483871 14.0927419354839  11.0887096774194 13.9112903225806  11.0887096774194 13.7197580645161  L 11.0887096774194 5.44354838709677  C 11.0887096774194 5.11088709677419  11.3608870967742 4.83870967741936  11.6935483870968 4.83870967741936  L 13.3064516129032 4.83870967741936  C 13.6391129032258 4.83870967741936  13.9112903225806 5.11088709677419  13.9112903225806 5.44354838709677  L 13.9112903225806 12.585685483871  L 17.2782258064516 15.0352822580645  C 17.5504032258065 15.2318548387097  17.6058467741935 15.6098790322581  17.4092741935484 15.8820564516129  L 16.4616935483871 17.1875  Z " fill-rule="nonzero" fill="#ffffff" stroke="none" transform="matrix(1 0 0 1 38 208 )" />
  </g>
</svg>