<!-- Generator: Adobe Illustrator 25.0.1, SVG Export Plug-In  -->
<svg version="1.1" xmlns="http://www.w3.org/2000/svg" xmlns:xlink="http://www.w3.org/1999/xlink" x="0px" y="0px" width="89px"
	 height="49.5px" viewBox="0 0 89 49.5" style="overflow:visible;enable-background:new 0 0 89 49.5;" xml:space="preserve">
<style type="text/css">
	.st0{fill:#7D91A8;}
</style>
<defs>
</defs>
<g>
	<path class="st0" d="M44.5,0C20,0,0,20,0,44.5v0.6c0,0.8,0.7,1.5,1.5,1.5h34.6c0.4,0,0.8-0.2,1.1-0.5s0.4-0.7,0.4-1.1
		c0-0.1,0-0.3,0-0.5c0-3.8,3.1-6.9,6.9-6.9s6.9,3.1,6.9,6.9c0,0.2,0,0.3,0,0.5c0,0.4,0.1,0.8,0.4,1.1c0.3,0.3,0.7,0.5,1.1,0.5h34.6
		c0.8,0,1.5-0.7,1.5-1.5v-0.6C89,19.9,69,0,44.5,0z M54.3,43.5c-0.2-2.1-1-3.9-2.3-5.4l13.7-13.7c0.6-0.6,0.6-1.5,0-2.1
		s-1.5-0.6-2.1,0L49.7,36.1c-1.5-1-3.3-1.5-5.2-1.5c-5.1,0-9.4,3.9-9.8,8.9H3C3.1,37,4.8,31,7.6,25.5l4.1,2.4
		c0.2,0.1,0.5,0.2,0.7,0.2c0.5,0,1-0.3,1.3-0.8c0.4-0.7,0.2-1.6-0.5-2l-4.1-2.4c3.3-5.4,7.7-10,13-13.4l2.5,4.3
		c0.3,0.5,0.8,0.8,1.3,0.8c0.3,0,0.5-0.1,0.7-0.2c0.7-0.4,1-1.3,0.5-2L24.6,8C30,5,36.2,3.2,42.7,3v5.2c0,0.8,0.7,1.5,1.5,1.5
		s1.5-0.7,1.5-1.5V3c6.6,0.2,12.8,1.9,18.2,4.8l-2.6,4.6c-0.4,0.7-0.2,1.6,0.5,2c0.2,0.1,0.5,0.2,0.7,0.2c0.5,0,1-0.3,1.3-0.8
		l2.6-4.5c5.4,3.4,9.9,8,13.3,13.4l-4.5,2.6c-0.7,0.4-1,1.3-0.5,2c0.3,0.5,0.8,0.8,1.3,0.8c0.3,0,0.5-0.1,0.7-0.2l4.4-2.6
		c2.8,5.5,4.5,11.6,4.7,18.2H54.3z"/>
	<path class="st0" d="M44.6,39.9c-2.6,0-4.8,2.1-4.8,4.8s2.1,4.8,4.8,4.8s4.8-2.1,4.8-4.8S47.3,39.9,44.6,39.9z M44.6,46.4
		c-1,0-1.8-0.8-1.8-1.8s0.8-1.8,1.8-1.8s1.8,0.8,1.8,1.8S45.6,46.4,44.6,46.4z"/>
</g>
</svg>
