<?xml version="1.0" encoding="UTF-8"?>
<svg version="1.1" xmlns:xlink="http://www.w3.org/1999/xlink" width="9px" height="14px" xmlns="http://www.w3.org/2000/svg">
  <g transform="matrix(1 0 0 1 -499 -870 )">
    <path d="M 8.8330078125 8.46164772727273  C 8.9443359375 8.5875946969697  9 8.73674242424242  9 8.90909090909091  C 9 9.08143939393939  8.9443359375 9.23058712121212  8.8330078125 9.35653409090909  L 4.8955078125 13.8110795454545  C 4.7841796875 13.9370265151515  4.65234375 14  4.5 14  C 4.34765625 14  4.2158203125 13.9370265151515  4.1044921875 13.8110795454545  L 0.1669921875 9.35653409090909  C 0.0556640625 9.23058712121212  0 9.08143939393939  0 8.90909090909091  C 0 8.73674242424242  0.0556640625 8.5875946969697  0.1669921875 8.46164772727273  C 0.2783203125 8.33570075757576  0.41015625 8.27272727272727  0.5625 8.27272727272727  L 8.4375 8.27272727272727  C 8.58984375 8.27272727272727  8.7216796875 8.33570075757576  8.8330078125 8.46164772727273  Z M 8.8330078125 4.64346590909091  C 8.9443359375 4.76941287878788  9 4.9185606060606  9 5.09090909090909  C 9 5.26325757575757  8.9443359375 5.4124053030303  8.8330078125 5.53835227272727  C 8.7216796875 5.66429924242424  8.58984375 5.72727272727273  8.4375 5.72727272727273  L 0.5625 5.72727272727273  C 0.41015625 5.72727272727273  0.2783203125 5.66429924242424  0.1669921875 5.53835227272727  C 0.0556640625 5.4124053030303  0 5.26325757575757  0 5.09090909090909  C 0 4.9185606060606  0.0556640625 4.76941287878788  0.1669921875 4.64346590909091  L 4.1044921875 0.188920454545455  C 4.2158203125 0.0629734848484835  4.34765625 0  4.5 0  C 4.65234375 0  4.7841796875 0.0629734848484835  4.8955078125 0.188920454545455  L 8.8330078125 4.64346590909091  Z " fill-rule="nonzero" fill="#333333" stroke="none" transform="matrix(1 0 0 1 499 870 )"/>
  </g>
</svg>