<!-- Generator: Adobe Illustrator 25.0.1, SVG Export Plug-In  -->
<svg version="1.1" xmlns="http://www.w3.org/2000/svg" xmlns:xlink="http://www.w3.org/1999/xlink" x="0px" y="0px" width="94.9px" height="53.5px" viewBox="0 0 94.9 53.5" style="overflow:visible;enable-background:new 0 0 94.9 53.5;" xml:space="preserve">
<style type="text/css">
	.st0{fill:#216C06;}
</style>
<defs>
</defs>
<g>
	<path class="st0" d="M68,23.3c0.5-0.8,0.5-1.8,0-2.6c-0.7-0.9-1.2-2-1.6-2.8c2.3-2,3.6-4.4,3.6-7.1C70,4.8,63.3,0,55.2,0   c-5.5,0-10.3,2.2-12.9,5.4c-0.5,0-1.1-0.1-1.6-0.1c-8.2,0-14.8,4.8-14.8,10.8c0,2.6,1.3,5.1,3.6,7.1c-0.4,0.9-0.9,1.9-1.6,2.8   c-0.6,0.8-0.6,1.8,0,2.6c0.4,0.6,1.1,1,1.8,1c0.2,0,0.4,0,0.6-0.1c2.6-0.7,5-1.9,6.7-2.9c1.2,0.2,2.5,0.3,3.7,0.3   c5.5,0,10.3-2.2,12.9-5.4c0.5,0,1.1,0.1,1.6,0.1c1.3,0,2.5-0.1,3.7-0.3c1.7,1,4.1,2.2,6.7,2.9c0.2,0.1,0.4,0.1,0.6,0.1   C66.8,24.2,67.5,23.9,68,23.3z M40.6,24.4c-1.3,0-2.5-0.1-3.7-0.4c-0.3-0.1-0.7,0-0.9,0.2c-1.1,0.7-3.2,1.9-5.6,2.7   c0.8-1.3,1.4-2.7,1.8-3.5c0.2-0.5,0-1.2-0.4-1.5c-2.2-1.5-3.4-3.5-3.4-5.6c0-4.5,5.5-8.3,12.3-8.3S53,11.7,53,16.3   C52.9,20.7,47.4,24.4,40.6,24.4z M64,16.4c-0.5,0.3-0.7,1-0.4,1.5c0.3,0.8,0.9,2.2,1.8,3.5c-2.4-0.8-4.5-2-5.6-2.7   c-0.2-0.1-0.4-0.2-0.7-0.2c-0.1,0-0.2,0-0.3,0c-1.2,0.3-2.4,0.4-3.7,0.4c-0.1,0-0.1,0-0.2,0c0.3-0.9,0.5-1.9,0.5-2.9   c0-4.8-4.3-8.8-10.2-10.3c2.2-2,5.8-3.4,9.9-3.4c6.8,0,12.3,3.7,12.3,8.3C67.4,12.9,66.2,14.9,64,16.4z"/>
	<circle class="st0" cx="34.2" cy="16.1" r="2.1"/>
	<circle class="st0" cx="40.6" cy="16.1" r="2.1"/>
	<circle class="st0" cx="47" cy="16.1" r="2.1"/>
	<path class="st0" d="M21.5,31.7c1.3-1.6,2.1-3.7,2.1-6c0-5.2-4.3-9.5-9.5-9.5s-9.5,4.3-9.5,9.5c0,2.3,0.8,4.3,2.1,6   C4.2,34.2,0,39.5,0,48.4c0,1.9,1.7,3.2,4.9,4.1c2.4,0.6,5.7,1,9.1,1c3.3,0,14.1-0.4,14.1-5.1C28.2,39.5,24,34.1,21.5,31.7z    M14.1,18.8c3.8,0,7,3.1,7,7s-3.1,7-7,7s-7-3.1-7-7S10.2,18.8,14.1,18.8z M14.1,50.9c-7.6,0-11.5-1.7-11.5-2.6c0-8,3.8-12.8,6-14.9   c1.6,1.1,3.5,1.8,5.5,1.8s4-0.7,5.5-1.8c2.2,2.1,6,6.9,6,14.9C25.6,49.2,21.7,50.9,14.1,50.9z"/>
	<path class="st0" d="M88.3,31.7c1.3-1.6,2.1-3.7,2.1-6c0-5.2-4.3-9.5-9.5-9.5s-9.5,4.3-9.5,9.5c0,2.3,0.8,4.3,2.1,6   c-2.5,2.5-6.7,7.8-6.7,16.7c0,1.9,1.7,3.2,4.9,4.1c2.4,0.6,5.7,1,9.1,1c3.3,0,14.1-0.4,14.1-5.1C95,39.5,90.9,34.1,88.3,31.7z    M80.9,18.8c3.8,0,7,3.1,7,7s-3.1,7-7,7c-3.8,0-7-3.1-7-7S77.1,18.8,80.9,18.8z M80.9,50.9c-7.6,0-11.5-1.7-11.5-2.6   c0-8,3.8-12.8,6-14.9c1.6,1.1,3.5,1.8,5.5,1.8c2.1,0,4-0.7,5.5-1.8c2.2,2.1,6,6.9,6,14.9C92.4,49.2,88.5,50.9,80.9,50.9z"/>
</g>
</svg>