<!-- Generator: Adobe Illustrator 25.0.1, SVG Export Plug-In  -->
<svg version="1.1" xmlns="http://www.w3.org/2000/svg" xmlns:xlink="http://www.w3.org/1999/xlink" x="0px" y="0px" width="76.1px"
	 height="76.1px" viewBox="0 0 76.1 76.1" style="overflow:visible;enable-background:new 0 0 76.1 76.1;" xml:space="preserve">
<style type="text/css">
	.st0{fill:#333333;}
</style>
<defs>
</defs>
<g>
	<g>
		<circle class="st0" cx="38" cy="22.6" r="5.3"/>
		<path class="st0" d="M42.4,37.1v17.4c0,2.4-2,4.4-4.4,4.4c-2.4,0-4.4-2-4.4-4.4V37.1c0-2.4,2-4.4,4.4-4.4
			C40.5,32.7,42.4,34.6,42.4,37.1z"/>
		<path class="st0" d="M38,0C17,0,0,17,0,38s17,38,38,38s38-17,38-38S59.1,0,38,0z M60.2,60.2c-12.1,12.3-31.9,12.5-44.2,0.4
			S3.4,28.6,15.6,16.3c0.1-0.1,0.3-0.3,0.4-0.4C28,3.6,47.8,3.4,60.2,15.6s12.5,31.9,0.4,44.2C60.4,59.9,60.3,60,60.2,60.2z"/>
		<path class="st0" d="M38,0C17,0,0,17,0,38s17,38,38,38s38-17,38-38S59.1,0,38,0z M60.2,60.2c-12.1,12.3-31.9,12.5-44.2,0.4
			S3.4,28.6,15.6,16.3c0.1-0.1,0.3-0.3,0.4-0.4C28,3.6,47.8,3.4,60.2,15.6s12.5,31.9,0.4,44.2C60.4,59.9,60.3,60,60.2,60.2z"/>
	</g>
</g>
</svg>
