<!-- Generator: Adobe Illustrator 25.1.0, SVG Export Plug-In  -->
<svg version="1.1" xmlns="http://www.w3.org/2000/svg" xmlns:xlink="http://www.w3.org/1999/xlink" x="0px" y="0px" width="59.1px" height="64px" viewBox="0 0 59.1 64" style="overflow:visible;enable-background:new 0 0 59.1 64;" xml:space="preserve">
<style type="text/css">
	.st0{fill:#880364;}
</style>
<defs>
</defs>
<path class="st0" d="M48.1,0H14.7c-0.3,0-0.5,0.1-0.7,0.3L0.3,13.9C0.1,14.1,0,14.4,0,14.6V63c0,0.6,0.4,1,1,1h47.1c0.5,0,1-0.4,1-1  V1C49.1,0.5,48.6,0,48.1,0z M13.7,3.4v10.2H3.4L13.7,3.4z M47.1,62H2V15.6h12.6c0.5,0,1-0.5,1-1V2h31.4L47.1,62L47.1,62z"/>
<rect x="22.2" y="11.6" class="st0" width="22.6" height="2.1"/>
<rect x="4.3" y="19.2" class="st0" width="40.5" height="2.1"/>
<rect x="4.3" y="26.9" class="st0" width="40.5" height="2.1"/>
<rect x="4.3" y="34.6" class="st0" width="40.5" height="2.1"/>
<rect x="4.3" y="42.2" class="st0" width="40.5" height="2.1"/>
<rect x="4.3" y="49.9" class="st0" width="15.5" height="2.1"/>
<rect x="29" y="49.9" class="st0" width="15.5" height="2.1"/>
<path class="st0" d="M59,12.6c0-0.1,0-0.2-0.1-0.3L56.2,5c-0.2-0.4-0.5-0.7-0.9-0.7l0,0c-0.4,0-0.8,0.3-0.9,0.7l-2.8,7.3  c0,0.1,0,0.2-0.1,0.3c0,0,0,0,0,0v48.9c0,1.4,1.1,2.5,2.5,2.5h2.6c1.4,0,2.5-1.1,2.5-2.5L59,12.6C59.1,12.6,59,12.6,59,12.6z   M57.1,51.5h-3.5V13.7h3.5V51.5z M53.5,53.5h3.5v1h-3.5V53.5z M55.3,8.2l1.3,3.5H54L55.3,8.2z M56.6,62H54c-0.3,0-0.5-0.2-0.5-0.5  v-5h3.5v5C57.1,61.8,56.8,62,56.6,62z"/>
</svg>