<!-- Generator: Adobe Illustrator 25.0.1, SVG Export Plug-In  -->
<svg version="1.1" xmlns="http://www.w3.org/2000/svg" xmlns:xlink="http://www.w3.org/1999/xlink" x="0px" y="0px" width="80px"
	 height="49px" viewBox="0 0 80 49" style="overflow:visible;enable-background:new 0 0 80 49;" xml:space="preserve">
<style type="text/css">
	.st0{fill:#1E75DF;}
</style>
<defs>
</defs>
<path class="st0" d="M80,13c0-0.6-0.4-1-1-1H61v-1c2.7-0.6,4.3-3.2,3.7-5.9c-0.4-1.9-1.9-3.3-3.7-3.7V1c0-0.6-0.4-1-1-1h-8
	c-0.6,0-1,0.4-1,1v11H36V8.3c0-4-3.3-7.3-7.3-7.3H17.3c-4,0-7.3,3.3-7.3,7.3V12H1c-0.6,0-1,0.4-1,1v34c0,0.6,0.4,1,1,1s1-0.4,1-1V18
	h8.8c1.2,2.5,3.8,4,6.5,4H22v6h-8c-2.2,0-4,1.8-4,4s1.8,4,4,4h8v7.3l-8.4,3.7c-0.5,0.2-0.7,0.8-0.5,1.3c0.2,0.5,0.8,0.7,1.3,0.5l0,0
	l8.6-3.8l8.6,3.8c0.5,0.2,1.1,0,1.3-0.5c0.2-0.5,0-1.1-0.5-1.3L24,43.3V36h8c2.2,0,4-1.8,4-4s-1.8-4-4-4h-8v-6h4.7
	c2.7,0,5.3-1.5,6.5-4H56v29c0,0.6,0.4,1,1,1h22c0.6,0,1-0.4,1-1V18c0-0.2-0.1-0.3-0.2-0.5c0.1-0.2,0.1-0.3,0.2-0.5V13z M34,32
	c0,1.1-0.9,2-2,2H14c-1.1,0-2-0.9-2-2s0.9-2,2-2h18C33.1,30,34,30.9,34,32z M58,28h20v8H58V28z M62.9,6.2c0,1.2-0.8,2.3-1.9,2.7V3.5
	C62.1,3.9,62.9,5,62.9,6.2z M53,2h6v10h-6V2z M2,16v-2h8v0.7c0,0.4,0,0.9,0.1,1.3H2z M28.7,20H17.3c-2.9,0-5.3-2.4-5.3-5.3V8.3
	C12,5.4,14.4,3,17.3,3h11.4C31.6,3,34,5.4,34,8.3v6.4C34,17.6,31.6,20,28.7,20z M35.9,16c0.1-0.4,0.1-0.9,0.1-1.3V14h42v2H35.9z
	 M78,18v8H58v-8H78z M58,46v-8h20v8H58z"/>
<path class="st0" d="M66,23h4c0.6,0,1-0.4,1-1s-0.4-1-1-1h-4c-0.6,0-1,0.4-1,1S65.4,23,66,23z"/>
<path class="st0" d="M70,31h-4c-0.6,0-1,0.4-1,1s0.4,1,1,1h4c0.6,0,1-0.4,1-1S70.6,31,70,31z"/>
<path class="st0" d="M70,41h-4c-0.6,0-1,0.4-1,1s0.4,1,1,1h4c0.6,0,1-0.4,1-1S70.6,41,70,41z"/>
</svg>
