<!-- Generator: Adobe Illustrator 25.0.1, SVG Export Plug-In  -->
<svg version="1.1" xmlns="http://www.w3.org/2000/svg" xmlns:xlink="http://www.w3.org/1999/xlink" x="0px" y="0px" width="46.3px"
	 height="65.6px" viewBox="0 0 46.3 65.6" style="overflow:visible;enable-background:new 0 0 46.3 65.6;" xml:space="preserve">
<style type="text/css">
	.st0{fill:#002857;}
</style>
<defs>
</defs>
<path class="st0" d="M16.7,65.6c-0.6,0-1.1-0.5-1.1-1.1v-6.6h-5.3c-3,0-5.5-2.5-5.5-5.6v-5.6l-2.5-0.5c-1-0.1-1.7-0.6-2.1-1.4
	C-0.2,44-0.1,43,0.5,42.2L5.1,34v-0.1c0-5.7,2.2-11.1,6.3-14.9c0.3-0.3,0.6-0.5,0.9-0.8l0.6-0.5l-0.7-0.3C6.8,15,5.3,10.1,4.9,7.4
	C4.8,6.5,5,5.6,5.6,4.8c0.6-0.7,1.5-1.1,2.5-1.1h3.8l0-0.5c0-0.9,0.4-1.7,1-2.3C13.5,0.3,14.2,0,15.1,0h20.6c0.8,0,1.6,0.3,2.2,0.9
	c0.6,0.6,0.9,1.4,1,2.3l0,0.5H43c1,0,1.9,0.4,2.5,1.1c0.6,0.7,0.9,1.7,0.7,2.6c-0.5,3.2-2.4,8.9-9.7,10.7l-0.1,0l-0.3,0l-0.1,0.3
	c-1.6,4.1-3.7,6.8-6.4,8.2l-0.3,0.1l0,0.3c0.1,1.8,0.5,4.2,1.4,5.2l0.1,0.2l0.2,0c1.7,0,3,1.4,3,3v3.3c0,0.6-0.5,1.1-1.1,1.1H17.8
	c-0.6,0-1.1-0.5-1.1-1.1v-3.3c0-1.7,1.4-3,3-3l0.2,0l0.1-0.2c0.9-1,1.3-3.3,1.4-5.1l0-0.3l-0.3-0.1c-2.5-1.2-4.6-3.7-6.2-7.3
	l-0.3-0.6l-0.5,0.4c-0.3,0.2-0.6,0.5-0.9,0.8c-3.9,3.5-6.2,8.6-6.2,14c0,0.1,0,0.1,0,0.2l0,0.1c0,0.2,0,0.4-0.1,0.5L2,43.9l0.7,0.2
	l3.5,0.7c0.5,0.1,0.9,0.5,0.9,1v6.4c0,1.9,1.5,3.5,3.4,3.5h6.3c0.6,0,1.1,0.5,1.1,1.1v6.6h19v-3.9c0-5.9,1.4-11.6,4.2-16.6
	c1.5-2.7,2.3-5.9,2.3-9c0-5.1-2.1-10-5.7-13.5c0.1-0.1,0.1-0.3,0.2-0.4c0.6-0.2,1.2-0.4,1.8-0.6c3.7,3.8,5.8,9.1,5.8,14.5
	c0,3.5-0.9,7-2.6,10.1c-2.5,4.6-3.9,10-3.9,15.6v5c0,0.6-0.5,1.1-1.1,1.1H16.7z M19.8,34.6c-0.5,0-0.9,0.4-0.9,0.9v2.2h13.3v-2.2
	c0-0.5-0.4-0.9-0.9-0.9H19.8z M23.6,28c-0.1,1.4-0.4,2.7-0.8,3.8l-0.3,0.7h5.9l-0.3-0.7c-0.4-1.1-0.7-2.4-0.8-3.8l0-0.5l-0.5,0.1
	c-0.5,0.1-1,0.1-1.4,0.1c-0.4,0-0.8,0-1.2-0.1l-0.5-0.1L23.6,28z M15.1,2.1c-0.2,0-0.4,0-0.6,0.3c-0.3,0.3-0.4,0.6-0.4,1
	c0.2,3.7,1.4,22,11.3,22s11.2-18.4,11.3-22c0-0.4-0.1-0.8-0.4-1c-0.2-0.2-0.5-0.3-0.6-0.3H15.1z M38.7,6.3c-0.3,3.1-0.8,6-1.4,8.6
	l-0.3,1l0.9-0.4c4.4-1.8,5.8-5.5,6.2-8.3c0.1-0.3,0-0.6-0.3-0.9c-0.1-0.2-0.4-0.4-0.9-0.4h-4.3L38.7,6.3z M8.1,5.8
	c-0.5,0-0.7,0.2-0.9,0.4C7.1,6.5,7,6.8,7,7.1c0.4,2.7,1.8,6.3,5.8,8.2l1,0.4l-0.3-1c-0.7-2.6-1.1-5.4-1.4-8.4l0-0.5H8.1z"/>
<path class="st0" d="M22.5,16.3c-0.1,0-0.3,0-0.4-0.1c-0.2-0.1-0.3-0.4-0.2-0.6l0.5-3.1l-2.3-2.2C20,10.1,20,9.8,20.1,9.6
	c0.1-0.2,0.3-0.4,0.5-0.4l3.1-0.5l1.4-2.8c0.1-0.2,0.3-0.3,0.6-0.3c0.2,0,0.4,0.1,0.6,0.3l1.4,2.8l3.1,0.5c0.2,0,0.4,0.2,0.5,0.4
	c0.1,0.2,0,0.5-0.2,0.6l-2.2,2.2l0.5,3.1c0,0.2-0.1,0.5-0.2,0.6c-0.1,0.1-0.2,0.1-0.4,0.1c-0.1,0-0.2,0-0.3-0.1l-2.8-1.5l-2.8,1.5
	C22.7,16.2,22.6,16.3,22.5,16.3z M25.6,13.4c0.1,0,0.2,0,0.3,0.1l2,1l-0.4-2.2c0-0.2,0-0.4,0.2-0.5l1.6-1.5l-2.2-0.3
	c-0.2,0-0.4-0.2-0.5-0.3l-1-2l-1,2c-0.1,0.2-0.3,0.3-0.5,0.3L22,10.2l1.6,1.5c0.1,0.1,0.2,0.3,0.2,0.5l-0.4,2.2l2-1
	C25.4,13.4,25.5,13.4,25.6,13.4z"/>
</svg>
