<!-- Generator: Adobe Illustrator 25.1.0, SVG Export Plug-In  -->
<svg version="1.1" xmlns="http://www.w3.org/2000/svg" xmlns:xlink="http://www.w3.org/1999/xlink" x="0px" y="0px" width="66.2px"
	 height="66.2px" viewBox="0 0 66.2 66.2" style="overflow:visible;enable-background:new 0 0 66.2 66.2;" xml:space="preserve">
<style type="text/css">
	.st0{fill:#880364;}
</style>
<defs>
</defs>
<path class="st0" d="M62.9,15.5H49.7v-3.3c0-3.3-1.8-6.4-5-8.7C41.6,1.2,37.5,0,33.1,0s-8.5,1.2-11.6,3.4c-3.2,2.3-5,5.4-5,8.7v3.3
	H3.3c-1.8,0-3.3,1.7-3.3,3.9v14.9c0,0.5,0.4,1,0.9,1.1l0.2,0V63c0,1.8,1.5,3.3,3.3,3.3h57.5c1.8,0,3.3-1.5,3.3-3.3V35.4l0.2,0
	c0.5-0.1,0.9-0.6,0.9-1.1V19.3C66.2,17.2,64.8,15.5,62.9,15.5z M45.3,15.5v-2.2h2.2v2.2H45.3z M23.2,12.1c0-3,4.6-5.5,9.9-5.5
	s9.9,2.5,9.9,5.5v3.3H23.2V12.1z M33.1,2.2c7.4,0,13.5,3.9,14.3,8.8h-2.2c-0.8-3.8-5.8-6.6-12-6.6s-11.2,2.8-12,6.6h-2.2
	C19.7,6.1,25.7,2.2,33.1,2.2z M18.8,13.2H21v2.2h-2.2V13.2z M2.2,19.3c0-0.9,0.5-1.7,1.1-1.7h59.6c0.6,0,1.1,0.8,1.1,1.7v14
	l-25.4,5.3c0-0.6-0.5-1-1.1-1h-8.8c-0.6,0-1.1,0.5-1.1,1L2.2,33.3V19.3z M29.8,42v-2.2h6.6V42H29.8z M30.9,44.2h4.4v2.2h-4.4V44.2z
	 M62.9,63c0,0.6-0.5,1.1-1.1,1.1H4.4c-0.6,0-1.1-0.5-1.1-1.1V35.8l24.3,5v2.2c0,0.6,0.5,1.1,1.1,1.1v3.3c0,0.6,0.5,1.1,1.1,1.1h6.6
	c0.6,0,1.1-0.5,1.1-1.1v-3.3c0.6,0,1.1-0.5,1.1-1.1v-2.2l24.3-5V63z"/>
</svg>
