<!-- Generator: Adobe Illustrator 25.0.1, SVG Export Plug-In  -->
<svg version="1.1" xmlns="http://www.w3.org/2000/svg" xmlns:xlink="http://www.w3.org/1999/xlink" x="0px" y="0px" width="66.2px" height="87.2px" viewBox="0 0 66.2 87.2" style="overflow:visible;enable-background:new 0 0 66.2 87.2;" xml:space="preserve">
<style type="text/css">
	.st0{fill:#007EB4;}
</style>
<defs>
</defs>
<g>
	<path class="st0" d="M42.7,16.9c0-0.1,0-0.2,0.1-0.3c0,0,0,0,0-0.1c0-0.1,0-0.2,0.1-0.3c0.2-0.6,0.3-1.3,0.6-1.9   c0.2-0.4,0.7-0.6,1.1-0.5v0c0.6,0.2,0.9,0.3,1.1,0.5c0.1,0.1,0.2,0.1,0.7,0.1c0.6-1.2,1-2.3,1.3-3.3c0.3-1.2,0.3-2.4,0.3-4   c0-0.2,0-0.4,0-0.6c0-0.8,0-1.4-0.5-2c-1.6-1.8-3.2-2.7-4.6-2.8C42,1.8,41.2,2,40.6,2.4c-0.6,0.4-1.2,1-1.5,1.8   c-0.8,1.6-0.8,4,0.1,6.8c0.7,1.9-0.6,3.3-1.2,4.1c-0.1,0.1-0.2,0.2-0.2,0.2c0,0-0.1,0.1-0.1,0.1c0.8,1.4,1.9,3,2.9,3.9   c0.4,0.3,0.7,0.6,1,0.6c0.1,0,0.3-0.1,0.4-0.2C42.3,19.1,42.5,18.3,42.7,16.9L42.7,16.9L42.7,16.9z M45.5,30.6   c-0.7,0.4-1.4,0.7-2.1,1c-1.1,0.4-2.2,0.7-3.4,0.8c0,0,0,0,0,0c-0.3,0-0.5-0.1-0.5-0.4l-0.8-6.3l0,0c0,0,0-0.1,0-0.1   c0-0.3,0.3-0.4,0.5-0.4c2,0.3,3.5,0.3,4.7,0c0.9-0.2,1.7-0.6,2.3-1c0.2-2.7-0.1-5.1-1.8-6.3c-0.2,1.4-0.5,2.3-1,2.9   c-0.6,0.8-1.3,1.1-2.1,1c-0.7-0.1-1.3-0.5-2-1c-1.3-1.1-2.5-3-3.4-4.6l-12.2,4c-0.1,0-0.1,0-0.2,0c-2,0.3-2.2,1.9-1.8,4.3   c0.1,0.9,0.3,1.9,0.5,3c0.2,1.2,0.5,2.4,0.7,3.7c0.2,1,0.2,2.2,0.2,3.5c0.1,2.1,0.1,4.3,0.8,5.2c0.4,0.5,1.2,0.5,2.8-0.6   c0-1.1-0.3-1.5-0.8-2c-0.8-0.9-1.7-1.9-1.6-4.9c0.1-2.1,0.3-4.4,0.6-6.7c0.1-0.9,0.2-1.8,0.3-2.4c0-0.5,0.5-0.8,0.9-0.8l3.9,0   c0.5,0,0.8,0.3,0.9,0.8c0.4,2.1,0.8,5.8,0.8,9.3c0,2.9-0.2,5.6-0.7,7.3c0,0.1-0.1,0.2-0.2,0.3l0,0c-0.1,0.2-0.3,0.4-0.4,0.5   c-1.2,1.5-1.7,3.1-1.8,4.4c0,1.2,0.4,2.2,1.1,2.9c0,0,0.1,0,0.1,0.1c0.8,0.5,2.5,1.8,4.6,3.3c3.4,2.6,8,6,11.2,7.8   c1.2-0.7,2.3-1.6,3.2-2.5c0.8-0.8,1.5-1.7,2-2.7c-0.5-0.5-1.3-1.2-2.5-2.3c-0.2-0.2-0.5-0.5-0.8-0.7c0,0,0,0,0,0L41,44.1   c-0.2-0.2-0.3-0.5-0.3-0.8c0.2-1.5,0.9-2.8,1.5-4.2c0.1-0.2,0.2-0.4,0.3-0.7c0.1-0.2,0.1-0.2,0.3-0.6c0.9-1.8,2.4-5.1,2.5-6.4   C45.4,31.2,45.4,30.9,45.5,30.6L45.5,30.6z M52.4,79.5c0.3,0,0.6-0.1,0.9-0.2c0.3-0.1,0.6-0.4,0.8-0.6c-0.5-3-0.8-7.2-1.1-10.9   c-0.3-4.3-0.6-8.2-1-8.9c-0.1-0.2-0.1-0.3-0.1-0.5c0-0.9,0-1.6,0-2.2c0-0.2,0-0.3,0-0.5c-0.4,0.6-0.9,1.2-1.5,1.8   c-0.9,0.9-1.9,1.7-2.9,2.4c0,0.1,0,0.3,0,0.4l0,0c-1,4,1.3,8.2,1.8,9.3c0.1,0.1,0.1,0.2,0.1,0.3c0.6,1.2,1.1,2.6,1.6,4.1   c0.6,1.7,1,3.5,1.3,4.9C52.3,79.1,52.4,79.3,52.4,79.5L52.4,79.5z M55.2,80.2c-0.4,0.3-0.8,0.6-1.2,0.8c-0.5,0.2-0.9,0.3-1.4,0.3   c0,0.3,0,0.7,0,1c0,0.9,0,1.9,0.3,3c1.1,0,2.6-0.3,4.1-0.8c2.1-0.7,4.3-1.6,5.8-2.6c0.1-0.1,0.3-0.2,0.5-0.3   c0.7-0.4,1.1-0.6,1.1-1.2c-0.3-0.1-0.6,0-1,0.1c-0.7,0.2-1.5,0.4-2.7,0.4C58.9,81.1,56.8,80.6,55.2,80.2L55.2,80.2z M9.8,56.4   c-0.3,0.5-0.5,0.9-0.6,1.4c-0.1,0.5-0.1,0.9,0,1.5c0.1,0,0.2-0.1,0.3-0.1c1.2-0.3,2.7-0.2,5.1,0.2c1.3,0.2,3.4,0.7,5.8,1.2   c4.6,1,10.1,2.3,11.9,1.9c0.2-0.2,0.6-0.7,1.1-1.3c-1-0.3-2.1-0.9-3-1.6c-0.6-0.5-1.2-1-1.6-1.6c-0.1,0-0.2,0-0.3,0   c0,0-0.1,0-0.1,0c-0.8-0.1-1.4-0.3-2-0.4c-1.1-0.3-2-0.5-3.7-0.4c-0.7,0-1.3,0.1-1.9,0.2c-1.5,0.2-2.9,0.3-4.8,0.1   c-0.8-0.1-2.1-0.3-3.2-0.5c-1.1-0.2-2.1-0.4-2.8-0.6C9.9,56.4,9.8,56.4,9.8,56.4L9.8,56.4z M7.4,60.1c-0.2-1-0.2-1.8,0-2.7   c0.1-0.7,0.4-1.4,0.7-2c-0.2-0.1-0.3-0.2-0.5-0.4c-0.5-0.4-1-0.7-1.7-0.9c-0.8,1-1.7,2.8-2.4,4.7C2.7,61.1,2,63.5,2,65   c0,0.4-0.1,0.7-0.1,0.9C2,66,2.1,66.1,2.2,66.3c0.1,0.1,0.1,0.1,0.1,0.1c0.1-0.1,0.1-0.3,0.2-0.5c0.2-0.4,0.3-0.9,0.7-1.4   c0,0,0,0,0-0.1c0.3-0.6,0.8-1.1,1.3-1.6c0.5-0.5,1-1,1.5-1.4C6.5,60.9,7,60.5,7.4,60.1L7.4,60.1z M29.6,55.6c0.2,1,1,1.8,1.9,2.5   c0.9,0.7,2.1,1.2,3.1,1.5c0.2-0.2,0.4-0.5,0.6-0.7c1-1.3,1.9-2.7,2.4-3.4c-1.4-1-2.8-2.1-4.1-3c-1.3-1-2.4-1.8-3.2-2.4   c-0.1,1.1-0.2,2.2-0.4,3.4C29.8,54.2,29.7,54.9,29.6,55.6L29.6,55.6z M46.9,16.3c-0.7,0-1.1,0-1.4-0.1c3.3,2.3,2.7,7.2,2,11.9   c-0.1,0.6-0.2,1.3-0.2,1.9c2.8-0.5,4.4-1.8,5.7-2.8c1.7-1.3,2.8-2.3,4.8-1.1l0,0c1.4,0.8,1.9,1.9,1.7,3.2l0,0   c-0.1,1.1-0.6,2.1-1.1,3l0,0c-0.1,0.2-0.4,0.4-0.7,0.5C57,33,56.4,33,55.8,33c-1.4,0.1-2.2,0.1-3.6,0.9c-0.6,0.3-1.1,0.6-1.6,0.9   c-1,0.5-1.9,1-3,1.6l0,0c-0.4,0.2-0.8,0.4-1.2,0.5c-0.6,0.3-1.1,0.5-1.4,0.7c-0.2,0.4-0.4,0.7-0.5,1l-0.3,0.6   c-0.1,0.2-0.2,0.4-0.3,0.7c-0.5,1.1-1.1,2.2-1.3,3.3l6.4,6l0,0c0.3,0.3,0.5,0.5,0.8,0.7c2.1,1.9,3,2.8,3.5,3.7   c0.4,0.8,0.4,1.5,0.4,2.7c0,0.5,0,1.1,0,1.9c0.6,1.4,0.9,5.2,1.2,9.4c0.3,3.8,0.6,7.9,1.1,10.9c1.5,0.3,3.3,0.7,4.7,0.8   c1,0,1.6-0.2,2.2-0.3c1-0.3,1.7-0.5,2.8,0.1l0,0c0.2,0.1,0.4,0.3,0.4,0.6c0.6,2.2-0.3,2.7-1.8,3.7c-0.1,0.1-0.3,0.2-0.5,0.3   c-1.6,1-3.9,2-6.2,2.7c-2,0.6-3.9,1-5.4,0.8c-0.4,0-0.7-0.3-0.8-0.6c-0.5-1.7-0.5-2.9-0.5-4.2c0-0.9,0-1.8-0.3-3   c-0.3-1.4-0.7-3.1-1.3-4.8c-0.4-1.4-1-2.8-1.5-3.9c0,0,0-0.1-0.1-0.2c-0.6-1.1-2.9-5.4-2.2-9.9c-1.8-1-4.1-2.5-6.4-4.1   c-0.6,0.9-1.5,2.2-2.4,3.4c-1.3,1.8-2.7,3.5-3.3,4c-0.1,0.1-0.2,0.2-0.4,0.2c-2.1,0.7-8.1-0.7-13-1.9c-2.3-0.5-4.4-1-5.6-1.2   c-2.2-0.3-3.5-0.4-4.4-0.2c-0.9,0.2-1.7,0.8-2.8,1.8c-0.4,0.4-0.9,0.8-1.4,1.3c-0.4,0.4-0.8,0.9-1,1.3c0,0,0,0,0,0.1   c-0.3,0.5-0.4,0.9-0.5,1.2C4.1,66.8,4,67,3.9,67.2c-0.5,1.1-1.1,1.4-2.8,0.6l0,0c-0.1-0.1-0.2-0.1-0.3-0.3   c-0.2-0.2-0.3-0.4-0.4-0.5c-0.2-0.2-0.3-0.3-0.4-0.6c-0.1-0.2,0-0.4,0-0.6c0-0.1,0.1-0.4,0.1-0.9c0.1-1.7,0.7-4.3,1.6-6.7   c0.9-2.3,2-4.5,3.1-5.7l0,0c0.2-0.2,0.5-0.3,0.8-0.3c1.5,0.2,2.3,0.8,3.1,1.4c0.5,0.4,1,0.8,1.8,1c0.6,0.2,1.6,0.4,2.6,0.6   c1.1,0.2,2.3,0.4,3.1,0.5c1.7,0.2,3,0,4.4-0.1c0.6-0.1,1.3-0.1,1.9-0.2c1.9-0.1,3,0.1,4.2,0.4c0.3,0.1,0.6,0.1,0.9,0.2   c0.1-0.9,0.2-1.9,0.3-2.9c0.2-1.5,0.4-3,0.5-4.4c-1.1-1-1.6-2.5-1.6-4.2c0-1.4,0.5-2.9,1.4-4.4c0,0-0.1,0.1-0.1,0.1   c-3,2.1-4.7,1.9-5.7,0.4c-1-1.4-1-3.8-1.1-6.2c0-1.2-0.1-2.3-0.2-3.3c-0.2-1.3-0.4-2.5-0.7-3.6c-0.2-1.1-0.4-2.2-0.6-3.1   c-0.5-3.4-0.1-5.8,3.3-6.4l13.2-4.3c0,0,0.1-0.1,0.1-0.1c0.4-0.5,1.2-1.3,0.9-2.3c-1.1-3.3-1-6.1,0-8.1c0.5-1.1,1.3-2,2.2-2.6   c1-0.6,2.1-0.9,3.3-0.8c1.9,0.1,3.9,1.2,5.9,3.4c1,1.1,1,2,1,3.2c0,0.2,0,0.4,0,0.5c0,1.7,0,3.1-0.3,4.4c-0.3,1.4-0.8,2.7-1.7,4.2   C47.6,16.1,47.3,16.3,46.9,16.3L46.9,16.3z M28.6,39.7c0,0.1,0,0.1,0,0.2c0.1-0.2,0.3-0.4,0.5-0.7c0.1-0.2,0.2-0.3,0.4-0.5   c0.4-1.5,0.6-3.9,0.6-6.5c0-3-0.3-6.1-0.6-8.2l-2.3,0c-0.1,0.6-0.1,1.1-0.2,1.7c-0.3,2.2-0.5,4.5-0.6,6.5c-0.1,2.3,0.6,3,1.1,3.6   C28.2,36.7,28.9,37.4,28.6,39.7L28.6,39.7L28.6,39.7z M47.2,32c-0.1,0.8-0.5,1.9-1,3c0.2-0.1,0.4-0.2,0.6-0.3h0l0,0   c1.1-0.5,2-1,2.9-1.5c0.5-0.3,1-0.6,1.6-0.9c1.8-0.9,2.8-1,4.4-1.1c0.4,0,0.9-0.1,1.4-0.1c0.3-0.6,0.6-1.3,0.7-1.9v0l0,0   c0-0.5-0.1-1-0.8-1.4c0,0-0.1,0-0.1,0c-0.9-0.5-1.7,0.1-2.8,1C52.7,30,50.7,31.5,47.2,32z"/>
</g>
</svg>