<!-- Generator: Adobe Illustrator 25.0.1, SVG Export Plug-In  -->
<svg version="1.1" xmlns="http://www.w3.org/2000/svg" xmlns:xlink="http://www.w3.org/1999/xlink" x="0px" y="0px" width="68.5px"
	 height="68.5px" viewBox="0 0 68.5 68.5" style="overflow:visible;enable-background:new 0 0 68.5 68.5;" xml:space="preserve">
<style type="text/css">
	.st0{fill:#002857;}
</style>
<defs>
</defs>
<path class="st0" d="M5.5,68.5C2.5,68.5,0,66,0,62.9V49.2c0-3.1,2.5-5.5,5.5-5.5h2.3c0.2,0,0.5,0.1,0.7,0.3l0.7,0.7v-2.2l-0.1-0.1
	c-2.1-1.2-3.3-3.4-3.3-5.8v-2.3c0-2.4,1.3-4.6,3.3-5.8l0.1-0.1V0.9C9.2,0.4,9.6,0,10.1,0h57.4c0.5,0,0.9,0.4,0.9,0.9v43.6
	c0,1.8-1.5,3.2-3.2,3.2H24.7l0,0.2c0.1,0.4,0.1,0.7,0.1,1.1v13.8c0,3-2.5,5.5-5.5,5.5l0,0H5.5z M13.4,49.5v17h5V51.4
	c0-0.4,0.2-0.7,0.5-0.9l4-2l0-0.1c-0.3-1.7-1.8-2.9-3.6-2.9h-1.9L13.4,49.5z M5.5,45.5c-1.7,0-3.2,1.2-3.6,2.9l0,0.1l4,2
	c0.3,0.2,0.5,0.5,0.5,0.9v15.1h5v-17l-4-4H5.5z M1.9,62.9c0,1.5,1,2.9,2.4,3.4l0.3,0.1V52l-2.7-1.3V62.9z M20.3,52v14.4l0.3-0.1
	c1.4-0.5,2.4-1.9,2.4-3.4V50.7L20.3,52z M19.3,43.6c1.7,0,3.4,0.8,4.4,2.2l0.1,0.1h41.5c0.7,0,1.3-0.6,1.3-1.3V1.9H11.1v25.8l0.2,0
	c0.4-0.1,0.8-0.1,1.1-0.1c1.8,0,3.5,0.7,4.7,2s1.9,2.9,1.9,4.7v2.3c0,0.4,0,0.8-0.1,1.2c-0.6,3.2-3.3,5.5-6.5,5.5
	c-0.4,0-0.8,0-1.2-0.1l-0.2,0v1.5c0,0.7,0.6,1.3,1.3,1.3h1.9l2-2c0.2-0.2,0.4-0.3,0.7-0.3H19.3z M12.4,29.4c-2.6,0-4.8,2.1-4.8,4.8
	v2.3c0,2.6,2.1,4.8,4.8,4.8c2.6,0,4.8-2.1,4.8-4.8v-2.3C17.2,31.6,15.1,29.4,12.4,29.4z"/>
<polygon class="st0" points="25.3,21.4 25.3,18 24.1,18 24.1,16.1 28.3,16.1 28.3,18 27.1,18 27.1,21.4 "/>
<rect x="34.6" y="9.3" transform="matrix(0.8659 -0.5002 0.5002 0.8659 -0.3754 19.1675)" class="st0" width="1.9" height="1.9"/>
<rect x="30" y="5.6" transform="matrix(0.4998 -0.8661 0.8661 0.4998 9.8448 30.054)" class="st0" width="1.9" height="1.9"/>
<rect x="24.1" y="4.6" class="st0" width="1.9" height="1.9"/>
<rect x="18.5" y="6.7" transform="matrix(0.8661 -0.4998 0.4998 0.8661 -1.2178 10.7527)" class="st0" width="1.9" height="1.9"/>
<rect x="14.7" y="11.3" transform="matrix(0.5002 -0.8659 0.8659 0.5002 -2.7873 19.7151)" class="st0" width="1.9" height="1.9"/>
<rect x="13.8" y="17.2" class="st0" width="1.9" height="1.9"/>
<path class="st0" d="M43.4,43.2c-2.4,0-4.4-2-4.4-4.4v-1.1c0-1.4-1.1-2.5-2.5-2.5S34,36.3,34,37.7v1.1c0,2.4-2,4.4-4.4,4.4
	s-4.4-2-4.4-4.4v-7.1h-1.3c-1.8,0-3.2-1.5-3.2-3.2v-2.3c0-0.2,0.1-0.4,0.2-0.6l1.5-1.7l-0.2-0.1c-2.9-1.7-4.3-5.1-3.6-8.3
	c0.4-2.1,1.8-4,3.6-5.1c1.2-0.7,2.6-1.1,4-1.1c2.8,0,5.3,1.4,6.7,3.8c2.2,3.7,1,8.5-2.7,10.8L30,23.8l1.5,1.7
	c0.1,0.2,0.2,0.4,0.2,0.6v2.3c0,1.8-1.5,3.2-3.2,3.2h-1.3v7.1c0,1.4,1.1,2.5,2.5,2.5s2.5-1.1,2.5-2.5v-1.1c0-2.4,2-4.4,4.4-4.4
	s4.4,2,4.4,4.4v1.1c0,1.4,1.1,2.5,2.5,2.5s2.5-1.1,2.5-2.5V28.1l-0.1-0.1c-5.3-2.7-7.9-8.8-6.3-14.5c1.5-5.3,6.4-9,12-9
	c1.2,0,2.3,0.2,3.4,0.5c6.6,1.9,10.4,8.8,8.6,15.4c-1.5,5.3-6.4,9-12,9c-1.2,0-2.3-0.2-3.4-0.5l-0.3-0.1v9.9
	C47.8,41.2,45.8,43.2,43.4,43.2z M22.6,28.5c0,0.7,0.6,1.3,1.3,1.3h4.6c0.7,0,1.3-0.6,1.3-1.3v-1.3h-7.3V28.5z M51.4,6.5
	c-5.4,0-9.9,4-10.5,9.4l0,0.2h10.5c0.5,0,0.9,0.4,0.9,0.9v10.5l0.2,0c5.3-0.6,9.3-5.1,9.3-10.4C62,11.2,57.3,6.5,51.4,6.5L51.4,6.5z
	 M47.8,26.9l0.1,0c0.8,0.3,1.5,0.5,2.3,0.5l0.2,0V18H41l0,0.2c0.3,3.1,2,5.9,4.6,7.6l0.3,0.2v-4.2h1.9V26.9z M26.2,11.1
	c-2.5,0-4.8,1.6-5.6,4c-1.1,3.1,0.5,6.5,3.6,7.6c0.1,0,0.2,0.1,0.3,0.2c0.2,0.2,0.3,0.4,0.3,0.6c0,0.3-0.1,0.5-0.2,0.7l-1,1.1h5.1
	l-1-1.1c-0.1-0.1-0.1-0.2-0.2-0.3c-0.2-0.5,0.1-1,0.6-1.2c1-0.4,1.9-1,2.6-1.9c2-2.4,1.7-5.9-0.5-8h0l-0.4-0.4
	c-0.5-0.4-1.1-0.8-1.8-1C27.5,11.2,26.9,11.1,26.2,11.1z"/>
<rect x="55.1" y="32.1" class="st0" width="8.8" height="1.9"/>
<rect x="55.1" y="36.7" class="st0" width="8.8" height="1.9"/>
<rect x="55.1" y="41.3" class="st0" width="8.8" height="1.9"/>
</svg>
