<!-- Generator: Adobe Illustrator 25.0.1, SVG Export Plug-In  -->
<svg version="1.1" xmlns="http://www.w3.org/2000/svg" xmlns:xlink="http://www.w3.org/1999/xlink" x="0px" y="0px" width="66.9px"
	 height="94.9px" viewBox="0 0 66.9 94.9" style="overflow:visible;enable-background:new 0 0 66.9 94.9;" xml:space="preserve">
<style type="text/css">
	.st0{fill:#2A7DE2;}
</style>
<defs>
</defs>
<path class="st0" d="M23.9,94.9c-5.1,0-10-2-13.7-5.5c-3.2-3.2-6.8-9-5.6-19.1c0.1-0.8,0.8-1.5,1.7-1.5c0.1,0,0.1,0,0.2,0
	c0.4,0.1,0.8,0.3,1.1,0.6S8,70.3,8,70.7C7.1,77.6,8.7,83.2,12.6,87c3.1,2.9,7.1,4.6,11.3,4.6c0.7,0,1.4,0,2.1-0.1
	c10.8-1.5,14.8-8.8,19.9-18.1c0.1-0.1,0.3-0.4,0.6-0.9c11.9-18.9,17.9-33.1,16.9-40.2c-1.3-9-5.6-16.8-12.1-22.1
	c-5.4-4.3-12.2-6.7-19.2-6.7c-1.6,0-3.1,0.1-4.7,0.4C10.2,6.1,1.3,19.2,3.8,38.7c0.1,0.4-0.1,0.9-0.3,1.2c-0.3,0.4-0.7,0.6-1.1,0.6
	c-0.1,0-0.1,0-0.2,0c-0.9,0-1.6-0.6-1.7-1.5C-2.2,17.9,8,3.1,27,0.4C28.7,0.1,30.4,0,32.1,0c7.7,0,15.3,2.7,21.3,7.5
	c7.1,5.7,11.9,14.3,13.4,24.3c0.8,5.7-1.5,17.6-17.2,42c-0.4,0.6-0.7,1-0.7,1.2c-5.3,9.7-9.9,18-22.4,19.8
	C25.6,94.8,24.8,94.9,23.9,94.9L23.9,94.9z"/>
<path class="st0" d="M21.9,73.2c-2.4,0-4.5-1.2-5.8-3.2c0,0-0.1-0.1-0.1-0.1c-0.4-0.8-0.1-1.8,0.8-2.2c0.2-0.1,0.5-0.2,0.7-0.2
	c0.6,0,1.2,0.4,1.5,0.9c0.6,0.9,1.6,1.5,2.7,1.5c0.1,0,0.2,0,0.3,0c1.2-0.1,2.3-0.9,2.6-2c1.1-2.8,1.7-4.7,2.2-6.3l0-0.1
	c0.9-3.5,2.4-6.7,4.5-9.6c1.3-1.9,2.6-3.7,4.1-5.4c3.8-4.7,6-7.7,4.1-11.2c-2.8-5.1-11.6-9.7-18.4-9.7c-1.1,0-2.1,0.1-3,0.3
	c-1,2.9-1.1,6-0.4,8.9c1,4.3,3.1,7.3,6.7,9.3c0.8,0.5,1.1,1.5,0.6,2.3c-0.3,0.5-0.9,0.8-1.5,0.8c-0.3,0-0.6-0.1-0.8-0.2
	c-4.4-2.5-7.1-6.2-8.3-11.4c-1.2-5.5-0.4-10.6,2.5-14.8c3.1-4.5,8.3-7.5,14.6-8.4c0.9-0.1,1.8-0.2,2.7-0.2c4.8,0,9.4,1.8,13.4,5.3
	c5.3,4.5,8.3,11.1,8.4,18.1c0,8.4-7,19.1-12.6,27.6c-1.8,2.7-3.1,4.8-4.1,6.4c-0.3,0.5-0.9,0.8-1.5,0.8c-0.3,0-0.5-0.1-0.8-0.2
	c-0.8-0.5-1.1-1.5-0.6-2.3c1.1-1.9,2.7-4.3,4.2-6.6c5.1-7.8,12-18.4,12-25.8c-0.1-6-2.8-11.7-7.3-15.6c-3.4-2.9-7.3-4.5-11.3-4.5
	c-0.7,0-1.4,0.1-2.1,0.2c-5.2,0.7-9.5,3.1-12.1,6.6c0.4,0,0.7,0,1.1,0c8.1,0,17.9,5.2,21.3,11.3c3.1,5.7-0.7,10.4-4.4,15
	c-1.4,1.6-2.7,3.4-3.9,5.1c-1.9,2.7-3.2,5.6-4.1,8.8c-0.5,1.5-1.1,3.6-2.3,6.7c-0.9,2.4-3,4-5.5,4.2C22.1,73.2,22,73.2,21.9,73.2z"
	/>
</svg>
