<!-- Generator: Adobe Illustrator 25.1.0, SVG Export Plug-In  -->
<svg version="1.1" xmlns="http://www.w3.org/2000/svg" xmlns:xlink="http://www.w3.org/1999/xlink" x="0px" y="0px" width="81.1px"
	 height="99.3px" viewBox="0 0 81.1 99.3" style="overflow:visible;enable-background:new 0 0 81.1 99.3;" xml:space="preserve">
<style type="text/css">
	.st0{fill:#510B76;}
</style>
<defs>
</defs>
<path class="st0" d="M35.3,99.3c-3.3,0-5.9-2.7-5.9-6l-0.5-10l-0.2,0c-0.4,0-0.8-0.1-1.1-0.2l-0.2,0l0,0.2c-0.5,2.4-2.7,4.2-5.2,4.2
	h-9c-2.9,0-5.3-2.4-5.3-5.4l-0.4-8.5l-0.2,0C3.3,73,0.4,69.8,0.4,66c-0.2-2-0.8-9.8,0.1-12.6c1.2-3.7,6.7-9.9,10.5-11.8l0.3-0.1
	l-0.2-0.2c-2.2-1.9-3.5-4.6-3.5-7.4c0-3.4,1.8-6.5,4.7-8.3l0.1,0l0-0.1c0-0.3,0.1-0.5,0.3-0.7c2-2.7,5.2-5.9,8-7.3l0.3-0.1l-0.2-0.2
	c-2.2-1.9-3.5-4.6-3.5-7.4c0-5.4,4.5-9.8,10.1-9.8c2.7,0,5.2,1,7.1,2.9c1.9,1.8,3,4.3,2.9,6.9c0,2.8-1.3,5.5-3.5,7.4l-0.2,0.2
	l0.3,0.1c2.6,1.2,5,3.2,6.7,5.4l0.1,0.2l0.2-0.2c2.2-2.5,4.5-4.5,6.5-5.4l0.3-0.1l-0.2-0.2c-2.2-1.9-3.5-4.6-3.5-7.4
	c0-5.4,4.5-9.8,10.1-9.8S64,4.4,64,9.8c0,2.8-1.3,5.5-3.5,7.4l-0.2,0.2l0.3,0.1c3.9,1.8,6.8,5,8,7.4c0.1,0.2,0.1,0.4,0.2,0.6l0,0.1
	l0.1,0.1c2.9,1.8,4.7,4.9,4.7,8.3c0,2.8-1.3,5.5-3.5,7.4l-0.2,0.2l0.3,0.1c3.8,1.9,9.4,8.1,10.5,11.8c1,3.2,0.1,12.4,0.1,12.8
	c0,3.7-2.9,6.8-6.8,7.3l-0.2,0l-0.4,8.6c0,1.4-0.6,2.7-1.6,3.8c-1,1-2.3,1.6-3.8,1.6h-9c-2.5,0-4.6-1.7-5.2-4.2l0-0.2l-0.2,0
	c-0.4,0.1-0.7,0.1-1.1,0.2l-0.2,0l-0.5,10.1c0,1.6-0.6,3.1-1.7,4.2c-1.1,1.1-2.6,1.8-4.2,1.8H35.3z M40.5,76.9
	c0.8,0,1.5,0.7,1.5,1.5v18.1h3.8c1.7,0,3-1.4,3-3.1l1.5-29c0-0.8,0.7-1.4,1.4-1.4l0.1,0c0.4,0,0.8,0.2,1,0.5s0.4,0.7,0.4,1
	l-0.8,15.8l0.2,0c0.7-0.1,1.2-0.3,1.7-0.6c1.8-1,3-2.8,3-4.9c0.4-4.2,0.8-11.4,0.1-13.7c-0.9-2.8-4.6-7.5-8.2-10.3
	c-1-0.8-1.9-1.3-2.6-1.7c-0.8-0.4-2.3-0.7-4-0.8c-0.7-0.1-1.3-0.6-1.3-1.4c0-0.7,0.5-1.4,1.2-1.5c3.9-0.8,6.7-4.2,6.7-8
	c0-4.5-3.8-8.2-8.5-8.2c-4.7,0-8.5,3.7-8.5,8.2c0,3.8,2.8,7.2,6.7,8c0.7,0.1,1.2,0.8,1.2,1.5c0,0.7-0.6,1.3-1.3,1.4
	c-1.7,0.1-3.1,0.4-4,0.8c-0.7,0.3-1.6,0.9-2.6,1.7c-3.6,2.8-7.4,7.5-8.2,10.3c-0.7,2.3-0.3,9.5,0.1,13.5c0,2.1,1.1,4,3,5
	c0.5,0.3,1,0.4,1.7,0.6l0.2,0l-0.8-15.8c0-0.4,0.1-0.8,0.4-1.1c0.3-0.3,0.6-0.5,1-0.5l0.1,0c0.7,0,1.4,0.6,1.4,1.4l1.5,28.9
	c0,1.8,1.3,3.2,3,3.2h3.8V78.4C39.1,77.6,39.7,76.9,40.5,76.9z M63.4,69.9c0.8,0,1.5,0.7,1.5,1.5v13.1h3c1.3,0,2.4-1.1,2.4-2.5
	l1.3-25c0-0.8,0.7-1.4,1.4-1.4l0.1,0c0.8,0,1.4,0.7,1.4,1.5l-0.7,13.4l0.3-0.1c2.1-0.5,3.6-2.4,3.6-4.4c0.3-3.7,0.7-9.8,0.1-11.7
	c-1-3.1-6.2-8.8-9.3-10.2c-0.7-0.3-1.9-0.6-3.4-0.7c-0.7-0.1-1.3-0.6-1.3-1.4c0-0.7,0.5-1.4,1.2-1.5c3.3-0.7,5.6-3.5,5.6-6.7
	c0-3.8-3.2-6.9-7.2-6.9c-3.9,0-7.2,3.1-7.2,6.9c0,3.2,2.4,6,5.6,6.7c0.7,0.1,1.2,0.8,1.2,1.5c0,0.7-0.6,1.3-1.3,1.4
	c-1.4,0.1-2.7,0.4-3.4,0.7c-1.6,0.7-4.1,2.8-6.2,5.3l-0.1,0.1l0.1,0.1c3.1,2.7,6.9,7.2,8,10.6c1.1,3.6,0.2,13.5,0.1,14.7
	c0,2.6-1.3,5.1-3.6,6.7l-0.1,0.1l0,0.1c0,1.5,1.1,2.6,2.4,2.6h3V71.3C62,70.5,62.6,69.9,63.4,69.9z M17.6,69.9
	c0.8,0,1.5,0.7,1.5,1.5v13.1h3c1.3,0,2.4-1.1,2.4-2.5l0-0.2l-0.1-0.1c-2.3-1.6-3.6-4.2-3.6-6.9c0-0.1-1.1-10.8,0.1-14.5
	c1.1-3.4,4.9-7.9,8-10.6l0.1-0.1l-0.1-0.1c-2.1-2.5-4.5-4.6-6.2-5.3c-0.7-0.3-1.9-0.6-3.4-0.7c-0.7-0.1-1.3-0.6-1.3-1.4
	c0-0.7,0.5-1.4,1.2-1.5c3.3-0.7,5.6-3.5,5.6-6.7c0-3.8-3.2-6.9-7.2-6.9s-7.2,3.1-7.2,6.9c0,3.2,2.4,6,5.6,6.7
	c0.7,0.2,1.2,0.8,1.2,1.5c0,0.7-0.6,1.3-1.3,1.4c-1.4,0.1-2.7,0.4-3.4,0.7c-3.1,1.3-8.3,7.1-9.3,10.2C2.7,56.2,3,62.4,3.3,65.9
	c0,2.2,1.5,4,3.6,4.6l0.3,0.1L6.5,57.1c0-0.8,0.6-1.5,1.4-1.5l0.1,0c0.7,0,1.4,0.6,1.4,1.4l1.3,24.9c0,1.4,1.1,2.6,2.4,2.6h3V71.3
	C16.2,70.5,16.8,69.9,17.6,69.9z M17.6,24.1c5.6,0,10.1,4.4,10.1,9.8c0,2.8-1.3,5.5-3.5,7.4L24,41.5l0.3,0.1c2.1,1,4.7,3.3,7,6
	l0.1,0.1l0.1-0.1c0.7-0.5,1.3-0.8,1.9-1.1l0.3-0.1l-0.3-0.2c-2.7-2.1-4.3-5.3-4.3-8.6c0-5.6,4.3-10.3,10-11l0.3,0l-0.1-0.3
	c0,0,0-0.1,0-0.1l0-0.1c-1.1-2-3.6-4.6-6.9-6.1c-0.7-0.3-1.9-0.6-3.4-0.7c-0.7-0.1-1.3-0.6-1.3-1.4c0-0.7,0.5-1.4,1.2-1.5
	c3.3-0.7,5.6-3.5,5.6-6.7c0-3.8-3.2-6.9-7.2-6.9S20.1,6,20.1,9.8c0,3.2,2.4,6,5.6,6.7c0.7,0.1,1.2,0.8,1.2,1.5
	c0,0.7-0.6,1.3-1.3,1.4c-1.4,0.1-2.7,0.4-3.4,0.7c-1.3,0.5-3,1.9-4.8,3.7L17,24.1h0.5L17.6,24.1z M53.9,2.9c-3.9,0-7.1,3.1-7.1,6.9
	c0,3.2,2.4,6,5.6,6.7c0.7,0.1,1.2,0.8,1.2,1.5c0,0.7-0.6,1.3-1.3,1.4c-1.4,0.1-2.7,0.4-3.4,0.7c-1.9,0.8-4.8,3.5-7,6.3l-0.2,0.3
	l0.3,0c5.7,0.7,9.9,5.4,9.9,11c0,3.4-1.6,6.5-4.3,8.6l-0.3,0.2l0.3,0.1c0.5,0.2,1.1,0.6,1.9,1.1l0.1,0.1l0.1-0.1c2.3-2.8,4.9-5,7-6
	l0.3-0.1l-0.2-0.2c-2.2-1.9-3.5-4.6-3.5-7.4c0-5.4,4.5-9.8,10.1-9.8c0.1,0,0.3,0,0.4,0l0.7,0l-0.3-0.4c-1.5-1.6-3.3-2.9-5.2-3.8
	c-0.7-0.3-1.9-0.6-3.4-0.7c-0.7-0.1-1.3-0.6-1.3-1.4c0-0.7,0.5-1.4,1.2-1.5c3.3-0.7,5.6-3.5,5.6-6.7C61.1,6,57.9,2.9,53.9,2.9z"/>
</svg>
