<!-- Generator: Adobe Illustrator 25.0.1, SVG Export Plug-In  -->
<svg version="1.1" xmlns="http://www.w3.org/2000/svg" xmlns:xlink="http://www.w3.org/1999/xlink" x="0px" y="0px" width="81.2px"
	 height="79.8px" viewBox="0 0 81.2 79.8" style="overflow:visible;enable-background:new 0 0 81.2 79.8;" xml:space="preserve">
<style type="text/css">
	.st0{fill:#2671CA;}
</style>
<defs>
</defs>
<path class="st0" d="M1,79.8c-0.6,0-1-0.4-1-1V10.6c0-0.6,0.4-1,1-1h11l0.1-0.3c0.7-2,2.8-3.4,5.1-3.4H20l0.1-0.4
	C20.7,2.3,23.5,0,26.8,0c3.2,0,6.1,2.3,6.7,5.5l0.1,0.4h2.8c2.3,0,4.4,1.4,5.1,3.4l0.1,0.3h10.5c0.6,0,1,0.4,1,1v13.6l0.2,0.1
	c0.8,0.5,2,1.4,3.1,2.5c5.4,5.5,6.3,14.1,2.3,20.6l-0.2,0.3l1.7,1.7l0.2,0c0.1,0,0.1,0,0.2,0c0.8,0,1.5,0.3,2,0.7l17.3,17.1
	c0.9,0.9,1.3,1.9,1.3,3.1c0,1.2-0.5,2.3-1.3,3.1l-0.3,0.3c-0.9,0.9-1.9,1.3-3.1,1.3c-1.2,0-2.3-0.5-3.1-1.3L56.2,56.5
	c-0.6-0.6-0.9-1.4-0.7-2.2l0-0.2l-1.7-1.7l-0.3,0.3l-0.3,0.2v26c0,0.6-0.4,1-1,1H1z M2,77.9h49.1V53.7L50.4,54
	c-1.2,0.4-2.4,0.7-3.6,0.9l-0.4,0.1V62l-0.1,0.2v0.2l-0.1,0.2c0,0.1-0.1,0.1-0.1,0.2l-9.8,9.8c-0.1,0.1-0.1,0.1-0.2,0.1l-0.1,0
	L36,72.7c-0.1,0.1-0.3,0.1-0.4,0.1H7.9c-0.6,0-1-0.4-1-1V11.6H2V77.9z M60.5,51.4l-0.1,0.1l-2.9,2.9l0,0.1c-0.1,0.1-0.1,0.4,0,0.6
	l0,0.1l17.2,17.2c0.4,0.4,1,0.7,1.6,0.7s1.2-0.2,1.7-0.7l0.3-0.3c0.5-0.6,0.7-1.2,0.7-1.7c0-0.6-0.3-1.2-0.7-1.6L60.9,51.2
	L60.5,51.4z M8.9,70.8h25.8V62c0-0.6,0.4-1,1-1h8.8v-5.9l-0.5,0c-4.2-0.2-8.1-1.9-10.9-4.8c-3.1-3.1-4.9-7.3-4.9-11.8
	c0-4.4,1.7-8.6,4.9-11.8c3-2.9,6.9-4.6,11-4.8l0.5,0V11.6h-2.8v5.3c0,0.6-0.4,1-1,1l-0.5-0.1H12.7c-0.6,0-1-0.4-1-1v-5.2H8.9V70.8z
	 M36.7,69.4l6.3-6.3h-6.3V69.4z M44.8,24c-3.9,0-7.5,1.5-10.3,4.3c-2.8,2.8-4.3,6.4-4.3,10.3s1.5,7.5,4.3,10.3s6.4,4.3,10.3,4.3
	s7.5-1.5,10.3-4.3c5.6-5.7,5.6-15,0-20.6C52.3,25.5,48.7,24,44.8,24z M57,49.7c-0.2,0.2-0.3,0.4-0.5,0.6c-0.2,0.2-0.3,0.4-0.6,0.6
	l-0.4,0.3l1.2,1.2l1.9-1.9l-1.2-1.2L57,49.7z M46.5,22.1l0.4,0.1c1.2,0.2,2.4,0.5,3.5,0.9l0.7,0.2V11.6h-4.6V22.1z M17.1,8
	c-1.8,0-3.4,1.3-3.4,2.8v5.1h26v-5.1c0-1.5-1.6-2.8-3.4-2.8h-3.7c-0.6,0-1-0.4-1-1c0-2.7-2.2-4.9-4.9-4.9c-2.7,0-4.9,2.2-4.9,4.9
	c0,0.6-0.4,1-1,1H17.1z"/>
<path class="st0" d="M45.6,48.1c-0.2,0-0.5-0.1-0.7-0.3l-6-6.2c-0.4-0.4-0.4-1,0-1.4c0.2-0.2,0.5-0.3,0.7-0.3s0.5,0.1,0.7,0.3l6,6.2
	c0.4,0.4,0.4,1,0,1.4C46.1,48,45.9,48.1,45.6,48.1z"/>
<path class="st0" d="M45.6,47.6c-0.1,0-0.2-0.1-0.3-0.2l-6-6.2c-0.2-0.2-0.2-0.5,0-0.7c0.1-0.1,0.2-0.2,0.4-0.2c0.1,0,0.2,0,0.3,0.1
	l6,6.2c0.2,0.2,0.2,0.5,0,0.7C45.8,47.6,45.7,47.6,45.6,47.6z"/>
<path class="st0" d="M41.6,48.6c-0.2,0-0.5-0.1-0.7-0.3l-3-3c-0.4-0.4-0.4-1,0-1.4c0.2-0.2,0.4-0.3,0.7-0.3s0.5,0.1,0.7,0.3l3,3
	c0.4,0.4,0.4,1,0,1.4C42.1,48.5,41.8,48.6,41.6,48.6z"/>
<path class="st0" d="M41.6,48.1c-0.1,0-0.2-0.1-0.3-0.2l-3-3c-0.2-0.2-0.2-0.5,0-0.7c0.1-0.1,0.2-0.2,0.3-0.2s0.2,0.1,0.3,0.2l3,3
	c0.2,0.2,0.2,0.5,0,0.7C41.8,48,41.7,48.1,41.6,48.1z"/>
<path class="st0" d="M26.7,8.6c-0.9,0-1.6-0.7-1.6-1.6c0-0.9,0.7-1.6,1.6-1.6c0.9,0,1.6,0.7,1.6,1.6C28.3,7.9,27.6,8.6,26.7,8.6z"/>
<path class="st0" d="M26.7,8.1c-0.6,0-1.1-0.5-1.1-1.1s0.5-1.1,1.1-1.1s1.1,0.5,1.1,1.1S27.3,8.1,26.7,8.1z"/>
</svg>
