<!-- Generator: Adobe Illustrator 25.0.1, SVG Export Plug-In  -->
<svg version="1.1" xmlns="http://www.w3.org/2000/svg" xmlns:xlink="http://www.w3.org/1999/xlink" x="0px" y="0px" width="88.4px"
	 height="100.9px" viewBox="0 0 88.4 100.9" style="overflow:visible;enable-background:new 0 0 88.4 100.9;" xml:space="preserve">
<style type="text/css">
	.st0{fill:#007EB4;}
</style>
<defs>
</defs>
<g>
	<path class="st0" d="M59.2,100.9l-26.4-2.3c-2.1-0.2-3.7-2-3.7-4.1V77c0-0.7-0.4-1.5-1-1.9c-7.9-6.7-12.6-16.8-12.8-26.9l0-0.6
		l-0.6-0.1C10.3,46.5,5.9,46,1.4,46C0.6,46,0,45.4,0,44.7V1.4C0,0.6,0.6,0,1.4,0c9.8,0,19.5,1.9,28.8,5.7l0.3,0.1l0.3-0.1
		C40,1.9,49.6,0,59.5,0c0.8,0,1.4,0.6,1.4,1.4v17.1l0.5,0.2c10.3,4.9,17,14.6,18,26c0,0.7,0.3,1.2,0.5,1.7l7.8,12
		c0.9,1.5,1,3.5,0.2,5c-0.9,1.6-2.5,2.5-4.3,2.5h-4.1v11.9c0,3.6-2.9,6.5-6.5,6.5h-9.3v12.5c0,1.1-0.5,2.2-1.3,3
		c-0.7,0.7-1.6,1.1-2.7,1.1H59.2z M18.2,49.2c0.4,9,4.8,17.9,11.7,23.8c1.2,1,1.9,2.5,1.9,4v17.7c0,0.7,0.6,1.2,1.2,1.2l26.8,2.4
		l1-1V84.4c0-1.6,1.3-2.9,2.9-2.9h9.4c2,0,3.7-1.7,3.7-3.7V65.5c0-1.4,1-2.4,2.3-2.4h4.5c0.9,0,1.5-0.5,1.8-1c0.3-0.4,0.5-1.3,0-2
		l-7.9-12c-0.5-0.9-0.9-1.9-1-3c-0.9-9.6-6.2-17.9-14.5-22.8l-1.2-0.7v23.1c0,0.8-0.6,1.4-1.4,1.4C49.7,46,40.1,48,31,51.8l-0.1,0.1
		C30.6,52,30.5,52,30.4,52s-0.2,0-0.4-0.1l-0.2-0.1c-3.6-1.5-7.2-2.6-10.7-3.5l-1-0.3L18.2,49.2z M2.8,43.4l0.8,0
		c8.2,0.2,16.4,1.9,24.4,4.9l1.1,0.4V8.4l-0.5-0.2C20.4,4.8,12.1,3,3.6,2.8l-0.8,0V43.4z M57.3,2.7c-8.7,0.3-17.1,2.1-24.9,5.4
		l-0.5,0.2v40.4l1.1-0.4c8-3.1,16.2-4.7,24.4-4.9l0.8,0V2.7L57.3,2.7z"/>
	<path class="st0" d="M22.7,15.4c-0.1,0-0.3-0.1-0.4-0.1c-4.7-1.3-9.1-2.2-13-2.6c-0.6-0.1-0.9-0.6-0.9-1.1c0-0.4,0.4-0.7,0.9-0.7
		c0,0,0.1,0,0.1,0c4.3,0.4,8.8,1.3,13.5,2.7c0.3,0.1,0.5,0.2,0.6,0.4c0.1,0.2,0.1,0.5,0.1,0.7C23.4,15.1,23,15.4,22.7,15.4z"/>
	<path class="st0" d="M22.6,23.1c-0.1,0-0.3-0.1-0.4-0.1c-4.7-1.3-9.1-2.2-13-2.6c-0.5-0.1-0.9-0.5-0.8-1.1c0.1-0.5,0.4-0.8,0.9-0.8
		c0,0,0.1,0,0.1,0c4.3,0.4,8.8,1.3,13.5,2.7c0.3,0.1,0.5,0.3,0.6,0.5c0.1,0.2,0.1,0.3,0,0.5l0,0.1l0,0.1
		C23.3,22.8,22.9,23.1,22.6,23.1z"/>
	<path class="st0" d="M22.6,31c-0.1,0-0.3-0.1-0.4-0.1c-4.7-1.3-9.1-2.2-13-2.6c-0.5-0.1-0.9-0.5-0.8-1.1c0.1-0.5,0.4-0.8,0.9-0.8
		c0,0,0.1,0,0.1,0c4.3,0.4,8.8,1.3,13.5,2.7c0.3,0.1,0.5,0.2,0.6,0.4c0.1,0.2,0.1,0.4,0,0.7l0,0.1l0,0.1C23.3,30.7,22.9,31,22.6,31z
		"/>
	<path class="st0" d="M22.6,38.8c-0.1,0-0.3-0.1-0.4-0.1c-4.7-1.3-9.1-2.2-13-2.6c-0.5-0.1-0.9-0.5-0.8-1.1c0.1-0.5,0.4-0.8,0.9-0.8
		c0,0,0.1,0,0.1,0c4.3,0.4,8.8,1.3,13.5,2.7c0.3,0.1,0.5,0.3,0.6,0.5c0.1,0.2,0.1,0.3,0,0.5l0,0.1l0,0.1
		C23.3,38.5,22.9,38.8,22.6,38.8z"/>
	<path class="st0" d="M38.3,15.4c-0.4,0-0.7-0.3-0.9-0.7c-0.1-0.4,0.1-1,0.7-1.2c4.1-1.2,8.6-2.1,13.5-2.7c0,0,0,0,0,0
		c0.5,0,0.9,0.3,0.9,0.8c0,0.3,0,0.5-0.2,0.7c-0.1,0.1-0.3,0.3-0.6,0.3c-4.5,0.5-8.9,1.3-13.1,2.6l-0.1,0l-0.1,0
		C38.4,15.4,38.4,15.4,38.3,15.4C38.3,15.4,38.3,15.4,38.3,15.4z"/>
	<path class="st0" d="M38.3,23.1c-0.4,0-0.7-0.3-0.9-0.7c-0.1-0.4,0.1-1,0.7-1.2c4.1-1.2,8.6-2.1,13.5-2.7c0,0,0,0,0,0
		c0.5,0,0.9,0.3,0.9,0.8c0,0.3,0,0.5-0.2,0.7c-0.1,0.1-0.3,0.3-0.6,0.3c-4.5,0.5-8.9,1.3-13.1,2.6l-0.1,0l-0.1,0
		C38.4,23.1,38.4,23.1,38.3,23.1C38.3,23.1,38.3,23.1,38.3,23.1z"/>
	<path class="st0" d="M38.3,30.9c-0.4,0-0.7-0.3-0.9-0.7c-0.1-0.4,0.1-1,0.7-1.2c4.1-1.2,8.6-2.1,13.5-2.7c0,0,0,0,0,0
		c0.5,0,0.9,0.4,0.9,0.8c0,0.3,0,0.5-0.2,0.7c-0.1,0.1-0.3,0.3-0.6,0.3c-4.5,0.5-8.9,1.3-13.1,2.6l-0.1,0l-0.1,0
		C38.4,30.9,38.4,30.9,38.3,30.9C38.3,30.9,38.3,30.9,38.3,30.9z"/>
	<path class="st0" d="M38.3,38.8c-0.4,0-0.7-0.3-0.9-0.7c-0.1-0.4,0.1-1,0.7-1.2c4.1-1.2,8.6-2.1,13.5-2.7c0,0,0,0,0,0
		c0.5,0,0.9,0.3,0.9,0.8c0,0.3,0,0.5-0.2,0.7c-0.1,0.1-0.3,0.3-0.6,0.3c-4.5,0.5-8.9,1.3-13.1,2.6l-0.1,0l-0.1,0
		C38.4,38.8,38.4,38.8,38.3,38.8C38.3,38.8,38.3,38.8,38.3,38.8z"/>
</g>
</svg>
