<!-- Generator: Adobe Illustrator 25.1.0, SVG Export Plug-In  -->
<svg version="1.1" xmlns="http://www.w3.org/2000/svg" xmlns:xlink="http://www.w3.org/1999/xlink" x="0px" y="0px" width="75.2px"
	 height="72.5px" viewBox="0 0 75.2 72.5" style="overflow:visible;enable-background:new 0 0 75.2 72.5;" xml:space="preserve">
<style type="text/css">
	.st0{fill:#880364;}
</style>
<defs>
</defs>
<path class="st0" d="M41,38.9H20.3c-0.7,0-1.2-0.5-1.2-1.2c0-0.7,0.5-1.2,1.2-1.2H41c0.7,0,1.2,0.5,1.2,1.2
	C42.2,38.3,41.6,38.9,41,38.9z"/>
<path class="st0" d="M22.6,69.2H5.1c-1.4,0-2.7-1.2-2.7-2.7V5.1c0-1.4,1.2-2.7,2.7-2.7h44.7c1.4,0,2.7,1.2,2.7,2.7v19.4l2.5-2V5.1
	c0-2.8-2.3-5.1-5.1-5.1H5.1C2.3,0,0,2.3,0,5.1v61.5c0,2.8,2.3,5.1,5.1,5.1h16L22.6,69.2z"/>
<path class="st0" d="M29,58.1h-8.6c-0.7,0-1.2,0.5-1.2,1.2c0,0.7,0.5,1.2,1.2,1.2h7.2L29,58.1z"/>
<path class="st0" d="M35.4,47.2h-15c-0.7,0-1.2,0.5-1.2,1.2c0,0.7,0.5,1.2,1.2,1.2h13.6L35.4,47.2z"/>
<path class="st0" d="M72.2,31.2l1.5-2.1c2.5-3.4,1.8-8.2-1.5-10.7l0,0c-3.4-2.5-8.2-1.8-10.7,1.5L34.3,56.3
	c-0.1,0.1-0.4,0.7-0.5,0.9L31.5,71c-0.1,0.5,0.1,0.9,0.5,1.2c0.2,0.2,0.8,0.3,1.3,0.2l12.6-6.1c0.3-0.2,0.7-0.7,0.8-0.8l24.1-32.2
	c0.5,0.6,0.8,1.4,0.9,2.2c0.2,1.2-0.2,2.5-0.9,3.5l-7.4,9.9c-0.5,0.5-0.3,1.3,0.2,1.7c0.2,0.2,0.5,0.2,0.8,0.2c0.4,0,0.8-0.2,1-0.5
	l7.4-9.9c1.1-1.5,1.6-3.4,1.4-5.3C73.8,33.7,73.2,32.3,72.2,31.2z M70.7,20.4L70.7,20.4c2,1.4,2.6,4,1.7,6.2l-8.1-6
	C66.1,19,68.7,19,70.7,20.4z M62.7,22.5l8.3,6.2L46.1,61.9c-1.7-3.8-5.4-5.5-8.5-6L62.7,22.5z M36.6,68l-1.8-1.5l1.4-8.2
	c0.8,0.1,2.1,0.3,3.4,0.8c2.6,1,4.1,2.7,4.6,5.2L36.6,68z"/>
<circle class="st0" cx="12.6" cy="37.6" r="2.4"/>
<circle class="st0" cx="12.6" cy="48.4" r="2.4"/>
<circle class="st0" cx="12.6" cy="59.4" r="2.4"/>
<path class="st0" d="M27.4,29.2c-6.5,0-11.7-5.3-11.7-11.7S21,5.6,27.4,5.6s11.7,5.3,11.7,11.7S33.9,29.2,27.4,29.2z M27.4,8.2
	c-5.1,0-9.3,4.2-9.3,9.3s4.2,9.3,9.3,9.3s9.3-4.2,9.3-9.3S32.5,8.2,27.4,8.2z"/>
<path class="st0" d="M32.5,18.9h-5c-0.7,0-1.2-0.5-1.2-1.2v-6.2c0-0.7,0.5-1.2,1.2-1.2c0.7,0,1.2,0.5,1.2,1.2v5h3.8
	c0.7,0,1.2,0.5,1.2,1.2C33.7,18.3,33.1,18.9,32.5,18.9z"/>
</svg>
