<!-- Generator: Adobe Illustrator 25.1.0, SVG Export Plug-In  -->
<svg version="1.1" xmlns="http://www.w3.org/2000/svg" xmlns:xlink="http://www.w3.org/1999/xlink" x="0px" y="0px" width="48px" height="60px" viewBox="0 0 48 60" style="overflow:visible;enable-background:new 0 0 48 60;" xml:space="preserve">
<style type="text/css">
	.st0{fill:#007EB4;}
</style>
<defs>
</defs>
<g>
	<path class="st0" d="M45,37c-0.5,0-1,0.1-1.5,0.4c-0.4-0.6-0.9-1-1.5-1.2V1c0-0.6-0.4-1-1-1H1C0.4,0,0,0.4,0,1v40c0,0.6,0.4,1,1,1   h7.8c0.6,0,1-0.5,1-1c0-0.2-0.1-0.5-0.3-0.7c-0.7-0.8-0.7-2.1,0.2-2.8c0.8-0.7,2.1-0.7,2.8,0.2c0.7,0.8,0.7,1.9,0,2.7   c-0.4,0.4-0.3,1,0.1,1.4c0.2,0.2,0.4,0.3,0.7,0.3h14.4l-0.3,0.3C27.1,42.5,27,42.7,27,43v8c0,0.2,0.1,0.4,0.2,0.6l2.8,3.7V60h2v-5   c0-0.2-0.1-0.4-0.2-0.6L29,50.7v-7.3l1-1V46h2V32c0-0.6,0.4-1,1-1s1,0.4,1,1v14h2v-7c0-0.6,0.4-1,1-1s1,0.4,1,1v7h2v-7   c0-0.6,0.4-1,1-1s1,0.4,1,1v7h2v-6c0-0.6,0.4-1,1-1s1,0.4,1,1v11.7l-2.8,3.7C43.1,55.6,43,55.8,43,56v4h2v-3.7l2.8-3.7   c0.1-0.2,0.2-0.4,0.2-0.6V40C48,38.3,46.7,37,45,37z M2,2h18v6.8c0,0.4,0.2,0.8,0.6,0.9c0.4,0.2,0.8,0.1,1.1-0.2   c0.8-0.7,2.1-0.7,2.8,0.2c0.7,0.8,0.7,2.1-0.2,2.8c-0.8,0.7-1.9,0.7-2.7,0c-0.4-0.4-1-0.3-1.4,0.1C20.1,12.7,20,13,20,13.2V20h-5.1   c0.1-0.3,0.1-0.7,0.1-1c0-2.2-1.8-4-4-4s-4,1.8-4,4c0,0.3,0,0.7,0.1,1H2V2z M20.6,32.3c-0.4,0.2-0.6,0.5-0.6,0.9V40h-5.1   c0.1-0.3,0.1-0.7,0.1-1c0-2.2-1.8-4-4-4s-4,1.8-4,4c0,0.3,0,0.7,0.1,1H2V22h6.8c0.6,0,1-0.5,1-1c0-0.2-0.1-0.5-0.3-0.7   C9.2,20,9,19.5,9,19c0-1.1,0.9-2,2-2s2,0.9,2,2c0,0.5-0.2,1-0.5,1.3c-0.4,0.4-0.3,1,0.1,1.4c0.2,0.2,0.4,0.3,0.7,0.3H20v6.8   c0,0.6,0.5,1,1,1c0.2,0,0.5-0.1,0.7-0.3C22,29.2,22.5,29,23,29c1.1,0,2,0.9,2,2c0,1.1-0.9,2-2,2c-0.5,0-1-0.2-1.3-0.5   C21.4,32.2,21,32.1,20.6,32.3z M40,36.2c-0.4,0.1-0.7,0.3-1,0.6c-0.5-0.5-1.3-0.8-2-0.8c-0.3,0-0.7,0.1-1,0.2V32c0-1.7-1.3-3-3-3   s-3,1.3-3,3v7.6L29.6,40H22v-5.1c0.3,0.1,0.7,0.1,1,0.1c2.2,0,4-1.8,4-4s-1.8-4-4-4c-0.3,0-0.7,0-1,0.1V22h7.1   C29,22.3,29,22.7,29,23c0,2.2,1.8,4,4,4s4-1.8,4-4c0-0.3,0-0.7-0.1-1H40V36.2z M40,20h-4.8c-0.6,0-1,0.5-1,1c0,0.2,0.1,0.5,0.3,0.7   C34.8,22,35,22.5,35,23c0,1.1-0.9,2-2,2s-2-0.9-2-2c0-0.5,0.2-1,0.5-1.3c0.4-0.4,0.3-1-0.1-1.4C31.3,20.1,31,20,30.8,20H22v-5.1   c0.3,0.1,0.7,0.1,1,0.1c2.2,0,4-1.8,4-4s-1.8-4-4-4c-0.3,0-0.7,0-1,0.1V2h18V20z"/>
</g>
</svg>