<!-- Generator: Adobe Illustrator 25.1.0, SVG Export Plug-In  -->
<svg version="1.1" xmlns="http://www.w3.org/2000/svg" xmlns:xlink="http://www.w3.org/1999/xlink" x="0px" y="0px" width="89.9px"
	 height="93px" viewBox="0 0 89.9 93" style="overflow:visible;enable-background:new 0 0 89.9 93;" xml:space="preserve">
<style type="text/css">
	.st0{fill:#216C06;}
</style>
<defs>
</defs>
<g>
	<path class="st0" d="M89.9,30.9c0-8.4-6.3-15.4-14.3-16.1C74.8,6.5,68.1,0,59.9,0c-6.3,0-11.8,3.9-14.3,9.4C43,3.9,37.4,0,30.9,0
		c-8.5,0-15.4,6.5-16.1,14.8C6.5,15.5,0,22.5,0,30.9c0,3.8,1.3,7.3,3.6,10.2C1.3,44,0,47.6,0,51.4c0,6.4,3.8,12.2,9.6,14.8
		c-0.8,1.9-1.2,4-1.2,6.1c0,6.7,4.2,12.8,10.6,15.2c2,0.8,4.2,1.1,6.3,1c3,3,7,4.6,11.3,4.6c3.2,0,6.3-1,9-2.8
		c2.6,1.8,5.6,2.8,8.8,2.8c4.1,0,8-1.6,11-4.6c2,0.1,4.1-0.2,6.1-1c6.2-2.3,10.3-8.4,10.3-15.2c0-2.1-0.4-4.2-1.2-6.1
		c5.6-2.6,9.3-8.3,9.3-14.8c0-3.8-1.2-7.3-3.6-10.2C88.6,38.2,89.9,34.7,89.9,30.9z M27,85.8c-0.3-0.3-0.7-0.5-1.1-0.5
		c0,0-0.1,0-0.1,0c-1.9,0.2-3.9-0.1-5.7-0.8c-5.2-1.9-8.6-6.9-8.6-12.4c0-2.2,0.5-4.2,1.5-6.2c0.2-0.4,0.2-0.8,0.1-1.3
		s-0.5-0.7-0.9-0.9C6.6,62.1,3,57.1,3,51.4c0-0.8,0.1-1.6,0.2-2.4h22.7c0.7,2.9,3.3,5.1,6.4,5.1c3.6,0,6.5-2.9,6.5-6.6
		s-2.9-6.5-6.5-6.5c-3.1,0-5.7,2.2-6.4,5H4.2c0.6-1.4,1.5-2.6,2.5-3.8c0.6-0.6,0.6-1.5,0-2.1C4.3,37.6,3,34.4,3,30.9
		c0-7.3,5.9-13.2,13.2-13.2c0.8,0,1.5-0.7,1.5-1.5C17.7,8.9,23.6,3,30.9,3s13.2,5.9,13.2,13.2v17.2h-7.6v-3.4c0-0.8-0.7-1.5-1.5-1.5
		H21.3c0,0-0.1,0-0.1,0c-0.8-2.7-3.3-4.7-6.3-4.7c-3.6,0-6.5,2.9-6.5,6.6s2.9,6.6,6.5,6.6c3.2,0,5.9-2.3,6.4-5.4h12.2V35
		c0,0.8,0.7,1.5,1.5,1.5h9.1v23.3H29.3c-0.8,0-1.5,0.7-1.5,1.5v5.4c-2.9,0.7-5,3.3-5,6.4c0,3.6,2.9,6.6,6.5,6.6
		c3.6,0,6.6-2.9,6.6-6.6c0-3.1-2.2-5.7-5.1-6.4v-3.9h13.3v24.8c-2.2,1.6-4.8,2.4-7.5,2.4C32.9,90,29.5,88.5,27,85.8z M28.7,47.4
		c0-2,1.6-3.5,3.6-3.5s3.5,1.6,3.5,3.5S34.2,51,32.3,51S28.7,49.4,28.7,47.4z M18.4,30.4c0,2-1.6,3.5-3.5,3.5s-3.5-1.6-3.5-3.5
		s1.6-3.5,3.5-3.5S18.4,28.4,18.4,30.4z M29.3,69.5c2,0,3.6,1.6,3.6,3.6c0,2-1.6,3.6-3.6,3.6s-3.5-1.6-3.5-3.6
		C25.7,71.1,27.3,69.5,29.3,69.5z M86.9,51.4c0,5.2-3,9.9-7.5,12c-2.4-4.9-6.2-7.8-11.3-8.7c-0.8-0.1-1.6,0.4-1.7,1.2
		c-0.1,0.8,0.4,1.6,1.2,1.7c4.6,0.8,7.8,3.4,9.6,8.2c0,0,0,0,0,0.1c0,0,0,0.1,0,0.1c1,1.9,1.5,4,1.5,6.2c0,5.5-3.4,10.5-8.3,12.4
		c-1.8,0.7-3.6,0.9-5.4,0.8c-5.4-1.6-6.5-4-7.6-6.3c-0.3-0.8-1.2-1.1-2-0.8c-0.8,0.3-1.1,1.2-0.8,2c1.3,2.8,2.7,5.3,7.2,7.2
		c-2.2,1.7-4.8,2.5-7.5,2.5c-2.6,0-5.1-0.8-7.3-2.4V16.2C47.1,8.9,52.8,3,59.8,3s12.8,5.9,12.8,13.2c0,6.3-1.9,10-5.9,11.4
		c-0.8,0.3-1.2,1.1-0.9,1.9c0.2,0.6,0.8,1,1.4,1c0.2,0,0.3,0,0.5-0.1c4.9-1.7,7.5-5.9,7.9-12.6c6.3,0.8,11.3,6.3,11.3,13.1
		c0,2.9-0.9,5.8-2.7,8.1c-3.5-3-7.5-4.1-12.5-3.5c-0.8,0.1-1.4,0.8-1.3,1.7c0.1,0.8,0.8,1.4,1.7,1.3c4.6-0.5,8.1,0.6,11.2,3.7
		C85.6,44.7,86.9,47.9,86.9,51.4z"/>
	<path class="st0" d="M64.7,45c-5.1,0-10.4,4.6-10.9,9.5c-0.1,0.8,0.5,1.6,1.3,1.6c0,0,0.1,0,0.2,0c0.8,0,1.4-0.6,1.5-1.3
		c0.3-3.3,4.4-6.8,7.9-6.8c0.8,0,1.5-0.7,1.5-1.5S65.5,45,64.7,45z"/>
	<path class="st0" d="M54.3,68.3c-0.6,0.6-0.5,1.6,0.1,2.1c0.6,0.6,1.5,0.5,2.1-0.1c1.5-1.6,5.7-1.3,7.2,0.1c0.3,0.3,0.7,0.4,1,0.4
		c0.4,0,0.8-0.2,1.1-0.5c0.6-0.6,0.5-1.6-0.1-2.1C63.1,65.8,57,65.4,54.3,68.3z"/>
	<path class="st0" d="M57.3,34.7c0.4,0,0.7-0.1,1-0.4c0.6-0.6,0.6-1.5,0.1-2.1c-1.5-1.6-1.1-6.3,0.8-10.3c0.4-0.8,0.1-1.6-0.7-2
		c-0.8-0.4-1.6,0-2,0.7c-2.2,4.6-3,10.8-0.3,13.7C56.5,34.5,56.9,34.7,57.3,34.7z"/>
</g>
</svg>
