<!-- Generator: Adobe Illustrator 25.0.1, SVG Export Plug-In  -->
<svg version="1.1" xmlns="http://www.w3.org/2000/svg" xmlns:xlink="http://www.w3.org/1999/xlink" x="0px" y="0px" width="80.1px" height="79px" viewBox="0 0 80.1 79" style="overflow:visible;enable-background:new 0 0 80.1 79;" xml:space="preserve">
<style type="text/css">
	.st0{fill:#216C06;}
</style>
<defs>
</defs>
<g>
	<path class="st0" d="M79.1,55.1l-12.2-0.5c-0.8,0-1.6,0.3-2.2,0.9c-0.5,0.6-0.9,1.4-0.9,2.2l-0.1,1c-2.3-0.4-3.8-0.9-5.2-1.5   c-0.6-0.2-1.1-0.4-1.7-0.6c-2.3-0.8-4.6-1.2-7.3-0.9c-2.4-2.7-4.9-4.1-7.4-4c-0.6,0-1.2,0.1-1.8,0.3c-2.7-1.5-5.3-2.3-7.7-2.4   c-0.2-0.8-0.3-3.9,5.7-13.4c0.7-0.2,2.3-0.8,4.3-1.6l4.8,1.2c2.8,0.9,5.4,1.3,7.9,1.3c3.3,0,6.4-0.8,9.2-2.3   c9.4-5.1,12.8-16.6,12.9-17.1c0.1-0.4-0.1-0.9-0.4-1.1c-0.4-0.2-0.9-0.2-1.2,0.1c-3.1,2.5-6.8,3.3-12,2.7   c-16.4-2.1-21.2,10.7-22.1,13.4c-0.7,0.2-1.3,0.5-1.8,0.7c4.7-8.9,1.8-14.1,0.4-15.9l0.2-2.5c0.2-4.1-0.9-7.4-3.2-10   C32.8,0.2,25.5,0,25.2,0c-0.4,0-0.8,0.3-1,0.7c-0.1,0.4,0,0.9,0.4,1.1c1.8,1.3,2.8,3.2,3.2,6.2c1.3,9.7,9,10.7,11,10.8   c1.2,1.6,3.6,6.5-1.5,15.1c-0.6-0.3-1.3-0.8-2.2-1.3l-1.5-4.3c-2.4-6.2-6.2-10.5-11.5-12.7c-9.9-4.2-21,0.5-21.5,0.7   c-0.4,0.2-0.7,0.6-0.6,1c0,0.4,0.4,0.8,0.8,0.9c3.9,0.8,6.9,3.2,9.6,7.7C15.4,34,21.7,36,26.7,36c3.6,0,6.5-1.1,7.6-1.5   c0.8,0.5,1.5,0.9,2,1.2c-4,6.5-6,11.3-5.6,13.9c-0.7,0.1-1.4,0.2-2,0.3c-4.1,1.1-6.4,4-7.3,5.2c-6.3-0.3-9.7,5-10.7,7   c-0.9-0.3-1.8-0.4-2.5-0.4c-1.9-0.1-3.7,1.5-3.9,3.4c-0.4,3,2.8,4.4,2.9,4.5c0.1,0,8.9,3.6,18.5,7.2c4.3,1.6,6.9,2.4,9.3,2.4   c2.9,0,5.4-1.2,10.3-3.7c8.1-4,10.4-4,13.7-4l1,0c0.6,0,1.3,0,1.9,0c0.4,0,0.7,0,1.1,0L62.7,74c-0.1,1,0.2,1.9,0.8,2.6   c0.5,0.6,1.2,0.9,1.9,0.9l13.3,0.8c0,0,0,0,0.1,0c0.3,0,0.5-0.1,0.7-0.3c0.2-0.2,0.3-0.5,0.3-0.7l0.2-21.2   C80.1,55.5,79.7,55.1,79.1,55.1z M29.7,7.8c-0.2-1.6-0.6-3.6-1.9-5.4c2.3,0.5,5.6,1.5,7.9,4c2,2.1,2.9,5,2.7,8.5l-0.1,2   c0,0,0,0,0,0C36.1,16.6,30.7,15.3,29.7,7.8z M63.6,21.3c2.9,0.4,7,0.6,10.9-1.4c-1.5,3.6-4.9,9.9-10.9,13.1   c-4.5,2.4-9.7,2.7-15.6,0.8l-1.9-0.5c1.3-0.5,2.7-0.9,3.8-1.3l8.2,1.4c0.1,0,0.1,0,0.2,0c0.5,0,0.9-0.4,1-0.8   c0.1-0.6-0.3-1.1-0.8-1.2l-4-0.7c3.6-0.9,7.3-1.7,7.3-1.7c0.5-0.1,0.9-0.6,0.8-1.2c-0.1-0.5-0.7-0.9-1.2-0.8c0,0-3.9,0.8-7.7,1.8   l3.3-3.1c0.4-0.4,0.4-1,0.1-1.4c-0.4-0.4-1-0.4-1.4-0.1l-6.2,5.8c-1.5,0.5-3.3,1.1-5.1,1.7C45.7,28,50.6,19.6,63.6,21.3z    M12.1,24.8c-1.5-2.5-4-5.8-7.9-7.6C8,16.1,15,14.8,21.3,17.4c4.7,2,8.2,5.9,10.4,11.6l0.7,1.9C30.6,29.9,29,28.8,28,28l-1.8-6.3   c-0.2-0.5-0.7-0.8-1.3-0.7c-0.5,0.2-0.8,0.7-0.7,1.3l1,3.5c-2.9-2.3-5.9-4.4-5.9-4.4c-0.5-0.3-1.1-0.2-1.4,0.2   c-0.3,0.5-0.2,1.1,0.2,1.4c0,0,3.4,2.4,6.5,4.9l-4.4,0.5c-0.6,0.1-0.9,0.6-0.9,1.1c0.1,0.5,0.5,0.9,1,0.9c0,0,0.1,0,0.1,0l6.4-0.8   c1.3,1,3.3,2.3,5.3,3.5C28.3,34.4,19,36,12.1,24.8z M24.5,57.8c0.5,0.2,1.1-0.1,1.3-0.6c0.2-0.5-0.1-1.1-0.6-1.3   c-0.6-0.2-1.1-0.4-1.6-0.5c1-1.2,2.8-2.8,5.5-3.6c2.7-0.7,5.8-0.3,9.1,1.2c-0.8,0.6-1.5,1.2-2.3,2.1c-0.4,0.4-0.3,1.1,0.1,1.4   c0.4,0.4,1.1,0.3,1.4-0.1c1.5-1.8,3.1-2.8,4.7-2.8c1.8-0.1,3.6,1.1,4.9,2.4c-2.6,0.6-5.6,1.7-9.2,3.8c-1.4,0.8-1.9,0.9-3.7,1.2   c-1.3,0.2-3.1,0.6-6,1.3l-1.5,0.3c-1.5,0.3-2.7,1.5-2.9,2.9c-2.4-0.5-7.7-1.8-11.1-2.8C14,60.2,17.7,55.2,24.5,57.8z M61.8,69.3   c-0.6,0-1.2,0-1.9,0l-1,0c-3.4,0-6.1-0.1-14.6,4.2c-8.4,4.2-8.9,4.5-17.9,1.1C16.8,71.1,8,67.6,7.9,67.6c0,0-1.9-0.8-1.7-2.3   c0.1-0.9,0.9-1.6,1.8-1.6c0,0,0,0,0,0c0.8,0,1.7,0.2,2.7,0.6c3.7,1.3,11.2,2.9,13.2,3.4c0.6,1.3,1.8,2.2,3.3,2.2   c0.2,0,0.4,0,0.6-0.1l1.8-0.3c0.1,0,10.5-2.3,13.4-2.3c0,0,0,0,0,0c0.6,0,1-0.5,1-1c0-0.6-0.4-1-1-1c-3.1,0-13.4,2.3-13.8,2.4   l-1.7,0.3c-0.9,0.1-1.7-0.4-1.9-1.3c-0.1-0.4,0-0.8,0.3-1.2c0.2-0.4,0.6-0.6,1-0.7l1.6-0.3c2.9-0.7,4.7-1,6-1.2   c2-0.4,2.7-0.5,4.4-1.4c9.2-5.1,13.6-4.3,17.3-3.1c0.5,0.2,1.1,0.4,1.6,0.6c1.5,0.6,3.2,1.2,5.9,1.6L63,69.3   C62.6,69.3,62.2,69.3,61.8,69.3z M77.8,76.2l-12.3-0.7c-0.2,0-0.4-0.2-0.5-0.3c-0.2-0.3-0.4-0.7-0.3-1.1l1-16.3   c0-0.4,0.2-0.7,0.4-1c0.1-0.1,0.3-0.3,0.6-0.3c0,0,0,0,0,0l11.3,0.5L77.8,76.2z"/>
	<path class="st0" d="M69.6,73.5l4.3,0.2c0,0,0.1,0,0.1,0c0.5,0,1-0.2,1.3-0.5c0.4-0.4,0.6-0.8,0.7-1.4l0.1-2.7   c0.1-1.1-0.8-2.1-1.9-2.1L70,66.9c-1.1-0.1-2.1,0.8-2.1,1.9l-0.1,2.7c0,0.5,0.2,1,0.5,1.4C68.6,73.3,69.1,73.5,69.6,73.5z    M69.8,68.9l4.3,0.2L74,71.8l-4.3-0.2L69.8,68.9z"/>
</g>
</svg>