<!-- Generator: Adobe Illustrator 25.0.1, SVG Export Plug-In  -->
<svg version="1.1" xmlns="http://www.w3.org/2000/svg" xmlns:xlink="http://www.w3.org/1999/xlink" x="0px" y="0px" width="52px" height="52px" viewBox="0 0 52 52" style="overflow:visible;enable-background:new 0 0 52 52;" xml:space="preserve">
<style type="text/css">
	.st0{fill:#2671CA;}
</style>
<defs>
</defs>
<g>
	<path class="st0" d="M18,24H6c-3.3,0-6-2.7-6-6V6c0-3.3,2.7-6,6-6h12c3.3,0,6,2.7,6,6v12C24,21.3,21.3,24,18,24z M6,2   C3.8,2,2,3.8,2,6v12c0,2.2,1.8,4,4,4h12c2.2,0,4-1.8,4-4V6c0-2.2-1.8-4-4-4H6z"/>
	<path class="st0" d="M46,24H34c-3.3,0-6-2.7-6-6V6c0-3.3,2.7-6,6-6h12c3.3,0,6,2.7,6,6v12C52,21.3,49.3,24,46,24z M34,2   c-2.2,0-4,1.8-4,4v12c0,2.2,1.8,4,4,4h12c2.2,0,4-1.8,4-4V6c0-2.2-1.8-4-4-4H34z"/>
	<path class="st0" d="M18,52H6c-3.3,0-6-2.7-6-6V34c0-3.3,2.7-6,6-6h12c3.3,0,6,2.7,6,6v12C24,49.3,21.3,52,18,52z M6,30   c-2.2,0-4,1.8-4,4v12c0,2.2,1.8,4,4,4h12c2.2,0,4-1.8,4-4V34c0-2.2-1.8-4-4-4H6z"/>
	<path class="st0" d="M46,52H34c-3.3,0-6-2.7-6-6V34c0-3.3,2.7-6,6-6h12c3.3,0,6,2.7,6,6v12C52,49.3,49.3,52,46,52z M34,30   c-2.2,0-4,1.8-4,4v12c0,2.2,1.8,4,4,4h12c2.2,0,4-1.8,4-4V34c0-2.2-1.8-4-4-4H34z"/>
	<path class="st0" d="M18,13H6c-0.6,0-1-0.4-1-1s0.4-1,1-1h12c0.6,0,1,0.4,1,1S18.6,13,18,13z"/>
	<path class="st0" d="M12,19c-0.6,0-1-0.4-1-1V6c0-0.6,0.4-1,1-1s1,0.4,1,1v12C13,18.6,12.6,19,12,19z"/>
	<path class="st0" d="M46,13H34c-0.6,0-1-0.4-1-1s0.4-1,1-1h12c0.6,0,1,0.4,1,1S46.6,13,46,13z"/>
	<path class="st0" d="M46,41H34c-0.6,0-1-0.4-1-1s0.4-1,1-1h12c0.6,0,1,0.4,1,1S46.6,41,46,41z"/>
	<path class="st0" d="M16.5,45.5c-0.3,0-0.5-0.1-0.7-0.3l-9-9c-0.4-0.4-0.4-1,0-1.4c0.4-0.4,1-0.4,1.4,0l9,9c0.4,0.4,0.4,1,0,1.4   c0,0,0,0,0,0C17,45.4,16.8,45.5,16.5,45.5z"/>
	<path class="st0" d="M7.5,45.5c-0.3,0-0.5-0.1-0.7-0.3c-0.4-0.4-0.4-1,0-1.4c0,0,0,0,0,0l9-9c0.4-0.4,1-0.4,1.4,0   c0.4,0.4,0.4,1,0,1.4l-9,9C8,45.4,7.8,45.5,7.5,45.5z"/>
	<path class="st0" d="M40,47c-1.1,0-2-0.9-2-2s0.9-2,2-2s2,0.9,2,2S41.1,47,40,47z"/>
	<path class="st0" d="M40,37c-1.1,0-2-0.9-2-2s0.9-2,2-2s2,0.9,2,2S41.1,37,40,37z"/>
</g>
</svg>