<!-- Generator: Adobe Illustrator 25.0.1, SVG Export Plug-In  -->
<svg version="1.1" xmlns="http://www.w3.org/2000/svg" xmlns:xlink="http://www.w3.org/1999/xlink" x="0px" y="0px" width="74.1px"
	 height="74px" viewBox="0 0 74.1 74" style="overflow:visible;enable-background:new 0 0 74.1 74;" xml:space="preserve">
<style type="text/css">
	.st0{fill:#2A7DE2;}
</style>
<defs>
</defs>
<g>
	<path class="st0" d="M48.7,66.5c0.2,0.2,0.6,0.4,0.9,0.4c0.1,0,0.2,0,0.3,0l4.8-1.3c0.4-0.1,0.8-0.4,0.9-0.9l1.3-4.8
		c0.1-0.4,0-0.9-0.3-1.2L53,55.2c-0.3-0.3-0.8-0.4-1.2-0.3l-4.8,1.3c-0.4,0.1-0.8,0.4-0.9,0.9l-1.3,4.8c-0.1,0.4,0,0.9,0.3,1.2
		L48.7,66.5z M48.4,58.4l3.4-0.9l2.5,2.5l-0.9,3.4l-3.4,0.9l-2.5-2.5L48.4,58.4z"/>
	<path class="st0" d="M62.7,0c-0.1,0-0.2,0-0.3,0h-1.8c-0.1,0-0.2,0-0.3,0c-1.7,0.5-3,1.2-4,2.2L55,3.5h0c0,0,0,0,0,0l-5.9,5.9
		c-0.9,0.9-1.3,2-1.7,2.9c-0.3,0.9-0.7,2-1.4,3c-0.6,0.9-1.3,1.7-2.1,2.5c-1,1-2,2-2.9,3c-0.7,0.7-1.4,1.4-2,2.1
		c-0.2,0.1-0.4,0.2-0.5,0.3c-1.1,0-2.4,0-3.8,0.2c-1.5,0.2-2.6,1.1-3,2.5c-0.3,1.3,0.1,2.5,1.2,3.6l3,3l-1.5,1.5l-8.2-8.2
		c0.9-4.4-0.4-8.8-3.6-12c-3.7-3.7-8.1-4.1-11.2-3.7c-0.5,0.1-1,0.4-1.1,1c-0.1,0.5,0.1,1,0.6,1.3c0.5,0.3,0.8,0.6,1.1,0.9
		c2.4,2.4,2.4,6.3,0,8.7s-6.3,2.4-8.7,0c-0.3-0.3-0.6-0.7-0.9-1.1c-0.3-0.4-0.8-0.7-1.3-0.6c-0.5,0.1-0.9,0.5-1,1.1
		c-0.3,3.1,0.1,7.5,3.7,11.2c3.2,3.2,7.7,4.5,12,3.6l8.2,8.2L13.5,54.9l-3.4,1.6c-0.2,0.1-0.4,0.3-0.5,0.5l-3.8,6.3
		c-0.3,0.5-0.2,1.1,0.2,1.5L9.1,68c0.2,0.2,0.6,0.4,0.9,0.4c0.2,0,0.4-0.1,0.6-0.2l6.3-3.8c0.2-0.1,0.4-0.3,0.5-0.5l1.6-3.4
		l10.6-10.6l8.3,8.3c-0.9,4.4,0.4,8.8,3.6,12c2.7,2.7,6,3.8,9.2,3.8c3.6,0,7.1-1.5,9.5-3.8c5.1-5.1,5.1-13.5,0-18.7
		c-3.2-3.2-7.6-4.5-12-3.6l-8.3-8.3l1.5-1.5c1.3,1.3,2.7,2.6,3.3,3.2c0.7,0.7,1.6,1.1,2.4,1.1c0.2,0,0.5,0,0.7-0.1
		c1.1-0.3,2-1.1,2.4-2.3c0.5-1.4,0.6-2.9,0.4-4.7c0.4-0.4,0.8-0.8,1.2-1.2c0.3-0.3,0.6-0.6,0.9-0.9l1.2-1.1c1.3-1.3,2.6-2.5,4-3.8
		c1-0.9,2.1-1.5,3.2-1.7c0.8-0.2,1.6-0.5,2.3-0.9c0.2-0.1,0.3-0.1,0.5-0.3c0,0,0.1-0.1,0.1-0.1c0.3-0.2,0.6-0.4,0.9-0.7l0.9-0.9
		c1.8-1.8,3.6-3.7,5.5-5.5c3.2-3.1,3.7-6.8,1.3-10.2C70.8,5.1,67.6,1.3,62.7,0z M17.1,33.8c-0.3-0.3-0.8-0.4-1.2-0.3
		c-3.7,1-7.6,0-10.3-2.8c-1.9-1.9-2.8-4.1-3-6.1c3.4,2.4,8.1,2.1,11.1-0.9c3-3,3.3-7.7,0.9-11.1c2,0.3,4.2,1.1,6.1,3
		c2.7,2.7,3.8,6.6,2.8,10.3c-0.1,0.4,0,0.9,0.3,1.2l8.7,8.7l-4.3,4.3l-2.4,2.4L17.1,33.8z M10.2,65.6l-1.8-1.8l3.1-5.2l3.3-1.6
		c0.1,0,0.1-0.1,0.2-0.2c0,0,0.1,0,0.1-0.1l0,0l0,0l11.5-11.5c0,0,0,0,0.1,0s0,0,0-0.1l3.2-3.2l5.2-5.2l0,0c0,0,0,0,0,0l2.4-2.4
		l2.1,2.1l-2.4,2.4c0,0,0,0,0,0c0,0,0,0,0,0L32.1,44L17.2,58.9c-0.1,0.1-0.1,0.1-0.1,0.2c0,0.1-0.1,0.1-0.1,0.2l-1.6,3.3L10.2,65.6z
		 M48.1,50.5c3.7-1,7.6,0,10.3,2.8c4.2,4.2,4.2,11,0,15.1c-3.7,3.7-10.4,4.7-15.2,0c-2.7-2.7-3.8-6.6-2.8-10.3
		c0.1-0.4,0-0.9-0.3-1.2l-8.7-8.7l2.4-2.4l4.3-4.3l8.7,8.7C47.2,50.5,47.7,50.6,48.1,50.5z M47.9,39.3c-0.1,0.4-0.4,0.6-0.7,0.7
		c-0.3,0.1-0.6-0.1-0.9-0.3c-1.1-1.1-4.5-4.5-5.9-5.9c0,0,0,0,0,0l0,0c0,0-0.1-0.1-0.1-0.1c0,0,0,0,0,0l-5.8-5.8
		C34,27.3,34,27,34.1,26.7c0-0.2,0.1-0.6,0.9-0.7c1.2-0.2,2.5-0.2,3.5-0.2c0.1,0,0.1,0,0.2,0l9.5,9.5c0,0.1-0.1,0.3,0,0.4
		C48.4,37.1,48.3,38.2,47.9,39.3z M56.3,26.6c-1.4,1.2-2.7,2.5-4,3.8l-1.2,1.1c-0.3,0.3-0.7,0.6-1,1c-0.2,0.2-0.4,0.4-0.6,0.6
		L41,24.6c0.6-0.6,1.2-1.2,1.8-1.9c1-1,2-2,3-3c0.8-0.9,1.7-1.8,2.4-2.9c0.7-1.2,1.2-2.5,1.6-3.5c0,0,0,0,0,0l11,11
		c-0.1,0-0.1,0-0.2,0.1C59.1,24.6,57.6,25.3,56.3,26.6z M64,22l-0.9,0.9c0,0,0,0,0,0l-12-12l4.8-4.8l12,12
		C66.6,19.4,65.3,20.7,64,22z M69.6,16.4l-12-12L58,4c0.7-0.7,1.5-1.2,2.7-1.5h1.5c4.1,1.1,6.7,4.3,8.3,6.9
		C72.6,12.4,71.2,14.9,69.6,16.4z"/>
</g>
</svg>
