<!-- Generator: Adobe Illustrator 25.0.1, SVG Export Plug-In  -->
<svg version="1.1" xmlns="http://www.w3.org/2000/svg" xmlns:xlink="http://www.w3.org/1999/xlink" x="0px" y="0px" width="53.6px" height="57.6px" viewBox="0 0 53.6 57.6" style="overflow:visible;enable-background:new 0 0 53.6 57.6;" xml:space="preserve">
<style type="text/css">
	.st0{fill:#2A7DE2;}
</style>
<defs>
</defs>
<g>
	<path class="st0" d="M26.8,15.6c-3.2,0-5.8-2.6-5.8-5.8C21,6.6,23.6,4,26.8,4s5.8,2.6,5.8,5.8S30,15.6,26.8,15.6L26.8,15.6z    M26.8,5.6c-2.3,0-4.2,1.9-4.2,4.2s1.9,4.2,4.2,4.2S31,12.1,31,9.8S29.1,5.6,26.8,5.6z"/>
	<path class="st0" d="M10.8,11.6C7.6,11.6,5,9,5,5.8C5,2.6,7.6,0,10.8,0s5.8,2.6,5.8,5.8S14,11.6,10.8,11.6L10.8,11.6z M10.8,1.6   c-2.3,0-4.2,1.9-4.2,4.2S8.5,10,10.8,10S15,8.1,15,5.8S13.1,1.6,10.8,1.6z"/>
	<path class="st0" d="M29.8,57.6c-1.1,0-2.1-0.5-2.9-1.3l-0.2-0.2l-0.2,0.2c-0.7,0.8-1.8,1.3-2.8,1.3c-2.1,0-3.8-1.7-3.8-3.8   c0-9.6,0-12.2,0-14v-2.2l-0.2,0c-0.7,0-1.3-0.2-1.9-0.5l-0.3-0.2v1.9c0,4.8,0,8.5,0,11c0,1-0.4,2-1.1,2.7c-0.1,0.1-0.1,0.1-0.2,0.2   c-0.7,0.6-1.6,0.9-2.5,0.9c-1.1,0-2.1-0.5-2.8-1.3l-0.2-0.2l-0.1,0.2c-0.3,0.3-0.5,0.5-0.9,0.7c-0.6,0.4-1.3,0.6-2,0.6   c-0.7,0-1.3-0.2-1.9-0.5C4.7,52.5,4,51.3,4,50c0-1.7,0-6.3,0-10.3l0-6H3.8c-2.1,0-3.8-1.7-3.8-3.8v-9.6C0,16.9,3.2,14,6.8,14h8   c2.7,0,5.1,1.6,6.2,4.1l0.1,0.2l0.2,0c0.5-0.1,1-0.2,1.6-0.2h8c0.5,0,1,0.1,1.6,0.2l0.2,0l0.1-0.2c1.1-2.5,3.5-4.1,6.2-4.1h8   c3.6,0,6.8,2.9,6.8,6.2v9.6c0,2.1-1.7,3.8-3.8,3.8h-0.2l0,16.4c0,1.3-0.7,2.5-1.9,3.2c-0.6,0.3-1.2,0.5-1.9,0.5   c-0.7,0-1.4-0.2-2-0.6c-0.3-0.2-0.6-0.4-0.9-0.7l-0.2-0.2l-0.2,0.2c-0.7,0.8-1.8,1.3-2.8,1.3c-1,0-2-0.4-2.7-1.1   c-0.7-0.7-1.1-1.7-1.1-2.7c0-2.5,0-6.2,0-11v-2L35.7,37c-0.6,0.4-1.2,0.6-1.9,0.6l-0.2,0V54c-0.1,2.1-1.7,3.6-3.6,3.6L29.8,57.6z    M26.8,42c0.4,0,0.8,0.4,0.8,0.8l0,11c0,1.2,1,2.2,2.2,2.2c0,0,2.2-0.1,2.2-2V24.8c0-0.4,0.4-0.8,0.8-0.8s0.8,0.4,0.8,0.8V36l0.2,0   c1.2-0.1,2.2-1.1,2.2-2.4v-8.8c0-2.9-2.3-5.2-5.2-5.2h-0.4l-2.8,7.5c-0.1,0.2-0.3,0.4-0.5,0.5c-0.1,0-0.2,0.1-0.3,0.1   c-0.3,0-0.6-0.2-0.7-0.5l-2.8-7.5h-0.4c-2.9,0-5.2,2.3-5.2,5.2v9c0,1.2,1,2.2,2.2,2.2H20V24.8c0-0.4,0.4-0.8,0.8-0.8   s0.8,0.4,0.8,0.8l0,15c0,1.8,0,4.5,0,14.1c0,1.2,1,2.1,2.2,2.1h0c1.2,0,2.2-1,2.2-2.2l0-11C26,42.4,26.4,42,26.8,42z M42.8,38   c0.4,0,0.8,0.4,0.8,0.8v11c0,0.8,0.4,1.5,1,1.9c0.4,0.2,0.8,0.3,1.2,0.3c0.4,0,0.8-0.1,1.1-0.3c0.6-0.3,1-1,1-1.7l0-17.2v-12   c0-0.4,0.4-0.8,0.8-0.8s0.8,0.4,0.8,0.8V32h0.2c1.2,0,2.2-1,2.2-2.2v-9.6c0-2.2-2.2-4.6-5.2-4.6h-8c-2,0-3.9,1.2-4.7,3L34,18.8   l0.2,0.1c2.1,1.2,3.4,3.5,3.4,5.9c0,5.4,0,10.1,0,14c0,4.8,0,8.5,0,11c0,1.2,1,2.2,2.2,2.2c1.2,0,2.2-1,2.2-2.2v-11   C42,38.4,42.4,38,42.8,38z M4.8,20c0.4,0,0.8,0.4,0.8,0.8v12c0,0,0,13.9,0,17.2c0,0.7,0.4,1.4,1,1.7C7,51.9,7.4,52,7.8,52   c0.4,0,0.8-0.1,1.2-0.3c0.7-0.4,1.1-1.1,1.1-1.9v-11c0-0.4,0.4-0.8,0.8-0.8s0.8,0.4,0.8,0.8v11c0,1.2,1,2.2,2.2,2.2   c0.6,0,1.1-0.2,1.6-0.6c0.4-0.4,0.6-1,0.6-1.5c0-2.5,0-6.2,0-11c0-3.9,0-8.6,0-14c0-2.4,1.3-4.7,3.4-5.9l0.2-0.1l-0.1-0.2   c-0.8-1.8-2.7-3-4.7-3h-8c-3,0-5.2,2.4-5.2,4.6v9.6c0,1.2,1,2.2,2.2,2.2H4V20.8C4,20.4,4.4,20,4.8,20z M26.8,24.5l1.8-4.9H25   L26.8,24.5z"/>
	<path class="st0" d="M42.8,11.6C39.6,11.6,37,9,37,5.8C37,2.6,39.6,0,42.8,0s5.8,2.6,5.8,5.8S46,11.6,42.8,11.6L42.8,11.6z    M42.8,1.6c-2.3,0-4.2,1.9-4.2,4.2s1.9,4.2,4.2,4.2S47,8.1,47,5.8S45.1,1.6,42.8,1.6z"/>
</g>
</svg>