<!-- Generator: Adobe Illustrator 25.1.0, SVG Export Plug-In  -->
<svg version="1.1" xmlns="http://www.w3.org/2000/svg" xmlns:xlink="http://www.w3.org/1999/xlink" x="0px" y="0px" width="85.1px" height="74.3px" viewBox="0 0 85.1 74.3" style="overflow:visible;enable-background:new 0 0 85.1 74.3;" xml:space="preserve">
<style type="text/css">
	.st0{fill:#216C06;}
</style>
<defs>
</defs>
<path class="st0" d="M8.3,74.3C3.7,74.3,0,70.5,0,66V8.3C0,3.7,3.7,0,8.3,0c0.5,0,0.9,0.4,0.9,0.9v8.4h66.7V0.9  c0-0.5,0.4-0.9,0.9-0.9c2.2,0,4.3,0.9,5.9,2.4c1.6,1.6,2.4,3.7,2.4,5.9V66c0,4.6-3.7,8.3-8.3,8.3H8.3z M9.2,58.6  c0,0.5-0.4,0.9-0.9,0.9c-3.6,0-6.5,2.9-6.5,6.5s2.9,6.5,6.5,6.5h68.5c1.7,0,3.4-0.7,4.6-1.9c1.2-1.2,1.9-2.9,1.9-4.6  c0-3.6-2.9-6.5-6.5-6.5c-0.5,0-0.9-0.4-0.9-0.9V11H9.2V58.6z M7.4,1.8C4.2,2.3,1.8,5,1.8,8.3l0,52.5c0.1-0.1,0.2-0.3,0.3-0.4  l0.1-0.1c0.3-0.4,0.7-0.7,1-0.9c0.4-0.3,0.8-0.5,1.2-0.7l0.2-0.1c0.4-0.2,0.8-0.4,1.2-0.5l0.2,0c0.5-0.1,0.9-0.2,1.3-0.3V1.8z   M77.7,57.7c0.4,0,0.8,0.1,1.2,0.2l0.3,0.1c0.4,0.1,0.8,0.3,1.2,0.5l0.2,0.1c0.4,0.2,0.8,0.4,1.1,0.7c0.4,0.3,0.7,0.6,1,0.9  c0.1,0.1,0.1,0.1,0.2,0.2c0.1,0.1,0.2,0.3,0.3,0.4l0-52.5c0-3.3-2.4-6-5.6-6.4V57.7z M34,63.6c-0.5,0-0.9-0.4-0.9-0.9v-42  c0-0.3,0.1-0.5,0.3-0.7c0.2-0.1,0.3-0.2,0.5-0.2c0.3,0,0.5,0.1,0.7,0.3l32.2,42c0.1,0.2,0.2,0.3,0.2,0.5c0,0.5-0.4,0.9-0.9,0.9H34z   M64.3,61.8L34.9,23.4v9.5h1.1c0.5,0,0.9,0.4,0.9,0.9s-0.4,0.9-0.9,0.9h-1.1v2.2h0.5c0.5,0,0.9,0.4,0.9,0.9s-0.4,0.9-0.9,0.9h-0.5  v2.2h1.1c0.2,0,0.5,0.1,0.6,0.3c0.2,0.2,0.3,0.4,0.3,0.6c0,0.5-0.4,0.9-0.9,0.9h-1.1v2.2h0.5c0.2,0,0.5,0.1,0.6,0.3  c0.2,0.2,0.3,0.4,0.3,0.6c0,0.5-0.4,0.9-0.9,0.9h-0.5v2.2h1.1c0.2,0,0.5,0.1,0.6,0.3c0.2,0.2,0.3,0.4,0.3,0.6c0,0.5-0.4,0.9-0.9,0.9  h-1.1v2.2h0.5c0.2,0,0.5,0.1,0.6,0.3c0.2,0.2,0.3,0.4,0.3,0.6c0,0.5-0.4,0.9-0.9,0.9h-0.5v2.2h1.1c0.3,0,0.5,0.1,0.7,0.3  c0.2,0.2,0.3,0.4,0.3,0.6c0,0.5-0.4,0.9-0.9,0.9h-1.1v3.2H38v-1.1c0-0.5,0.4-0.9,0.9-0.9s0.9,0.4,0.9,0.9v1.1H42v-0.5  c0-0.5,0.4-0.9,0.9-0.9s0.9,0.4,0.9,0.9v0.5H46v-1.1c0-0.5,0.4-0.9,0.9-0.9s0.9,0.4,0.9,0.9v1.1H50v-0.5c0-0.5,0.4-0.9,0.9-0.9  c0.5,0,0.9,0.4,0.9,0.9v0.5H54v-1.1c0-0.5,0.4-0.9,0.9-0.9c0.5,0,0.9,0.4,0.9,0.9v1.1H58v-0.5c0-0.5,0.4-0.9,0.9-0.9h0  c0.2,0,0.5,0.1,0.6,0.3c0.2,0.2,0.3,0.4,0.3,0.6v0.5L64.3,61.8z M22.8,62.8c-0.3,0-0.6-0.2-0.8-0.5l-3.9-6.8  c-0.1-0.2-0.1-0.3-0.1-0.4V24.7c0-2.6,2.1-4.8,4.8-4.8c2.6,0,4.8,2.1,4.8,4.8v30.4c0,0.2,0,0.3-0.1,0.4l-3.9,6.9  c-0.1,0.1-0.2,0.3-0.3,0.3C23.1,62.8,23,62.8,22.8,62.8L22.8,62.8z M22.8,60.1l2.3-4.1h-4.7L22.8,60.1z M25.8,54.2V28.5h-2.1v25.7  H25.8z M21.9,54.2V28.5h-2.1v25.7H21.9z M25.8,26.7v-2.1c0-1.6-1.3-3-3-3l0-0.2v0.2c-1.6,0-3,1.3-3,3v2.1H25.8z M39.9,57.7  c-0.5,0-0.9-0.4-0.9-0.9V38.1c0-0.3,0.1-0.5,0.4-0.7c0.2-0.1,0.3-0.2,0.5-0.2c0.3,0,0.5,0.1,0.7,0.4l14.4,18.7  c0.1,0.2,0.2,0.3,0.2,0.5c0,0.5-0.4,0.9-0.9,0.9H39.9z M52.4,56L40.8,40.8V56H52.4z"/>
</svg>