<!-- Generator: Adobe Illustrator 25.0.1, SVG Export Plug-In  -->
<svg version="1.1" xmlns="http://www.w3.org/2000/svg" xmlns:xlink="http://www.w3.org/1999/xlink" x="0px" y="0px" width="65.4px" height="71.1px" viewBox="0 0 65.4 71.1" style="overflow:visible;enable-background:new 0 0 65.4 71.1;" xml:space="preserve">
<style type="text/css">
	.st0{fill:#510B76;}
</style>
<defs>
</defs>
<path class="st0" d="M45.4,71.1c-0.8,0-1.3-0.5-1.3-1.3V58.7c0-0.8,0.5-1.3,1.3-1.3h5.2c2.1,0,3.8-1.8,3.8-3.8V48  c0-0.8,0.5-1.3,1.3-1.3h6.6l-0.1-0.3c-2.4-8-3.6-12-4.2-14.1c-0.6-2.1-0.6-2.2-0.6-2.3c0-15.1-12.3-27.4-27.3-27.4S2.8,14.9,2.8,30  c0,6.2,2.1,12.1,6,17.1c5.3,6.8,8.6,14.6,9.7,22.5c0,0.6-0.6,1.3-1.2,1.4c-0.6,0-1.3-0.4-1.4-1.2c-0.9-7.5-4.2-15-9.1-21.2  C2.4,43.5,0,36.8,0,30C0,13.4,13.5,0,30.1,0c16.4,0,29.8,13.4,30,29.8l5.3,17.8c0,0.4,0,0.8-0.3,1.2c-0.2,0.3-0.6,0.5-1,0.5h-7v4.3  c0,3.5-3,6.5-6.5,6.5h-3.8v9.7C46.7,70.6,46.2,71.1,45.4,71.1z"/>
<path class="st0" d="M31,53.7c-2.9,0-5.5-4-6.8-10.7l0-0.2L24,42.8c-3.1,1-5.8,1.6-7.9,1.6c0,0,0,0,0,0c-2.4,0-4.1-0.7-4.9-2.1  c-2.2-3.7,3.3-9,5.7-11.1l0.2-0.1l-0.2-0.2c-5.1-4.6-7.2-8.8-5.7-11.4c0.8-1.4,2.5-2.2,5.1-2.2c2.7,0,5.7,0.8,7.7,1.5l0.2,0.1l0-0.2  c0.8-3.9,2.7-10.4,6.6-10.4c2.9,0,5.5,4,6.8,10.7l0,0.2l0.2-0.1c3.1-1,5.8-1.6,7.9-1.6c2.4,0,4.1,0.7,4.9,2.1  c1.5,2.5-0.6,6.5-5.7,11.1l-0.2,0.1L45,31c3,2.7,7.8,7.9,5.7,11.4c-0.8,1.4-2.5,2.2-5.1,2.2c-2.7,0-5.7-0.8-7.7-1.5L37.7,43l0,0.2  C36.9,47.2,35,53.7,31,53.7z M30.5,40.1c-1.3,0.6-2.6,1.2-3.8,1.7l-0.2,0.1l0,0.2c1.2,6,3.1,9.1,4.3,9.1c1.2,0,3.1-3.1,4.1-8.8  l0-0.2l-1.1-0.5c-1.1-0.5-2.2-1-3.3-1.5L30.5,40.1L30.5,40.1z M41.8,33.1c-1,0.8-2.1,1.6-3.2,2.3l-0.1,0.1l-0.5,4.8l0.1,0.1  c1.4,0.5,5.1,1.6,7.6,1.6c1.3,0,2.2-0.3,2.5-0.9c1.3-2.2-4.8-7.8-5.5-8.4l-0.1-0.1L41.8,33.1z M18.9,32.8c-1.5,1.2-6.7,6.1-5.5,8.1  c0.3,0.5,1.1,0.8,2.3,0.8c2.7,0,6.6-1.2,7.8-1.6l0.1-0.1l-0.5-4.3l-0.1-0.1c-1.3-0.9-2.7-1.8-3.9-2.9L19,32.7L18.9,32.8z M35.5,37.5  c-0.5,0.3-0.8,0.4-0.9,0.5c-0.2,0.1-0.2,0.1-0.5,0.3l-0.5,0.4l0.3,0.1c0.2,0.1,0.4,0.2,0.7,0.3c0.2,0.1,0.5,0.2,0.7,0.3l0.3,0.1  v-0.3c0-0.3,0-0.6,0.1-0.8c0-0.2,0.1-0.5,0.1-0.7v-0.3L35.5,37.5z M26,37.8c0,0.3,0,0.5,0.1,0.7c0,0.1,0.1,0.3,0.1,0.4v0.3l1.4-0.7  l-0.2-0.2c-0.1-0.1-0.3-0.2-0.6-0.3c-0.2-0.1-0.4-0.2-0.5-0.3L26,37.4V37.8z M30.9,24.8c-1.5,0.7-2.6,1.4-3.9,2.1  c-0.4,0.2-0.8,0.5-1.3,0.8l-0.1,0.1v6.6l0.1,0.1c1.2,0.9,2.5,1.5,3.8,2.2l1,0.5l0.1,0c2-0.9,3.4-1.7,5.2-2.9l0.1-0.1l0-0.1  c0.2-2.3,0.2-4.1,0-6.4l0-0.1l-0.1-0.1c-0.4-0.2-0.7-0.5-1.1-0.7c-1.1-0.7-2.2-1.4-3.6-2.1L30.9,24.8L30.9,24.8z M22.7,29.8  c-0.4,0.2-0.7,0.5-1.1,0.7c-0.2,0.1-0.3,0.3-0.5,0.4L21,31l0.2,0.2c0.2,0.2,0.5,0.3,0.8,0.5c0.3,0.2,0.5,0.4,0.8,0.5l0.3,0.2v-2.8  L22.7,29.8z M38.7,32.1L39,32c0.4-0.2,0.8-0.5,1.1-0.7c0.2-0.1,0.3-0.3,0.5-0.4l0.2-0.2l-0.2-0.2c-0.2-0.1-0.5-0.3-0.7-0.5  c-0.3-0.2-0.5-0.4-0.8-0.5l-0.3-0.2V32.1z M15.9,19.9c-1.3,0-2.2,0.3-2.5,0.9c-0.9,1.4,1.3,4.7,5.5,8.4l0.1,0.1l0.9-0.6  c1-0.8,2.1-1.6,3.2-2.3l0.1-0.1l0.5-4.8l-0.1-0.1C21.8,20.8,18.3,19.9,15.9,19.9z M46,20c-2.5,0-6.3,1-7.7,1.6l-0.1,0.1l0.5,4.3  l0.1,0.1c1.3,0.9,2.7,1.8,3.9,2.9l0.1,0.1l0.1-0.1c4-3.5,6.3-6.8,5.5-8.1C48,20.2,47.2,20,46,20z M26.1,22.5c0,0.3,0,0.6-0.1,0.8  c0,0.2-0.1,0.5-0.1,0.7v0.3l0.3-0.2c0.5-0.3,0.8-0.4,0.9-0.5c0.2-0.1,0.2-0.1,0.5-0.3l0.5-0.4l-0.3-0.1c-0.2-0.1-0.4-0.2-0.7-0.3  c-0.2-0.1-0.5-0.2-0.7-0.3l-0.3-0.1V22.5z M34.2,23.2l0.2,0.2c0.1,0.1,0.3,0.2,0.6,0.3c0.2,0.1,0.4,0.2,0.5,0.3l0.3,0.3v-0.5  c0-0.3,0-0.5-0.1-0.7c0-0.1-0.1-0.3-0.1-0.4v-0.3L34.2,23.2z M30.9,10.7c-1.2,0-3.1,3.1-4.1,8.8l0,0.2c0,0,0.8,0.3,1.1,0.5  c1.1,0.5,2.2,1,3.2,1.5l0.1,0.1l0.1,0c1.3-0.6,2.6-1.2,3.8-1.7l0.2-0.1l0-0.2C33.9,13.8,32.1,10.7,30.9,10.7z"/>
<path class="st0" d="M30.9,32.2c-0.3,0-0.7-0.1-0.9-0.4c-0.3-0.3-0.4-0.6-0.4-0.9c0-0.3,0.1-0.7,0.4-0.9c0.3-0.3,0.6-0.4,0.9-0.4  c0.3,0,0.7,0.1,0.9,0.4c0.3,0.3,0.4,0.6,0.4,0.9c0,0.3-0.1,0.7-0.4,0.9C31.5,32,31.2,32.2,30.9,32.2z"/>
</svg>