<!-- Generator: Adobe Illustrator 25.0.1, SVG Export Plug-In  -->
<svg version="1.1" xmlns="http://www.w3.org/2000/svg" xmlns:xlink="http://www.w3.org/1999/xlink" x="0px" y="0px" width="52.7px" height="54.8px" viewBox="0 0 52.7 54.8" style="overflow:visible;enable-background:new 0 0 52.7 54.8;" xml:space="preserve">
<style type="text/css">
	.st0{fill:#002857;}
</style>
<defs>
</defs>
<path class="st0" d="M16.5,5.6v34.3c-2.1-1.7-5.3-2.5-8.4-2c-2.5,0.5-4.7,1.8-6.2,3.6c-1.6,1.9-2.2,4.2-1.7,6.5  c0.5,2.3,1.9,4.2,4,5.4c1.5,0.8,3.2,1.3,5,1.3c0.7,0,1.4-0.1,2.2-0.2c2.5-0.5,4.7-1.8,6.2-3.6c1.2-1.5,1.8-3.2,1.8-4.9V17.9  l30.5-4.7v21.6c-2.1-1.7-5.3-2.5-8.4-2c-5.3,1-8.8,5.6-8,10.2c0.8,3.9,4.6,6.6,9,6.6c0.7,0,1.4-0.1,2.1-0.2c4.7-0.9,8-4.6,8.1-8.5V0  L16.5,5.6z M15.3,49.1c-1.1,1.3-2.7,2.3-4.5,2.6C9,52.1,7.1,51.8,5.6,51c-1.4-0.8-2.4-2-2.6-3.4c-0.3-1.4,0.1-2.9,1.2-4.2  c1.1-1.3,2.7-2.3,4.5-2.6c0.5-0.1,1.1-0.2,1.6-0.2c3.1,0,5.7,1.7,6.2,4.3C16.7,46.4,16.3,47.8,15.3,49.1z M44.2,46.5  c-3.7,0.8-7.2-1.2-7.8-4.2c-0.6-3,2-6.1,5.7-6.8c0.5-0.1,1.1-0.2,1.6-0.2c3.1,0,5.7,1.7,6.2,4.3C50.4,42.8,47.9,45.8,44.2,46.5z   M49.9,10.2l-30.5,4.7V8l30.5-4.7V10.2z"/>
</svg>