<!-- Generator: Adobe Illustrator 25.0.1, SVG Export Plug-In  -->
<svg version="1.1" xmlns="http://www.w3.org/2000/svg" xmlns:xlink="http://www.w3.org/1999/xlink" x="0px" y="0px" width="63.2px"
	 height="68.2px" viewBox="0 0 63.2 68.2" style="overflow:visible;enable-background:new 0 0 63.2 68.2;" xml:space="preserve">
<style type="text/css">
	.st0{fill:none;stroke:#7D91A8;stroke-width:2.5;stroke-miterlimit:10;}
</style>
<defs>
</defs>
<g>
	<polygon class="st0" points="53.7,23.3 35.9,23.3 18.2,23.3 18.2,15.6 18.2,8 35.9,8 53.7,8 61.5,15.6 	"/>
	<polygon class="st0" points="9.6,45.3 27.4,45.3 45,45.3 45,37.5 45,29.9 27.4,29.9 9.6,29.9 1.8,37.5 	"/>
	<polyline class="st0" points="33.7,45.3 33.7,67 25.6,67 25.6,45.3 	"/>
	<line class="st0" x1="33.7" y1="23.3" x2="33.7" y2="29.9"/>
	<polyline class="st0" points="25.6,8 25.6,1.2 33.7,1.2 33.7,8 	"/>
	<line class="st0" x1="25.6" y1="29.9" x2="25.6" y2="23.3"/>
</g>
</svg>
