<!-- Generator: Adobe Illustrator 25.0.1, SVG Export Plug-In  -->
<svg version="1.1" xmlns="http://www.w3.org/2000/svg" xmlns:xlink="http://www.w3.org/1999/xlink" x="0px" y="0px" width="92.5px"
	 height="110.5px" viewBox="0 0 92.5 110.5" style="overflow:visible;enable-background:new 0 0 92.5 110.5;" xml:space="preserve">
<style type="text/css">
	.st0{fill:#7D91A8;}
</style>
<defs>
</defs>
<g>
	<g>
		<path class="st0" d="M90.4,93L72.6,68.1c-0.5-0.7-1.6-1-2.4-0.3l-2.8,1.9c-0.3,0.2-0.6,0.1-0.8-0.1l-5.5-7.7
			c-0.2-0.2-0.1-0.5,0.1-0.7c12.6-12,14.7-31.7,4.3-46.2C54-0.9,31.5-4.9,15.2,6.6C-1,17.9-4.9,40.2,6.6,56.4
			C16.8,70.6,36.1,75.6,52,67.8c0.2-0.1,0.5-0.1,0.7,0.2l5.5,7.7c0.2,0.3,0.1,0.6-0.1,0.8l-2.8,1.9c-0.3,0.3-0.7,0.7-0.7,1.2
			s0,0.9,0.3,1.4l17.8,24.9c3.5,4.9,10.3,6.1,15.2,2.6C92.8,104.8,94.1,97.9,90.4,93z M9.6,54.3c-10.4-14.5-7-34.5,7.7-44.9
			c14.8-10.3,35-6.8,45.3,7.7c9.8,13.6,7.3,32.2-5.1,42.8l0,0l0,0c-0.9,0.7-1.6,1.4-2.4,1.9C40.1,72.3,19.9,68.6,9.6,54.3z
			 M55.4,65.6c0.5-0.3,0.9-0.5,1.4-0.9c0.5-0.3,0.9-0.7,1.2-1l5.6,7.7c0.2,0.3,0.1,0.6-0.1,0.8l-1.7,1.2c-0.3,0.2-0.6,0.1-0.8-0.1
			L55.4,65.6z M85.9,105.3c-3.3,2.4-8,1.6-10.4-1.7L59,80.6c-0.2-0.3-0.1-0.6,0.1-0.8c6.3-4.5-2.2,1.5,11.2-7.9
			c0.3-0.2,0.6-0.1,0.8,0.1l16.4,23.1C90.1,98.4,89.2,103.1,85.9,105.3z"/>
	</g>
	<g>
		<path class="st0" d="M59.6,51.7V33.3c0-0.2,0.1-0.3,0.2-0.4c0.4-0.3,0.6-0.8,0.6-1.2v-9.9c0-2-1.7-3.7-3.7-3.7H45.5v-1.4
			c0-3.8-3.1-6.8-6.8-6.8h-5.1c-3.8,0-6.8,3.1-6.8,6.8v1.4H15.6c-2,0-3.7,1.7-3.7,3.7v9.9c0,0.4,0.2,1,0.6,1.3
			c0.1,0.1,0.2,0.2,0.2,0.4v17.8c0,2,1.7,3.7,3.7,3.7h40.4C58.2,54.8,59.6,53.4,59.6,51.7z M30.1,16.5c0-1.9,1.6-3.3,3.3-3.3h5.1
			c1.9,0,3.3,1.6,3.3,3.3v1.4H30v-1.4H30.1z M28.4,21.6h15.3h12.7c0.3,0,0.6,0.3,0.6,0.6v8.3l0,0l-14.9,5.6
			c-0.4,0.1-0.8-0.1-0.8-0.5v-0.2c0-1.3-1-2.3-2.3-2.3h-5.8c-1.3,0-2.3,1-2.3,2.3v0c0,0.4-0.4,0.7-0.8,0.5l-14.9-5.6l0,0V22
			c0-0.3,0.3-0.6,0.6-0.6h12.7V21.6z M37.2,41.8h-2.3c-0.3,0-0.6-0.3-0.6-0.6v-4.1c0-0.3,0.3-0.6,0.6-0.6h2.3c0.3,0,0.6,0.3,0.6,0.6
			v4.1C37.8,41.5,37.6,41.8,37.2,41.8z M15.9,50.8V35.3c0-0.4,0.4-0.7,0.8-0.5l13.7,5.1c0.2,0.1,0.4,0.3,0.4,0.5v2.5
			c0,1.3,1,2.3,2.3,2.3h5.8c1.3,0,2.3-1,2.3-2.3v-2.5c0-0.2,0.1-0.4,0.4-0.5l13.7-5.1c0.4-0.1,0.8,0.1,0.8,0.5v15.5
			c0,0.3-0.3,0.6-0.6,0.6H16.4C16.1,51.4,15.9,51.1,15.9,50.8z"/>
	</g>
</g>
</svg>
