<!-- Generator: Adobe Illustrator 25.0.1, SVG Export Plug-In  -->
<svg version="1.1" xmlns="http://www.w3.org/2000/svg" xmlns:xlink="http://www.w3.org/1999/xlink" x="0px" y="0px" width="70.1px"
	 height="70.1px" viewBox="0 0 70.1 70.1" style="overflow:visible;enable-background:new 0 0 70.1 70.1;" xml:space="preserve">
<style type="text/css">
	.st0{fill:#7D91A8;}
</style>
<defs>
</defs>
<g transform="translate(0,-952.36218)">
	<path class="st0" d="M35.1,1022.5c-19.3,0-35.1-15.7-35.1-35.1s15.7-35.1,35.1-35.1s35.1,15.7,35.1,35.1S54.4,1022.5,35.1,1022.5z
		 M35.1,955.2c-17.8,0-32.3,14.5-32.3,32.3c0,17.8,14.5,32.3,32.3,32.3s32.3-14.5,32.3-32.3C67.3,969.6,52.8,955.2,35.1,955.2z
		 M24,1004.1c-0.4,0-0.7-0.1-1-0.4c-0.3-0.3-0.4-0.6-0.4-1v-30.5c0-0.7,0.6-1.3,1.3-1.4l0.1,0c0.2,0,0.5,0.1,0.7,0.2L52,986.2
		c0.4,0.2,0.7,0.7,0.7,1.2c0,0.5-0.3,1-0.7,1.3l-27.2,15.2C24.5,1004,24.3,1004.1,24,1004.1L24,1004.1z M25.4,1000.3l23-12.8
		l-23-12.8V1000.3z"/>
</g>
</svg>
