<!-- Generator: Adobe Illustrator 25.0.1, SVG Export Plug-In  -->
<svg version="1.1" xmlns="http://www.w3.org/2000/svg" xmlns:xlink="http://www.w3.org/1999/xlink" x="0px" y="0px" width="86.5px"
	 height="93.1px" viewBox="0 0 86.5 93.1" style="overflow:visible;enable-background:new 0 0 86.5 93.1;" xml:space="preserve">
<style type="text/css">
	.st0{fill:#880364;}
</style>
<defs>
</defs>
<g transform="translate(0,-952.36218)">
	<path class="st0" d="M48.7,1045.4c-0.3,0-0.7-0.2-1-0.4s-0.4-0.6-0.4-1v-16.5c0-0.2,0-0.5,0-0.8c0-2.5-0.1-7.6,2.5-11.1
		c1.4-2,2.9-3.1,5.3-4.7c4-2.8,8-5.8,11.5-8.8c1.1-0.9,2.5-1.4,3.8-1.4c1,0,2,0.3,2.8,0.8l1.3,0.8L73.8,988c0-0.1,0-0.3,0-0.4
		c0-2.6,2.3-4,4.5-4.2c0.2,0,0.4,0,0.6,0c2.3,0,4.8,1.2,5.4,4.4c0.5,4.3,0.9,8.8,1.2,13.1c0.3,3.7,0.6,7.5,1,11.2c0,0,0,0,0,0.1
		c0,3.7-2.4,6.2-3.5,7.4l-0.2,0.2c-1.5,1.4-3.2,2.9-5,4.4c-3.3,2.8-6.7,5.7-9.7,9.2l-0.2,0.3l1,10.4c0.1,0.7-0.6,1.5-1.3,1.5
		c0,0-0.1,0-0.1,0c-0.7,0-1.4-0.6-1.4-1.3l-1.1-11c0-0.3,0.1-0.7,0.3-1c2.2-2.8,5.2-5.3,8.3-7.9c2.4-2.1,5-4.2,7.3-6.6
		c1.4-1.5,2.8-3.3,2.8-5.5l0-0.1l-0.5-6c-0.5-5.9-1.1-12-1.7-17.9c-0.4-2.1-1.5-2.4-2.2-2.4c-1,0-2,0.8-2.4,1.3
		c-0.1,0.1-0.4,0.4-0.3,0.8c0.2,4,0.4,8.1,0.6,12.3c0.2,2.9,0.3,5.8,0.5,8.6c0,0.4-0.2,0.8-0.5,1.1l-9.4,8.6
		c-0.2,0.2-0.6,0.3-0.9,0.3c-0.4,0-0.8-0.2-1.1-0.4c-0.2-0.3-0.3-0.6-0.3-1s0.2-0.7,0.4-1l2-1.8c1.9-1.8,3.9-3.6,5.8-5.3
		c0.3-0.3,0.5-0.7,0.4-1.4c-0.1-1.2-1-2.8-2.2-3.8c-0.4-0.3-0.9-0.5-1.5-0.5c-0.6,0-1.3,0.3-2,0.9c-3.5,2.9-7.2,5.6-11.7,8.9
		c-2.4,1.7-3.4,2.4-4.6,4.1c-1.8,2.5-1.9,9.4-1.9,10.2v16.5c0,0.4-0.2,0.7-0.4,1C49.4,1045.3,49.1,1045.4,48.7,1045.4z M37.7,1045.4
		c-0.3,0-0.7-0.2-1-0.4c-0.3-0.3-0.4-0.6-0.4-1v-16.5c0-0.8-0.1-7.7-1.9-10.2c-1.2-1.7-2.3-2.4-4.6-4.1c-4.1-2.9-8-5.9-11.6-8.9
		c-0.8-0.6-1.4-0.9-2.1-0.9c-0.6,0-1.1,0.3-1.4,0.5c-1.1,0.7-1.8,2.2-1.9,3.8c0,0.2-0.1,0.4-0.1,0.5l-0.3,0.5l8.2,7.5
		c0.3,0.2,0.4,0.6,0.4,1c0,0.4-0.1,0.8-0.3,1c-0.2,0.3-0.6,0.4-1.1,0.4c-0.4,0-0.7-0.1-0.9-0.3l-9.4-8.6c-0.3-0.3-0.5-0.7-0.5-1.1
		l0.3-4.9c0.3-5.3,0.6-10.6,0.8-15.8l0.2-0.2l-0.2-0.5c-0.2-0.6-1.5-1.6-2.7-1.6c-0.7,0-1.8,0.3-2.2,2.4c-0.5,4.7-0.9,9.5-1.3,14.1
		c-0.3,3.3-0.6,6.6-0.9,9.9l0,0.1l0,0.1c0,2.1,1.3,3.8,2.4,5c0.5,0.6,1,1.1,1.6,1.6c1.3,1.2,2.8,2.4,4.3,3.7c3.6,3,7.4,6.1,10.1,9.8
		c0.2,0.3,0.3,0.6,0.3,1l-1.1,11c-0.1,0.7-0.8,1.3-1.4,1.3c0,0-0.1,0-0.1,0c-0.7-0.1-1.3-0.8-1.3-1.5l1-10.3l-0.2-0.2
		c-2.3-3.1-5.5-5.7-8.6-8.2c-2.1-1.7-4.3-3.5-6.2-5.4l-0.2-0.2c-1.1-1.2-3.4-3.7-3.5-7.3c0.3-3.9,0.7-8,1.1-11.9
		c0.3-3.3,0.7-6.7,0.9-10.1c0-0.2,0-0.5,0.1-0.7c0.1-0.8,0.1-1.6,0.3-2.3c0.6-2.2,2.4-3.6,4.9-3.8c0.2,0,0.4,0,0.6,0
		c0.1,0,0.3,0,0.4,0c1.5,0.1,2.9,0.8,3.7,1.8c0.6,0.8,0.9,1.7,0.8,2.8l-0.1,0.9h0.1l-0.7,13.6l1.3-0.8c0.8-0.5,1.8-0.8,2.8-0.8
		c1.4,0,2.7,0.5,3.8,1.4c3.5,2.9,7.1,5.6,11.5,8.8c2.4,1.7,3.9,2.8,5.3,4.7c2.6,3.5,2.5,8.6,2.5,11.1c0,0.3,0,0.6,0,0.8v16.5
		c0,0.4-0.2,0.7-0.4,1C38.4,1045.3,38.1,1045.4,37.7,1045.4z M43.2,1008c-0.4,0-0.7-0.1-1-0.4c-1.7-1.6-3-3.8-3.9-6.6l-0.1-0.4
		l-0.4-0.1c-2.8-0.9-5.1-2.2-6.7-3.9c-0.5-0.5-0.5-1.4,0-1.9c1.6-1.7,3.9-3,6.7-3.9l0.4-0.1l0.1-0.4c0.9-2.8,2.2-5,3.9-6.6
		c0.2-0.2,0.5-0.3,0.8-0.4c0.1,0,0.1,0,0.2,0c0.4,0,0.7,0.1,1,0.4c1.7,1.6,3,3.8,3.9,6.6l0.1,0.4l0.4,0.1c2.8,0.9,5.1,2.2,6.7,3.9
		c0.5,0.5,0.5,1.4,0,1.9c-1.6,1.7-3.9,3-6.7,3.9l-0.4,0.1l-0.1,0.4c-0.9,2.8-2.2,5-3.9,6.6C44,1007.8,43.6,1008,43.2,1008z
		 M42.6,987.7c-1,1.5-1.6,2.8-1.9,4.2c-0.1,0.5-0.5,0.9-1,1.1c-1.5,0.3-2.8,0.9-4.3,1.9l-1,0.7l1,0.7c1.4,0.9,2.8,1.5,4.3,1.9
		c0.5,0.1,0.9,0.6,1,1c0.3,1.4,1,2.8,1.9,4.3l0.7,1l0.7-1c0.9-1.4,1.6-2.8,1.9-4.3c0.1-0.5,0.5-0.9,1-1.1c1.5-0.4,2.9-1,4.3-1.9
		l1-0.7l-1-0.7c-1.5-0.9-2.8-1.5-4.3-1.9c-0.5-0.1-0.9-0.6-1-1c-0.3-1.4-0.9-2.8-1.9-4.2l-0.7-1L42.6,987.7z M62,985.9
		c-0.4,0-0.7-0.1-1-0.4c-1.3-1.3-2.4-3-3.1-5.2l-0.1-0.4l-0.4-0.1c-2.2-0.7-4-1.8-5.3-3.1c-0.5-0.5-0.5-1.4,0-1.9
		c1.3-1.3,3-2.4,5.3-3.1l0.4-0.1l0.1-0.4c0.7-2.2,1.8-4,3.1-5.2c0.2-0.2,0.5-0.3,0.8-0.4c0.1,0,0.1,0,0.2,0c0.4,0,0.7,0.1,1,0.4
		c1.3,1.2,2.4,3,3.1,5.2l0.1,0.4l0.4,0.1c2.2,0.7,4,1.8,5.3,3.1c0.5,0.5,0.5,1.4,0,1.9c-1.3,1.3-3,2.4-5.3,3.1l-0.4,0.1l-0.1,0.4
		c-0.7,2.3-1.8,4-3.1,5.2C62.7,985.8,62.3,985.9,62,985.9z M61.3,970.1c-0.5,0.9-0.8,1.8-1.1,2.8c-0.1,0.5-0.5,0.9-1,1.1
		c-1,0.2-2,0.6-2.8,1.1l-1.3,0.7l1.3,0.7c0.9,0.5,1.8,0.8,2.8,1.1c0.5,0.1,0.9,0.5,1,1c0.2,1,0.6,2,1.1,2.8l0.7,1.3l0.7-1.3
		c0.5-0.9,0.8-1.8,1.1-2.8c0.1-0.5,0.5-0.9,1-1c1-0.2,2-0.6,2.8-1.1l1.3-0.7l-1.3-0.7c-0.9-0.5-1.8-0.8-2.8-1.1
		c-0.5-0.1-0.9-0.6-1-1c-0.2-1-0.6-2-1.1-2.8l-0.7-1.3L61.3,970.1z M24.5,985.9c-0.4,0-0.7-0.1-1-0.4c-1.3-1.3-2.4-3-3.1-5.2
		l-0.1-0.4l-0.4-0.1c-2.2-0.7-4-1.8-5.3-3.1c-0.5-0.5-0.5-1.4,0-1.9c1.3-1.3,3-2.4,5.3-3.1l0.4-0.1l0.1-0.4c0.7-2.2,1.8-4,3.1-5.2
		c0.2-0.2,0.5-0.3,0.8-0.4c0.1,0,0.1,0,0.2,0c0.4,0,0.7,0.1,1,0.4c1.3,1.2,2.4,3,3.1,5.2l0.1,0.4l0.4,0.1c2.2,0.7,4,1.8,5.3,3.1
		c0.5,0.5,0.5,1.4,0,1.9c-1.3,1.3-3,2.4-5.3,3.1l-0.4,0.1l-0.1,0.4c-0.7,2.3-1.8,4-3.1,5.2C25.2,985.8,24.9,985.9,24.5,985.9z
		 M23.8,970.1c-0.5,0.9-0.8,1.8-1.1,2.8c-0.1,0.5-0.5,0.9-1,1.1c-1,0.2-2,0.6-2.8,1.1l-1.3,0.7l1.3,0.7c0.9,0.5,1.8,0.8,2.8,1.1
		c0.5,0.1,0.9,0.5,1,1c0.2,1,0.6,2,1.1,2.8l0.7,1.3l0.7-1.3c0.5-0.9,0.8-1.8,1.1-2.8c0.1-0.5,0.5-0.9,1-1c1-0.2,2-0.6,2.8-1.1
		l1.3-0.7l-1.3-0.7c-0.9-0.5-1.8-0.8-2.8-1.1c-0.5-0.1-0.9-0.6-1-1c-0.2-1-0.6-2-1.1-2.8l-0.7-1.3L23.8,970.1z M43.2,972.7
		c-0.4,0-0.7-0.1-1-0.4c-1.3-1.3-2.4-3-3.1-5.2l-0.1-0.4l-0.4-0.1c-2.2-0.7-4-1.8-5.3-3.1c-0.5-0.5-0.5-1.4,0-1.9
		c1.3-1.3,3-2.4,5.3-3.1l0.4-0.1l0.1-0.4c0.7-2.2,1.8-4,3.1-5.2c0.2-0.2,0.5-0.3,0.8-0.4c0.1,0,0.1,0,0.2,0c0.4,0,0.7,0.1,1,0.4
		c1.3,1.2,2.4,3,3.1,5.2l0.1,0.4l0.4,0.1c2.2,0.7,4,1.8,5.3,3.1c0.5,0.5,0.5,1.4,0,1.9c-1.3,1.3-3,2.4-5.3,3.1l-0.4,0.1l-0.1,0.4
		c-0.7,2.3-1.8,4-3.1,5.2C44,972.6,43.6,972.7,43.2,972.7z M42.5,956.9c-0.5,0.9-0.8,1.8-1.1,2.8c-0.1,0.5-0.5,0.9-1,1.1
		c-1,0.2-2,0.6-2.8,1.1l-1.3,0.7l1.3,0.7c0.9,0.5,1.8,0.8,2.8,1.1c0.5,0.1,0.9,0.5,1,1c0.2,1,0.6,2,1.1,2.8l0.7,1.3l0.7-1.3
		c0.5-0.9,0.8-1.8,1.1-2.8c0.1-0.5,0.5-0.9,1-1c1-0.2,2-0.6,2.8-1.1l1.3-0.7l-1.3-0.7c-0.9-0.5-1.8-0.8-2.8-1.1
		c-0.5-0.1-0.9-0.6-1-1c-0.2-1-0.6-2-1.1-2.8l-0.7-1.3L42.5,956.9z"/>
</g>
</svg>
