<!-- Generator: Adobe Illustrator 25.0.1, SVG Export Plug-In  -->
<svg version="1.1" xmlns="http://www.w3.org/2000/svg" xmlns:xlink="http://www.w3.org/1999/xlink" x="0px" y="0px" width="88.4px"
	 height="63.4px" viewBox="0 0 88.4 63.4" style="overflow:visible;enable-background:new 0 0 88.4 63.4;" xml:space="preserve">
<style type="text/css">
	.st0{fill:#510B76;}
</style>
<defs>
</defs>
<path class="st0" d="M1.7,63.4c-1,0-1.7-0.7-1.7-1.7v-50c0-1,0.7-1.7,1.7-1.7h25.8V1.7c0-1,0.7-1.7,1.7-1.7h30c1,0,1.7,0.7,1.7,1.7
	V10h25.8c1,0,1.7,0.7,1.7,1.7v50c0,1-0.7,1.7-1.7,1.7H1.7z M3.4,60H85V26.9l-1.4,1.4c-3.2,3.3-7.4,5.1-11.9,5.1H50.9v3.3
	c0,1-0.7,1.7-1.7,1.7h-10c-1,0-1.7-0.7-1.7-1.7v-3.3H16.7c-4.5,0-8.8-1.8-11.9-5.1l-1.4-1.4V60z M40.9,35h6.6v-6.6h-6.6V35z
	 M49.2,25c1,0,1.7,0.7,1.7,1.7V30h20.8C79,30,85,24,85,16.7v-3.3H3.4v3.3C3.4,24,9.4,30,16.7,30h20.8v-3.3c0-1,0.7-1.7,1.7-1.7H49.2
	z M30.9,10h26.6V3.4H30.9V10z"/>
</svg>