<svg xmlns="http://www.w3.org/2000/svg" viewBox="0 0 259.26 45.98"><defs><style>.cls-1{fill:#234075;}.cls-1,.cls-2,.cls-3{fill-rule:evenodd;}.cls-2{fill:#e3a82b;}.cls-3{fill:#fffffe;}</style></defs><g id="Layer_2" data-name="Layer 2"><g id="Layer_1-2" data-name="Layer 1"><path class="cls-1" d="M75.6,8.41A.94.94,0,0,1,75.77,7c1.55.12,4.14.17,5.92.17,1.61,0,4.54,0,6.55-.17.52.17.46,1,.12,1.37L87,8.53c-1.21.11-1.9.45-1.9,1,0,.68,1.21,3.59,3,7.65,3.21,7.14,6.61,14.27,9.94,21.3,1.38-2.86,2.93-6.06,4.42-9.25a10.39,10.39,0,0,0,.92-2.34,4.87,4.87,0,0,0-.46-1.49q-3-6.9-6.32-13.7c-.86-1.77-1.72-3-3.67-3.14l-1.38-.12A.87.87,0,0,1,91.69,7c1.67.12,3.85.17,6.15.17,2.87,0,5,0,6.32-.17.4.17.46.92.11,1.37l-1.49.12c-2.24.17-2.3.57-1.21,3.14q2.18,5,4.43,9.93c1.09-2.22,2.12-4.39,3.39-7.48,2.07-4.85,1.78-5.48-.06-5.59l-1.72-.12c-.4-.57-.29-1.2.11-1.37,1.55.12,3.28.17,5.4.17,1.9,0,4.19,0,5.52-.17.4.17.46.92.11,1.37l-1.66.12c-2.42.17-3.45,2.74-4.71,5.08-1.21,2.11-3.62,7.08-4.49,9.08a4.76,4.76,0,0,0-.51,1.37,4.23,4.23,0,0,0,.4,1.37c2,4.4,4,8.68,5.86,13q2.67-6,5.17-12.05C120,23.66,123,16.07,123.41,15a35.16,35.16,0,0,0,1.72-5.2c0-.8-.69-1.25-1.9-1.31l-1.66-.12c-.46-.51-.4-1.14.06-1.37,2.18.12,3.73.18,5.51.18,2.19,0,3.86-.06,5.35-.18.46.18.51.92.11,1.37l-1.09.12c-2.87.28-3.39,2-6.84,9.93l-4.19,9.65q-3.78,8.69-7.18,17.53a1.18,1.18,0,0,1-.69.17,1.78,1.78,0,0,1-.81-.17c-1.84-5.08-5.17-12.22-7-16.21a171.9,171.9,0,0,0-7.18,16.21,1.2,1.2,0,0,1-.69.17,2.27,2.27,0,0,1-.86-.17c-1-2.4-3.22-7.54-4-9.19-3.68-7.94-7.24-15.88-11-23.81C80.08,10.3,79.39,8.76,77,8.53L75.6,8.41Zm58.8,14.9c-3.79,0-6.6,3.6-6.6,9.88,0,5.2,2.35,10.8,7.41,10.8s6.61-5.26,6.61-9.65c0-4.86-2-11-7.42-11m12.35,10.1c0,7.14-4.94,12.28-12.12,12.28-6.61,0-11.76-4.63-11.76-11.76A12,12,0,0,1,135.09,21.6a11.44,11.44,0,0,1,11.66,11.82m4.12-4.91c0-2.22,0-2.51-1.55-3.54l-.52-.34a.78.78,0,0,1,.06-1,44.27,44.27,0,0,0,5.8-2.8c.29.06.46.18.46.4v3.32c0,.28.06.45.17.51,2-1.66,4.2-3.43,6.33-3.43a2.37,2.37,0,0,1,2.58,2.29,2.53,2.53,0,0,1-2.45,2.62h0a2.2,2.2,0,0,1-1.26-.4,4.74,4.74,0,0,0-2.53-.91,2.55,2.55,0,0,0-2.07,1.14c-.58.8-.75,2.46-.75,4.4V38.5c0,4.11.12,4.8,2.3,5l2.07.17a1,1,0,0,1-.11,1.43c-2.7-.11-4.37-.17-6.38-.17s-3.79.06-5.29.17a1,1,0,0,1-.11-1.43l1.09-.17c2.12-.34,2.18-.85,2.18-5Zm17-15.82c0-3.36-.06-3.71-1.78-4.73l-.58-.35a.86.86,0,0,1,0-1.14,39.68,39.68,0,0,0,6.21-2.4.62.62,0,0,1,.57.35c-.05,1.71-.17,4.56-.17,7.08V31.08c0,.74.06.86,1,.86,1.26,0,2.35-.63,3.9-2.23l2.36-2.51c1.61-1.72,2-2.34,2-2.63s-.29-.45-1.26-.57l-1.38-.17a.85.85,0,0,1,0-1.43h1.32a88.42,88.42,0,0,0,9.14-.46c.4.17.46,1.15.11,1.43l-1.84.34a8.3,8.3,0,0,0-3.62,2c-2.24,1.77-4.19,3.83-5.23,4.8-.69.63-.75.91-.4,1.37,1,1.31,1.9,2.4,3.85,4.57,2.24,2.51,4.25,4.74,5.4,5.82a5.79,5.79,0,0,0,3,1.26l.8.11c.4.29.35,1.26-.11,1.43-1.82-.12-3.64-.17-5.46-.17-2.3,0-4.31.06-6,.17a1,1,0,0,1-.11-1.43l1-.17c.87-.11,1.44-.23,1.44-.57s-.23-.74-1-1.6L175,34.22a2.34,2.34,0,0,0-1.78-.8c-1,0-1.09.17-1.09,1.94V38.5c0,4.11.12,4.69,2.18,5l1.38.17a1,1,0,0,1-.11,1.43c-1.86-.11-3.72-.17-5.57-.17-2.07,0-3.8.06-5.52.17a1,1,0,0,1-.06-1.43l1.26-.17c2.13-.28,2.19-.85,2.19-5V12.69Z"/><path class="cls-2" d="M201.44,35.48c0,2.05.11,5,1.2,6.22s2.82,1.6,4.54,1.6c5.12,0,9-2.28,9-8,0-4.51-2.3-9.77-11.43-9.77-3.11,0-3.33.35-3.33,1.49v8.45Zm0-13.25c0,1.6.05,1.71,3,1.6,5.86-.23,9-1.94,9-7.31,0-5.6-4.19-7.71-8.56-7.71a7,7,0,0,0-2.64.35c-.58.17-.8.45-.8,1.48V22.23Zm-4.72-7.59c0-4.23-.23-5.31-2.81-5.54l-1.84-.17a.91.91,0,0,1,.06-1.43c3.1-.29,7-.46,12.35-.46,3.62,0,7.07.29,9.65,1.6a7.49,7.49,0,0,1,4.37,7.14c0,4.11-2.41,6.22-5.86,7.82,0,.57.46.74,1.09.86a9.46,9.46,0,0,1,7.7,9.53c0,6.63-4.94,11.08-15.28,11.08-1.67,0-4.49-.17-6.9-.17s-4.48.11-6.61.17a1.11,1.11,0,0,1-.11-1.43l1-.17c3.05-.51,3.16-1.14,3.16-7.14V14.64Zm33.47-3.49A24.86,24.86,0,0,1,245.7,6.3a44.74,44.74,0,0,1,10.17,1.37,4.33,4.33,0,0,0,1.61.23c0,1.31.34,4.91.8,8.39a1.22,1.22,0,0,1-1.55.12c-.86-3.89-3.45-8.34-11.78-8.34-8.79,0-16.26,5.54-16.26,17.36,0,12,7.64,18.61,17.07,18.61a12.23,12.23,0,0,0,12-8.16,1.23,1.23,0,0,1,1.5.22,21.3,21.3,0,0,1-2.76,7.83,11.06,11.06,0,0,0-2,.57,33.92,33.92,0,0,1-9.08,1.31c-5.17,0-10.11-1-14.3-3.82a18.38,18.38,0,0,1-8.17-15.71,19,19,0,0,1,7.24-15.13"/><path class="cls-3" d="M47.47,15.85a21.07,21.07,0,0,0-40.95.58A19.82,19.82,0,0,0,6,21a19.33,19.33,0,0,0,.38,3.76,4.4,4.4,0,0,0,.47-.1h0a27.73,27.73,0,0,1,7.53-.39,101.35,101.35,0,0,1,11,2.18c4.33,1,7.52,1.89,12.2,1.37,4.1-.45,6.9-1.09,9.63-2.87h0l.22-.14.29-.22A20.62,20.62,0,0,0,48.1,21a23.14,23.14,0,0,0-.63-5.16"/><path class="cls-1" d="M8.49,34.87a2,2,0,0,0,.27,1.23,1.31,1.31,0,0,0,1,.32c1.13,0,2-.45,2-1.58,0-.9-.5-1.93-2.51-1.93-.68,0-.73.06-.73.29Zm0-2.62c0,.32,0,.34.66.32,1.29,0,2-.39,2-1.45s-.92-1.52-1.88-1.52a1.57,1.57,0,0,0-.58.07c-.13,0-.18.09-.18.29Zm-1-1.5c0-.84,0-1.05-.62-1.1l-.4,0a.17.17,0,0,1,0-.28c.68-.06,1.54-.09,2.71-.09a5.3,5.3,0,0,1,2.12.31,1.49,1.49,0,0,1,1,1.42c0,.81-.53,1.23-1.29,1.54,0,.12.1.15.24.17a1.94,1.94,0,0,1,1.69,1.89c0,1.31-1.08,2.19-3.35,2.19-.37,0-1,0-1.52,0s-1,0-1.45,0a.21.21,0,0,1,0-.29l.22,0c.67-.1.7-.23.7-1.41Zm14.19,1.11c0-1,0-1.19-.66-1.23l-.27,0c-.06,0,0-.22,0-.24.54,0,.91,0,1.36,0l1.34,0c.06,0,.08.2,0,.24l-.27,0c-.64,0-.66.21-.66,1.23v3.43c0,1,0,1.16.66,1.23l.27,0c.06,0,0,.21,0,.24-.45,0-.89,0-1.34,0l-1.36,0a.18.18,0,0,1,0-.24l.27,0c.64-.07.66-.2.66-1.23V31.86Zm6,3.45c0,1,0,1.16.6,1.21l.32,0c.06,0,0,.21,0,.24l-1.32,0-1.4,0a.16.16,0,0,1,0-.24l.36,0c.58-.05.63-.19.63-1.21V31c0-.3,0-.31-.31-.31h-.55a2.16,2.16,0,0,0-1.24.24,1.88,1.88,0,0,0-.46.67.19.19,0,0,1-.26-.07,9.15,9.15,0,0,0,.38-1.43s.17,0,.19,0c.07.3.4.29.86.29H29.5c.55,0,.64,0,.79-.27.05,0,.16,0,.18,0a5.68,5.68,0,0,0-.15,1.47.19.19,0,0,1-.26,0c0-.24-.1-.6-.26-.71a2.11,2.11,0,0,0-1.17-.24h-.71c-.3,0-.29,0-.29.33ZM32,31.86c0-1,0-1.19-.66-1.23l-.27,0c-.06,0,0-.22,0-.24.53,0,.9,0,1.35,0l1.34,0c.06,0,.09.2,0,.24l-.27,0c-.64,0-.66.21-.66,1.23v3.43c0,1,0,1.16.66,1.23l.27,0c.07,0,0,.21,0,.24l-1.34,0-1.35,0a.17.17,0,0,1,0-.24l.27,0c.64-.07.66-.2.66-1.23V31.86Zm4.83,5A4.07,4.07,0,0,1,35,36.53a4,4,0,0,1-.31-1.35c.06-.07.23-.09.28,0a2,2,0,0,0,2,1.44c1,0,1.43-.53,1.43-1.11,0-.43-.1-.9-.94-1.35l-1.09-.6a2.07,2.07,0,0,1-1.23-1.66c0-.91.84-1.66,2.33-1.66a5.06,5.06,0,0,1,1.07.13,1.76,1.76,0,0,0,.4.06,3.68,3.68,0,0,1,.2,1.17c0,.06-.23.09-.28,0a1.44,1.44,0,0,0-1.56-1.09c-1.12,0-1.36.63-1.36,1.07s.55,1,1,1.19l.92.48a2.21,2.21,0,0,1,1.43,1.85c0,1.06-.95,1.79-2.44,1.79m5.76-3.25c-.5,0-.52,0-.52.31v1.36c0,1,0,1.15.64,1.21l.3,0c.06,0,0,.21,0,.24l-1.33,0c-.45,0-.8,0-1.21,0a.18.18,0,0,1,0-.24l.18,0c.58-.1.6-.19.6-1.21V31.84c0-1-.07-1.18-.61-1.21l-.27,0c-.07,0-.05-.22,0-.24l1.31,0,1.21,0c.07,0,.09.2,0,.24l-.2,0c-.61.05-.63.2-.63,1.21V33c0,.3,0,.31.52.31h3c.5,0,.52,0,.52-.31V31.84c0-1,0-1.16-.64-1.21l-.19,0c-.07,0,0-.22,0-.24q1.24,0,2.49,0c.07,0,.09.2,0,.24l-.22,0c-.6.05-.62.2-.62,1.21v3.47c0,1,0,1.14.62,1.21l.25,0c.07,0,0,.21,0,.24l-1.26,0c-.43,0-.8,0-1.26,0a.16.16,0,0,1,0-.24l.19,0c.64-.1.64-.19.64-1.21V34c0-.29,0-.31-.52-.31ZM1.48,38.91a5.13,5.13,0,0,1,3.18-1,9.24,9.24,0,0,1,2.08.28.8.8,0,0,0,.33,0c0,.27.07,1,.16,1.72a.25.25,0,0,1-.32,0,2.12,2.12,0,0,0-2.41-1.7,3.19,3.19,0,0,0-3.32,3.54,3.45,3.45,0,0,0,3.49,3.79A2.5,2.5,0,0,0,7.13,44a.24.24,0,0,1,.3,0,4.43,4.43,0,0,1-.56,1.59,1.93,1.93,0,0,0-.41.12A7.15,7.15,0,0,1,4.6,46a5.2,5.2,0,0,1-2.93-.78A3.75,3.75,0,0,1,0,42a3.86,3.86,0,0,1,1.48-3.08m12.58,4c0-1.59-.75-3.31-2.69-3.31a2.46,2.46,0,0,0-2.44,2.8c0,1.42.74,3.27,2.74,3.27,1.23,0,2.39-.86,2.39-2.76m-6.15-.2a3.44,3.44,0,0,1,3.63-3.41,3.26,3.26,0,0,1,3.54,3.31,3.39,3.39,0,0,1-3.54,3.36,3.35,3.35,0,0,1-3.63-3.27m18.66-.82a6.73,6.73,0,0,0-.19-2,.61.61,0,0,0-.51-.2l-.26,0a.17.17,0,0,1,0-.23l1.17,0c.43,0,.71,0,1.08,0a.17.17,0,0,1,0,.24l-.25,0a.58.58,0,0,0-.51.23,8.26,8.26,0,0,0-.14,2v1.09a3.25,3.25,0,0,1-.72,2.31,2.85,2.85,0,0,1-2,.7,3,3,0,0,1-1.92-.53,2.64,2.64,0,0,1-.8-2.27V40.86c0-1,0-1.17-.62-1.21l-.26,0c-.06,0,0-.21,0-.23l1.28,0,1.26,0c.06,0,.08.2,0,.24l-.24,0c-.6,0-.62.21-.62,1.21v2.08c0,1.56.51,2.58,2.09,2.58s2.05-1.1,2.05-2.56ZM39.44,44.2a1.68,1.68,0,0,0,.24,1,1.21,1.21,0,0,0,.89.27c1,0,1.77-.39,1.77-1.35,0-.76-.45-1.65-2.24-1.65-.61,0-.66.06-.66.25Zm0-2.24c0,.27,0,.29.59.27,1.15,0,1.77-.33,1.77-1.23s-.82-1.31-1.68-1.31a1.55,1.55,0,0,0-.52.06c-.11,0-.16.08-.16.25Zm-.92-1.28c0-.72,0-.9-.55-.94l-.36,0a.14.14,0,0,1,0-.24c.81,0,1.61-.08,2.42-.08a4.93,4.93,0,0,1,1.89.27,1.27,1.27,0,0,1,.86,1.21c0,.7-.48,1.05-1.15,1.32,0,.1.09.13.21.15A1.68,1.68,0,0,1,43.36,44c0,1.12-1,1.87-3,1.87-.33,0-.88,0-1.35,0s-.88,0-1.3,0a.16.16,0,0,1,0-.24l.2,0c.6-.09.62-.19.62-1.21V40.68Zm-22.45-7.3c-.19,0-.58.07-.58-.19V31.34c0-.72,0-.82.9-.82S18,31,18,32A1.21,1.21,0,0,1,17.51,33a2.38,2.38,0,0,1-1.44.34M20,36.55l-.27,0-.15,0c-.39-.06-.55-.41-.73-.74l-.94-1.61c-.16-.27-.33-.63-.7-.68,1-.12,1.82-.66,1.82-1.6S18,30.3,16.86,30.3c-.66,0-1.3,0-2,0-.37,0-.76,0-1.13,0-.2,0-.21,0-.21.15s.08.13.29.13c.81,0,.75.19.75.85v4.23c0,.6.05.78-.59.84l-.15,0-.27,0a.18.18,0,0,0,0,.25l.4,0c.35,0,.71,0,1.06,0s.7,0,1,0l.4,0a.19.19,0,0,0,0-.25l-.27,0-.16,0c-.64,0-.6-.22-.6-.84V34.07c0-.1,0-.34.06-.42s.16,0,.25,0c.87,0,.86.09,1.28.81l1.12,2c.1.16.16.36.39.36H20a.17.17,0,0,0,0-.24m-3.71,4.34c0-1,0-1.16-.7-1.21l-.27,0c-.06,0,0-.21,0-.24l1.38,0,1.32,0c.06,0,.08.2,0,.24l-.26,0c-.63,0-.65.2-.65,1.21v3.36c0,.61,0,.86.23,1s.32.22,1.16.22a3.21,3.21,0,0,0,1.3-.12,2.2,2.2,0,0,0,.71-1c.06,0,.26,0,.26.06a7.06,7.06,0,0,1-.45,1.35c-.88,0-1.77,0-2.65,0h-1l-1.38,0a.17.17,0,0,1,0-.24l.32,0c.62-.06.65-.19.65-1.2Zm28.6,0c0-1,0-1.18-.64-1.23l-.27,0c-.06,0,0-.21,0-.24l1.32,0,1.3,0c.07,0,.09.2,0,.24l-.27,0c-.61,0-.64.21-.64,1.23v3.44c0,1,0,1.16.64,1.22l.27,0c.06,0,0,.21,0,.24l-1.3,0-1.32,0a.18.18,0,0,1,0-.24l.27,0c.61-.07.64-.2.64-1.22Zm-8.38,4.66h-.15a.38.38,0,0,1-.29-.12c-.14-.14-.13-.55-.13-.71V40.5c0-.18,0-.58.09-.73a.57.57,0,0,1,.34-.09h.14l.27,0c.07,0,0-.21,0-.24H35.22c-.13,0-.24,0-.31.13l-2.33,4.83-2.06-4.67c-.07-.16-.08-.29-.3-.29H28.63c-.07,0-.09.2,0,.24l.27,0H29c.45,0,.48.13.43.59l-.35,4.54c0,.45-.05.69-.53.74l-.16,0-.27,0a.18.18,0,0,0,0,.24l.4,0c.24,0,.49,0,.74,0s.53,0,.8,0h.4a.18.18,0,0,0,0-.24l-.27,0h-.15c-.69-.05-.68-.54-.63-1.13l.32-4.22h.08l2.24,5.19c0,.07.05.2.16.2s.14-.12.17-.19L35,40.09h.08v4.64c0,.18,0,.56-.17.7a1.28,1.28,0,0,1-.43.12l-.15,0-.26,0a.16.16,0,0,0,0,.24h.39c.37,0,.74,0,1.11,0l.79,0,.41,0a.18.18,0,0,0,0-.24l-.27,0Zm14.67-2.36H49.93s-.4,0-.4-.06a.61.61,0,0,1,0-.13l.76-1.86s.1-.3.18-.3.16.26.18.3l.75,1.74s.07.19.07.23-.25.08-.32.08M54,45.59l0,0-.15,0c-.42-.1-.58-.6-.74-1l-2.16-5.08c0-.06-.06-.19-.15-.19s-.15.14-.18.22l-2.06,5.07a3.35,3.35,0,0,1-.41.8.61.61,0,0,1-.39.15h-.17l-.26,0a.18.18,0,0,0,0,.24h.4c.28,0,.57,0,.85,0s.47,0,.71,0l.4,0a.16.16,0,0,0,0-.24l-.27,0-.14,0c-.25,0-.56-.07-.56-.34a1.61,1.61,0,0,1,.15-.56l.32-.75c.16-.37.1-.41.52-.41h1.46c.51,0,.44,0,.66.52l.34.77a1.46,1.46,0,0,1,.15.49c0,.26-.28.27-.54.3h-.16l-.26,0a.18.18,0,0,0,0,.24l.4,0,.91,0,1.12,0,.16,0a.17.17,0,0,0,0-.25M6.51,16.48A20.4,20.4,0,0,0,6,21a18.59,18.59,0,0,0,.39,3.76l.47-.1h0a27.63,27.63,0,0,1,7.52-.39,101.35,101.35,0,0,1,11,2.18c4.33,1,7.53,1.89,12.21,1.37,4.09-.45,6.89-1.08,9.62-2.87h0l.22-.14.3-.22A20.62,20.62,0,0,0,48.1,21a22.64,22.64,0,0,0-.58-4.95l-2.9-1.6-3.35,2.33L39,15.91c-.76.38-5.47,3.51-5.47,3.51l-1.81-1.3-1.94-.38-2.58-1.87-3,2s-3.31,1.91-3.42,1.91-4-3.05-4-3.05L15,14.88c-.31.19-1.52.74-1.52.74l-.06,0-1.18-.36-1.43-.76-4.34,2Z"/><path class="cls-2" d="M10.21,14.46l-2.39-.88.08-.22,2.63.92.25-.16L12,14.8l1.56.57.09,0L8.13,12.83l.09-.21,6.14,2.43.09,0-6-2.92a2,2,0,0,1,.1-.21l6.49,2.81L8.83,11.36a1.74,1.74,0,0,0,.1-.19l8.75,4.6c.13-.23.26-.46.4-.68L11,9.56l7.61,4.85c.19-.25.39-.49.59-.72L11.84,7.1,12,6.93l5.31,4.67L12.4,6.52c0-.06.11-.11.17-.17l5.54,5.29L13,6a1.29,1.29,0,0,1,.17-.16l5,5L13.6,5.4l.16-.14,6.36,7.5c.24-.21.5-.41.76-.6l-4.53-7.8,5.23,7.34c.29-.17.58-.33.88-.47L18.17,2.42l.22-.1,3.18,6.32L18.92,2.08,19.14,2,22.3,9,19.69,1.78l.21-.08,2.71,6.52L20.46,1.5l.19-.06,3.06,9.29a8.47,8.47,0,0,1,.86-.25L23.31,1.56l2.09,8.75c.34-.05.7-.09,1.05-.11L25.8.47H26l.68,7-.1-7h.24l.29,7.36L27.42.44h.23l-.06,7,.65-7h.22l-.67,9.72c.34,0,.67.06,1,.11l2.08-8.72-1.25,8.89a9.46,9.46,0,0,1,.91.26l3-9.25.21.08L31.65,8.22l2.68-6.46.22.09L32,9l3.12-6.9.22.09L32.7,8.64,35.83,2.4l.2.1-4.26,8.75c.29.14.57.29.85.46l5.22-7.32-4.53,7.78a9.73,9.73,0,0,1,.79.61l6.3-7.43.17.15-4.48,5.37,4.91-5,.18.16L36.1,11.68l5.49-5.23.17.17-4.86,5L42.15,7l.15.16-7.25,6.53c.21.23.41.46.59.7l7.59-4.83-7.11,5.52c.14.22.27.45.4.68l8.64-4.55.11.21-6.12,3.27L45.53,12l.1.21-6.78,3.31,7-2.79.09.22L39.6,15.75l6.58-2.31c0,.07,0,.13.07.2l-1.4.51,2.09,1.58.57.32h0a22.83,22.83,0,0,0-.88-2.77A21.29,21.29,0,0,0,27,0,21,21,0,0,0,6.53,16.37a.52.52,0,0,0,0,.11l.41-.19,3.29-1.83Z"/></g></g></svg>