<svg xmlns="http://www.w3.org/2000/svg"  viewBox="0 0 512 512" width="40px" height="40px"><path fill="#d21c22" d="M504.1,256C504.1,119,393,7.9,256,7.9C119,7.9,7.9,119,7.9,256C7.9,393,119,504.1,256,504.1C393,504.1,504.1,393,504.1,256z"/><path fill="#FFF" d="M412.1,345.9c0,7.5-6.1,13.6-13.6,13.6H113.5c-7.5,0-13.6-6.1-13.6-13.6V166.1c0-7.5,6.1-13.6,13.6-13.6h285.1c7.5,0,13.6,6.1,13.6,13.6V345.9z"/><path fill="#d21c22" d="M343.4,247.1l-123.1-75.6c-3.4-2.1-7.8-2.2-11.2-0.2c-3.5,2-5.7,5.7-5.7,9.7v150.6c0,4,2.2,7.7,5.7,9.7c1.7,0.9,3.5,1.4,5.4,1.4c2,0,4-0.6,5.8-1.6l123.1-75c3.3-2,5.3-5.6,5.3-9.5C348.7,252.7,346.7,249.1,343.4,247.1z"/></svg>
